<?xml version="1.0" encoding="utf-8" standalone="no"?>
<!DOCTYPE svg PUBLIC "-//W3C//DTD SVG 1.1//EN"
  "http://www.w3.org/Graphics/SVG/1.1/DTD/svg11.dtd">
<svg xmlns:xlink="http://www.w3.org/1999/xlink" width="720pt" height="576pt" viewBox="0 0 720 576" xmlns="http://www.w3.org/2000/svg" version="1.1">
 <metadata>
  <rdf:RDF xmlns:dc="http://purl.org/dc/elements/1.1/" xmlns:cc="http://creativecommons.org/ns#" xmlns:rdf="http://www.w3.org/1999/02/22-rdf-syntax-ns#">
   <cc:Work>
    <dc:type rdf:resource="http://purl.org/dc/dcmitype/StillImage"/>
    <dc:date>2025-01-21T17:37:04.859616</dc:date>
    <dc:format>image/svg+xml</dc:format>
    <dc:creator>
     <cc:Agent>
      <dc:title>Matplotlib v3.10.0, https://matplotlib.org/</dc:title>
     </cc:Agent>
    </dc:creator>
   </cc:Work>
  </rdf:RDF>
 </metadata>
 <defs>
  <style type="text/css">*{stroke-linejoin: round; stroke-linecap: butt}</style>
 </defs>
 <g id="figure_1">
  <g id="patch_1">
   <path d="M 0 576 
L 720 576 
L 720 0 
L 0 0 
z
" style="fill: #ffffff"/>
  </g>
  <g id="axes_1">
   <g id="patch_2">
    <path d="M 90 270.72 
L 648 270.72 
L 648 69.12 
L 90 69.12 
z
" style="fill: #ffffff"/>
   </g>
   <g id="matplotlib.axis_1">
    <g id="xtick_1">
     <g id="line2d_1">
      <path d="M 115.363636 270.72 
L 115.363636 69.12 
" clip-path="url(#p99bbd6ee1d)" style="fill: none; stroke: #b0b0b0; stroke-width: 0.8; stroke-linecap: square"/>
     </g>
     <g id="line2d_2">
      <defs>
       <path id="mdc3d7ed8ad" d="M 0 0 
L 0 3.5 
" style="stroke: #000000; stroke-width: 0.8"/>
      </defs>
      <g>
       <use xlink:href="#mdc3d7ed8ad" x="115.363636" y="270.72" style="stroke: #000000; stroke-width: 0.8"/>
      </g>
     </g>
     <g id="text_1">
      <!-- 0.0 -->
      <g transform="translate(107.412074 285.318437) scale(0.1 -0.1)">
       <defs>
        <path id="DejaVuSans-30" d="M 2034 4250 
Q 1547 4250 1301 3770 
Q 1056 3291 1056 2328 
Q 1056 1369 1301 889 
Q 1547 409 2034 409 
Q 2525 409 2770 889 
Q 3016 1369 3016 2328 
Q 3016 3291 2770 3770 
Q 2525 4250 2034 4250 
z
M 2034 4750 
Q 2819 4750 3233 4129 
Q 3647 3509 3647 2328 
Q 3647 1150 3233 529 
Q 2819 -91 2034 -91 
Q 1250 -91 836 529 
Q 422 1150 422 2328 
Q 422 3509 836 4129 
Q 1250 4750 2034 4750 
z
" transform="scale(0.015625)"/>
        <path id="DejaVuSans-2e" d="M 684 794 
L 1344 794 
L 1344 0 
L 684 0 
L 684 794 
z
" transform="scale(0.015625)"/>
       </defs>
       <use xlink:href="#DejaVuSans-30"/>
       <use xlink:href="#DejaVuSans-2e" transform="translate(63.623047 0)"/>
       <use xlink:href="#DejaVuSans-30" transform="translate(95.410156 0)"/>
      </g>
     </g>
    </g>
    <g id="xtick_2">
     <g id="line2d_3">
      <path d="M 221.045455 270.72 
L 221.045455 69.12 
" clip-path="url(#p99bbd6ee1d)" style="fill: none; stroke: #b0b0b0; stroke-width: 0.8; stroke-linecap: square"/>
     </g>
     <g id="line2d_4">
      <g>
       <use xlink:href="#mdc3d7ed8ad" x="221.045455" y="270.72" style="stroke: #000000; stroke-width: 0.8"/>
      </g>
     </g>
     <g id="text_2">
      <!-- 0.5 -->
      <g transform="translate(213.093892 285.318437) scale(0.1 -0.1)">
       <defs>
        <path id="DejaVuSans-35" d="M 691 4666 
L 3169 4666 
L 3169 4134 
L 1269 4134 
L 1269 2991 
Q 1406 3038 1543 3061 
Q 1681 3084 1819 3084 
Q 2600 3084 3056 2656 
Q 3513 2228 3513 1497 
Q 3513 744 3044 326 
Q 2575 -91 1722 -91 
Q 1428 -91 1123 -41 
Q 819 9 494 109 
L 494 744 
Q 775 591 1075 516 
Q 1375 441 1709 441 
Q 2250 441 2565 725 
Q 2881 1009 2881 1497 
Q 2881 1984 2565 2268 
Q 2250 2553 1709 2553 
Q 1456 2553 1204 2497 
Q 953 2441 691 2322 
L 691 4666 
z
" transform="scale(0.015625)"/>
       </defs>
       <use xlink:href="#DejaVuSans-30"/>
       <use xlink:href="#DejaVuSans-2e" transform="translate(63.623047 0)"/>
       <use xlink:href="#DejaVuSans-35" transform="translate(95.410156 0)"/>
      </g>
     </g>
    </g>
    <g id="xtick_3">
     <g id="line2d_5">
      <path d="M 326.727273 270.72 
L 326.727273 69.12 
" clip-path="url(#p99bbd6ee1d)" style="fill: none; stroke: #b0b0b0; stroke-width: 0.8; stroke-linecap: square"/>
     </g>
     <g id="line2d_6">
      <g>
       <use xlink:href="#mdc3d7ed8ad" x="326.727273" y="270.72" style="stroke: #000000; stroke-width: 0.8"/>
      </g>
     </g>
     <g id="text_3">
      <!-- 1.0 -->
      <g transform="translate(318.77571 285.318437) scale(0.1 -0.1)">
       <defs>
        <path id="DejaVuSans-31" d="M 794 531 
L 1825 531 
L 1825 4091 
L 703 3866 
L 703 4441 
L 1819 4666 
L 2450 4666 
L 2450 531 
L 3481 531 
L 3481 0 
L 794 0 
L 794 531 
z
" transform="scale(0.015625)"/>
       </defs>
       <use xlink:href="#DejaVuSans-31"/>
       <use xlink:href="#DejaVuSans-2e" transform="translate(63.623047 0)"/>
       <use xlink:href="#DejaVuSans-30" transform="translate(95.410156 0)"/>
      </g>
     </g>
    </g>
    <g id="xtick_4">
     <g id="line2d_7">
      <path d="M 432.409091 270.72 
L 432.409091 69.12 
" clip-path="url(#p99bbd6ee1d)" style="fill: none; stroke: #b0b0b0; stroke-width: 0.8; stroke-linecap: square"/>
     </g>
     <g id="line2d_8">
      <g>
       <use xlink:href="#mdc3d7ed8ad" x="432.409091" y="270.72" style="stroke: #000000; stroke-width: 0.8"/>
      </g>
     </g>
     <g id="text_4">
      <!-- 1.5 -->
      <g transform="translate(424.457528 285.318437) scale(0.1 -0.1)">
       <use xlink:href="#DejaVuSans-31"/>
       <use xlink:href="#DejaVuSans-2e" transform="translate(63.623047 0)"/>
       <use xlink:href="#DejaVuSans-35" transform="translate(95.410156 0)"/>
      </g>
     </g>
    </g>
    <g id="xtick_5">
     <g id="line2d_9">
      <path d="M 538.090909 270.72 
L 538.090909 69.12 
" clip-path="url(#p99bbd6ee1d)" style="fill: none; stroke: #b0b0b0; stroke-width: 0.8; stroke-linecap: square"/>
     </g>
     <g id="line2d_10">
      <g>
       <use xlink:href="#mdc3d7ed8ad" x="538.090909" y="270.72" style="stroke: #000000; stroke-width: 0.8"/>
      </g>
     </g>
     <g id="text_5">
      <!-- 2.0 -->
      <g transform="translate(530.139347 285.318437) scale(0.1 -0.1)">
       <defs>
        <path id="DejaVuSans-32" d="M 1228 531 
L 3431 531 
L 3431 0 
L 469 0 
L 469 531 
Q 828 903 1448 1529 
Q 2069 2156 2228 2338 
Q 2531 2678 2651 2914 
Q 2772 3150 2772 3378 
Q 2772 3750 2511 3984 
Q 2250 4219 1831 4219 
Q 1534 4219 1204 4116 
Q 875 4013 500 3803 
L 500 4441 
Q 881 4594 1212 4672 
Q 1544 4750 1819 4750 
Q 2544 4750 2975 4387 
Q 3406 4025 3406 3419 
Q 3406 3131 3298 2873 
Q 3191 2616 2906 2266 
Q 2828 2175 2409 1742 
Q 1991 1309 1228 531 
z
" transform="scale(0.015625)"/>
       </defs>
       <use xlink:href="#DejaVuSans-32"/>
       <use xlink:href="#DejaVuSans-2e" transform="translate(63.623047 0)"/>
       <use xlink:href="#DejaVuSans-30" transform="translate(95.410156 0)"/>
      </g>
     </g>
    </g>
    <g id="xtick_6">
     <g id="line2d_11">
      <path d="M 643.772727 270.72 
L 643.772727 69.12 
" clip-path="url(#p99bbd6ee1d)" style="fill: none; stroke: #b0b0b0; stroke-width: 0.8; stroke-linecap: square"/>
     </g>
     <g id="line2d_12">
      <g>
       <use xlink:href="#mdc3d7ed8ad" x="643.772727" y="270.72" style="stroke: #000000; stroke-width: 0.8"/>
      </g>
     </g>
     <g id="text_6">
      <!-- 2.5 -->
      <g transform="translate(635.821165 285.318437) scale(0.1 -0.1)">
       <use xlink:href="#DejaVuSans-32"/>
       <use xlink:href="#DejaVuSans-2e" transform="translate(63.623047 0)"/>
       <use xlink:href="#DejaVuSans-35" transform="translate(95.410156 0)"/>
      </g>
     </g>
    </g>
   </g>
   <g id="matplotlib.axis_2">
    <g id="ytick_1">
     <g id="line2d_13">
      <path d="M 90 247.827434 
L 648 247.827434 
" clip-path="url(#p99bbd6ee1d)" style="fill: none; stroke: #b0b0b0; stroke-width: 0.8; stroke-linecap: square"/>
     </g>
     <g id="line2d_14">
      <defs>
       <path id="m9bfb75db3d" d="M 0 0 
L -3.5 0 
" style="stroke: #000000; stroke-width: 0.8"/>
      </defs>
      <g>
       <use xlink:href="#m9bfb75db3d" x="90" y="247.827434" style="stroke: #000000; stroke-width: 0.8"/>
      </g>
     </g>
     <g id="text_7">
      <!-- 0.0 -->
      <g transform="translate(67.096875 251.626652) scale(0.1 -0.1)">
       <use xlink:href="#DejaVuSans-30"/>
       <use xlink:href="#DejaVuSans-2e" transform="translate(63.623047 0)"/>
       <use xlink:href="#DejaVuSans-30" transform="translate(95.410156 0)"/>
      </g>
     </g>
    </g>
    <g id="ytick_2">
     <g id="line2d_15">
      <path d="M 90 216.706368 
L 648 216.706368 
" clip-path="url(#p99bbd6ee1d)" style="fill: none; stroke: #b0b0b0; stroke-width: 0.8; stroke-linecap: square"/>
     </g>
     <g id="line2d_16">
      <g>
       <use xlink:href="#m9bfb75db3d" x="90" y="216.706368" style="stroke: #000000; stroke-width: 0.8"/>
      </g>
     </g>
     <g id="text_8">
      <!-- 0.2 -->
      <g transform="translate(67.096875 220.505587) scale(0.1 -0.1)">
       <use xlink:href="#DejaVuSans-30"/>
       <use xlink:href="#DejaVuSans-2e" transform="translate(63.623047 0)"/>
       <use xlink:href="#DejaVuSans-32" transform="translate(95.410156 0)"/>
      </g>
     </g>
    </g>
    <g id="ytick_3">
     <g id="line2d_17">
      <path d="M 90 185.585302 
L 648 185.585302 
" clip-path="url(#p99bbd6ee1d)" style="fill: none; stroke: #b0b0b0; stroke-width: 0.8; stroke-linecap: square"/>
     </g>
     <g id="line2d_18">
      <g>
       <use xlink:href="#m9bfb75db3d" x="90" y="185.585302" style="stroke: #000000; stroke-width: 0.8"/>
      </g>
     </g>
     <g id="text_9">
      <!-- 0.4 -->
      <g transform="translate(67.096875 189.384521) scale(0.1 -0.1)">
       <defs>
        <path id="DejaVuSans-34" d="M 2419 4116 
L 825 1625 
L 2419 1625 
L 2419 4116 
z
M 2253 4666 
L 3047 4666 
L 3047 1625 
L 3713 1625 
L 3713 1100 
L 3047 1100 
L 3047 0 
L 2419 0 
L 2419 1100 
L 313 1100 
L 313 1709 
L 2253 4666 
z
" transform="scale(0.015625)"/>
       </defs>
       <use xlink:href="#DejaVuSans-30"/>
       <use xlink:href="#DejaVuSans-2e" transform="translate(63.623047 0)"/>
       <use xlink:href="#DejaVuSans-34" transform="translate(95.410156 0)"/>
      </g>
     </g>
    </g>
    <g id="ytick_4">
     <g id="line2d_19">
      <path d="M 90 154.464236 
L 648 154.464236 
" clip-path="url(#p99bbd6ee1d)" style="fill: none; stroke: #b0b0b0; stroke-width: 0.8; stroke-linecap: square"/>
     </g>
     <g id="line2d_20">
      <g>
       <use xlink:href="#m9bfb75db3d" x="90" y="154.464236" style="stroke: #000000; stroke-width: 0.8"/>
      </g>
     </g>
     <g id="text_10">
      <!-- 0.6 -->
      <g transform="translate(67.096875 158.263455) scale(0.1 -0.1)">
       <defs>
        <path id="DejaVuSans-36" d="M 2113 2584 
Q 1688 2584 1439 2293 
Q 1191 2003 1191 1497 
Q 1191 994 1439 701 
Q 1688 409 2113 409 
Q 2538 409 2786 701 
Q 3034 994 3034 1497 
Q 3034 2003 2786 2293 
Q 2538 2584 2113 2584 
z
M 3366 4563 
L 3366 3988 
Q 3128 4100 2886 4159 
Q 2644 4219 2406 4219 
Q 1781 4219 1451 3797 
Q 1122 3375 1075 2522 
Q 1259 2794 1537 2939 
Q 1816 3084 2150 3084 
Q 2853 3084 3261 2657 
Q 3669 2231 3669 1497 
Q 3669 778 3244 343 
Q 2819 -91 2113 -91 
Q 1303 -91 875 529 
Q 447 1150 447 2328 
Q 447 3434 972 4092 
Q 1497 4750 2381 4750 
Q 2619 4750 2861 4703 
Q 3103 4656 3366 4563 
z
" transform="scale(0.015625)"/>
       </defs>
       <use xlink:href="#DejaVuSans-30"/>
       <use xlink:href="#DejaVuSans-2e" transform="translate(63.623047 0)"/>
       <use xlink:href="#DejaVuSans-36" transform="translate(95.410156 0)"/>
      </g>
     </g>
    </g>
    <g id="ytick_5">
     <g id="line2d_21">
      <path d="M 90 123.34317 
L 648 123.34317 
" clip-path="url(#p99bbd6ee1d)" style="fill: none; stroke: #b0b0b0; stroke-width: 0.8; stroke-linecap: square"/>
     </g>
     <g id="line2d_22">
      <g>
       <use xlink:href="#m9bfb75db3d" x="90" y="123.34317" style="stroke: #000000; stroke-width: 0.8"/>
      </g>
     </g>
     <g id="text_11">
      <!-- 0.8 -->
      <g transform="translate(67.096875 127.142389) scale(0.1 -0.1)">
       <defs>
        <path id="DejaVuSans-38" d="M 2034 2216 
Q 1584 2216 1326 1975 
Q 1069 1734 1069 1313 
Q 1069 891 1326 650 
Q 1584 409 2034 409 
Q 2484 409 2743 651 
Q 3003 894 3003 1313 
Q 3003 1734 2745 1975 
Q 2488 2216 2034 2216 
z
M 1403 2484 
Q 997 2584 770 2862 
Q 544 3141 544 3541 
Q 544 4100 942 4425 
Q 1341 4750 2034 4750 
Q 2731 4750 3128 4425 
Q 3525 4100 3525 3541 
Q 3525 3141 3298 2862 
Q 3072 2584 2669 2484 
Q 3125 2378 3379 2068 
Q 3634 1759 3634 1313 
Q 3634 634 3220 271 
Q 2806 -91 2034 -91 
Q 1263 -91 848 271 
Q 434 634 434 1313 
Q 434 1759 690 2068 
Q 947 2378 1403 2484 
z
M 1172 3481 
Q 1172 3119 1398 2916 
Q 1625 2713 2034 2713 
Q 2441 2713 2670 2916 
Q 2900 3119 2900 3481 
Q 2900 3844 2670 4047 
Q 2441 4250 2034 4250 
Q 1625 4250 1398 4047 
Q 1172 3844 1172 3481 
z
" transform="scale(0.015625)"/>
       </defs>
       <use xlink:href="#DejaVuSans-30"/>
       <use xlink:href="#DejaVuSans-2e" transform="translate(63.623047 0)"/>
       <use xlink:href="#DejaVuSans-38" transform="translate(95.410156 0)"/>
      </g>
     </g>
    </g>
    <g id="ytick_6">
     <g id="line2d_23">
      <path d="M 90 92.222105 
L 648 92.222105 
" clip-path="url(#p99bbd6ee1d)" style="fill: none; stroke: #b0b0b0; stroke-width: 0.8; stroke-linecap: square"/>
     </g>
     <g id="line2d_24">
      <g>
       <use xlink:href="#m9bfb75db3d" x="90" y="92.222105" style="stroke: #000000; stroke-width: 0.8"/>
      </g>
     </g>
     <g id="text_12">
      <!-- 1.0 -->
      <g transform="translate(67.096875 96.021323) scale(0.1 -0.1)">
       <use xlink:href="#DejaVuSans-31"/>
       <use xlink:href="#DejaVuSans-2e" transform="translate(63.623047 0)"/>
       <use xlink:href="#DejaVuSans-30" transform="translate(95.410156 0)"/>
      </g>
     </g>
    </g>
    <g id="text_13">
     <!-- Position (m) -->
     <g transform="translate(61.017187 199.745) rotate(-90) scale(0.1 -0.1)">
      <defs>
       <path id="DejaVuSans-50" d="M 1259 4147 
L 1259 2394 
L 2053 2394 
Q 2494 2394 2734 2622 
Q 2975 2850 2975 3272 
Q 2975 3691 2734 3919 
Q 2494 4147 2053 4147 
L 1259 4147 
z
M 628 4666 
L 2053 4666 
Q 2838 4666 3239 4311 
Q 3641 3956 3641 3272 
Q 3641 2581 3239 2228 
Q 2838 1875 2053 1875 
L 1259 1875 
L 1259 0 
L 628 0 
L 628 4666 
z
" transform="scale(0.015625)"/>
       <path id="DejaVuSans-6f" d="M 1959 3097 
Q 1497 3097 1228 2736 
Q 959 2375 959 1747 
Q 959 1119 1226 758 
Q 1494 397 1959 397 
Q 2419 397 2687 759 
Q 2956 1122 2956 1747 
Q 2956 2369 2687 2733 
Q 2419 3097 1959 3097 
z
M 1959 3584 
Q 2709 3584 3137 3096 
Q 3566 2609 3566 1747 
Q 3566 888 3137 398 
Q 2709 -91 1959 -91 
Q 1206 -91 779 398 
Q 353 888 353 1747 
Q 353 2609 779 3096 
Q 1206 3584 1959 3584 
z
" transform="scale(0.015625)"/>
       <path id="DejaVuSans-73" d="M 2834 3397 
L 2834 2853 
Q 2591 2978 2328 3040 
Q 2066 3103 1784 3103 
Q 1356 3103 1142 2972 
Q 928 2841 928 2578 
Q 928 2378 1081 2264 
Q 1234 2150 1697 2047 
L 1894 2003 
Q 2506 1872 2764 1633 
Q 3022 1394 3022 966 
Q 3022 478 2636 193 
Q 2250 -91 1575 -91 
Q 1294 -91 989 -36 
Q 684 19 347 128 
L 347 722 
Q 666 556 975 473 
Q 1284 391 1588 391 
Q 1994 391 2212 530 
Q 2431 669 2431 922 
Q 2431 1156 2273 1281 
Q 2116 1406 1581 1522 
L 1381 1569 
Q 847 1681 609 1914 
Q 372 2147 372 2553 
Q 372 3047 722 3315 
Q 1072 3584 1716 3584 
Q 2034 3584 2315 3537 
Q 2597 3491 2834 3397 
z
" transform="scale(0.015625)"/>
       <path id="DejaVuSans-69" d="M 603 3500 
L 1178 3500 
L 1178 0 
L 603 0 
L 603 3500 
z
M 603 4863 
L 1178 4863 
L 1178 4134 
L 603 4134 
L 603 4863 
z
" transform="scale(0.015625)"/>
       <path id="DejaVuSans-74" d="M 1172 4494 
L 1172 3500 
L 2356 3500 
L 2356 3053 
L 1172 3053 
L 1172 1153 
Q 1172 725 1289 603 
Q 1406 481 1766 481 
L 2356 481 
L 2356 0 
L 1766 0 
Q 1100 0 847 248 
Q 594 497 594 1153 
L 594 3053 
L 172 3053 
L 172 3500 
L 594 3500 
L 594 4494 
L 1172 4494 
z
" transform="scale(0.015625)"/>
       <path id="DejaVuSans-6e" d="M 3513 2113 
L 3513 0 
L 2938 0 
L 2938 2094 
Q 2938 2591 2744 2837 
Q 2550 3084 2163 3084 
Q 1697 3084 1428 2787 
Q 1159 2491 1159 1978 
L 1159 0 
L 581 0 
L 581 3500 
L 1159 3500 
L 1159 2956 
Q 1366 3272 1645 3428 
Q 1925 3584 2291 3584 
Q 2894 3584 3203 3211 
Q 3513 2838 3513 2113 
z
" transform="scale(0.015625)"/>
       <path id="DejaVuSans-20" transform="scale(0.015625)"/>
       <path id="DejaVuSans-28" d="M 1984 4856 
Q 1566 4138 1362 3434 
Q 1159 2731 1159 2009 
Q 1159 1288 1364 580 
Q 1569 -128 1984 -844 
L 1484 -844 
Q 1016 -109 783 600 
Q 550 1309 550 2009 
Q 550 2706 781 3412 
Q 1013 4119 1484 4856 
L 1984 4856 
z
" transform="scale(0.015625)"/>
       <path id="DejaVuSans-6d" d="M 3328 2828 
Q 3544 3216 3844 3400 
Q 4144 3584 4550 3584 
Q 5097 3584 5394 3201 
Q 5691 2819 5691 2113 
L 5691 0 
L 5113 0 
L 5113 2094 
Q 5113 2597 4934 2840 
Q 4756 3084 4391 3084 
Q 3944 3084 3684 2787 
Q 3425 2491 3425 1978 
L 3425 0 
L 2847 0 
L 2847 2094 
Q 2847 2600 2669 2842 
Q 2491 3084 2119 3084 
Q 1678 3084 1418 2786 
Q 1159 2488 1159 1978 
L 1159 0 
L 581 0 
L 581 3500 
L 1159 3500 
L 1159 2956 
Q 1356 3278 1631 3431 
Q 1906 3584 2284 3584 
Q 2666 3584 2933 3390 
Q 3200 3197 3328 2828 
z
" transform="scale(0.015625)"/>
       <path id="DejaVuSans-29" d="M 513 4856 
L 1013 4856 
Q 1481 4119 1714 3412 
Q 1947 2706 1947 2009 
Q 1947 1309 1714 600 
Q 1481 -109 1013 -844 
L 513 -844 
Q 928 -128 1133 580 
Q 1338 1288 1338 2009 
Q 1338 2731 1133 3434 
Q 928 4138 513 4856 
z
" transform="scale(0.015625)"/>
      </defs>
      <use xlink:href="#DejaVuSans-50"/>
      <use xlink:href="#DejaVuSans-6f" transform="translate(56.677734 0)"/>
      <use xlink:href="#DejaVuSans-73" transform="translate(117.859375 0)"/>
      <use xlink:href="#DejaVuSans-69" transform="translate(169.958984 0)"/>
      <use xlink:href="#DejaVuSans-74" transform="translate(197.742188 0)"/>
      <use xlink:href="#DejaVuSans-69" transform="translate(236.951172 0)"/>
      <use xlink:href="#DejaVuSans-6f" transform="translate(264.734375 0)"/>
      <use xlink:href="#DejaVuSans-6e" transform="translate(325.916016 0)"/>
      <use xlink:href="#DejaVuSans-20" transform="translate(389.294922 0)"/>
      <use xlink:href="#DejaVuSans-28" transform="translate(421.082031 0)"/>
      <use xlink:href="#DejaVuSans-6d" transform="translate(460.095703 0)"/>
      <use xlink:href="#DejaVuSans-29" transform="translate(557.507812 0)"/>
     </g>
    </g>
   </g>
   <g id="line2d_25">
    <path d="M 115.363636 247.827434 
L 158.157901 247.757167 
L 158.83449 247.477764 
L 159.511079 246.985482 
L 160.356816 246.070769 
L 161.202552 244.823433 
L 162.217436 242.887567 
L 163.23232 240.472725 
L 164.416351 237.050034 
L 165.769529 232.340093 
L 167.122708 226.778638 
L 168.81418 218.72607 
L 190.803328 111.263105 
L 192.156507 105.994358 
L 193.509685 101.577125 
L 194.693716 98.410555 
L 195.877747 95.895925 
L 196.892631 94.25942 
L 197.738367 93.261551 
L 198.584104 92.596305 
L 199.260693 92.303597 
L 199.937282 92.222105 
L 242.731547 92.315655 
L 243.408136 92.621668 
L 244.084725 93.14056 
L 244.930462 94.088535 
L 245.776198 95.369133 
L 246.791082 97.344914 
L 247.805966 99.799671 
L 248.989997 103.268928 
L 250.343175 108.032089 
L 251.696353 113.646764 
L 253.387826 121.738831 
L 275.207827 228.428863 
L 276.730152 234.356204 
L 278.083331 238.720217 
L 279.267362 241.840221 
L 280.451393 244.308283 
L 281.466277 245.904873 
L 282.312013 246.86948 
L 283.15775 247.501463 
L 283.834339 247.767562 
L 284.680075 247.827434 
L 327.305193 247.757167 
L 327.981782 247.477764 
L 328.658371 246.985482 
L 329.504107 246.070769 
L 330.349844 244.823433 
L 331.364728 242.887567 
L 332.379611 240.472725 
L 333.563642 237.050034 
L 334.916821 232.340093 
L 336.269999 226.778638 
L 337.961472 218.72607 
L 359.95062 111.263105 
L 361.303798 105.994358 
L 362.656977 101.577125 
L 363.841008 98.410555 
L 365.025039 95.895925 
L 366.039922 94.25942 
L 366.885659 93.261551 
L 367.731395 92.596305 
L 368.407984 92.303597 
L 369.084574 92.222105 
L 411.878838 92.315655 
L 412.555428 92.621668 
L 413.232017 93.14056 
L 414.077753 94.088535 
L 414.92349 95.369133 
L 415.938373 97.344914 
L 416.953257 99.799671 
L 418.137288 103.268928 
L 419.490467 108.032089 
L 420.843645 113.646764 
L 422.535118 121.738831 
L 444.355118 228.428863 
L 445.877444 234.356204 
L 447.230622 238.720217 
L 448.414653 241.840221 
L 449.598684 244.308283 
L 450.613568 245.904873 
L 451.459305 246.86948 
L 452.305041 247.501463 
L 452.98163 247.767562 
L 453.827367 247.827434 
L 496.452484 247.757167 
L 497.129073 247.477764 
L 497.805662 246.985482 
L 498.651399 246.070769 
L 499.497135 244.823433 
L 500.512019 242.887567 
L 501.526903 240.472725 
L 502.710934 237.050034 
L 504.064112 232.340093 
L 505.417291 226.778638 
L 507.108764 218.72607 
L 529.097911 111.263105 
L 530.45109 105.994358 
L 531.804268 101.577125 
L 532.988299 98.410555 
L 534.17233 95.895925 
L 535.187214 94.25942 
L 536.03295 93.261551 
L 536.878687 92.596305 
L 537.555276 92.303597 
L 538.231865 92.222105 
L 581.02613 92.315655 
L 581.702719 92.621668 
L 582.379308 93.14056 
L 583.225045 94.088535 
L 584.070781 95.369133 
L 585.085665 97.344914 
L 586.100549 99.799671 
L 587.28458 103.268928 
L 588.637758 108.032089 
L 589.990936 113.646764 
L 591.682409 121.738831 
L 613.50241 228.428863 
L 615.024736 234.356204 
L 616.377914 238.720217 
L 617.561945 241.840221 
L 618.745976 244.308283 
L 619.76086 245.904873 
L 620.606596 246.86948 
L 621.452333 247.501463 
L 622.128922 247.767562 
L 622.636364 247.827434 
L 622.636364 247.827434 
" clip-path="url(#p99bbd6ee1d)" style="fill: none; stroke-dasharray: 5.55,2.4; stroke-dashoffset: 0; stroke: #000000; stroke-width: 1.5"/>
   </g>
   <g id="line2d_26">
    <path d="M 115.363636 247.827434 
L 158.157901 247.753364 
L 158.83449 247.469946 
L 159.511079 246.975678 
L 160.356816 246.05915 
L 161.202552 244.810742 
L 162.217436 242.876725 
L 163.23232 240.453644 
L 164.416351 237.02044 
L 165.769529 232.29787 
L 167.122708 226.724286 
L 168.645033 219.458231 
L 177.102398 177.607274 
L 190.126739 114.287423 
L 191.649065 108.244622 
L 193.002243 103.713078 
L 194.355422 99.970014 
L 195.539453 97.348563 
L 196.554336 95.617941 
L 197.56922 94.37348 
L 198.584104 93.524433 
L 199.598988 92.966156 
L 201.121313 92.415892 
L 203.320228 91.79821 
L 205.519143 91.428449 
L 208.225499 91.203479 
L 211.777593 91.142251 
L 217.5286 91.298894 
L 236.980539 91.956472 
L 242.731547 92.177344 
L 243.408136 92.524711 
L 244.253873 93.244057 
L 245.099609 94.28546 
L 245.945345 95.653258 
L 246.960229 97.735684 
L 248.14426 100.775704 
L 249.328291 104.461515 
L 250.68147 109.456219 
L 252.034648 115.332968 
L 254.571857 127.670321 
L 275.376974 228.95632 
L 276.8993 234.703625 
L 278.252478 238.924599 
L 279.436509 241.931093 
L 280.451393 243.993683 
L 281.466277 245.577109 
L 282.312013 246.529122 
L 283.15775 247.147219 
L 283.834339 247.402751 
L 284.680075 247.465589 
L 298.211858 247.698519 
L 319.186123 247.805679 
L 327.305193 247.731783 
L 327.981782 247.437703 
L 328.658371 246.931751 
L 329.504107 246.002051 
L 330.349844 244.738473 
L 331.364728 242.782849 
L 332.379611 240.355579 
L 333.563642 236.92804 
L 334.747673 232.850589 
L 336.100852 227.408188 
L 337.623177 220.277004 
L 347.095426 173.216217 
L 359.104883 114.9063 
L 360.627209 108.842153 
L 361.980387 104.266878 
L 363.333566 100.454415 
L 364.517597 97.761583 
L 365.532481 95.95234 
L 366.378217 94.836995 
L 367.223953 94.048022 
L 368.06969 93.525659 
L 369.084574 93.160348 
L 370.606899 92.897125 
L 376.18876 92.207596 
L 380.586589 92.014891 
L 387.352481 91.972786 
L 411.540544 92.179549 
L 412.217133 92.353676 
L 412.893722 92.75954 
L 413.739459 93.569275 
L 414.585195 94.71179 
L 415.600079 96.519592 
L 416.614963 98.811562 
L 417.798994 102.106362 
L 418.983025 106.051365 
L 420.336203 111.34702 
L 421.689381 117.512163 
L 429.470157 156.02063 
L 443.340235 223.696405 
L 444.86256 230.030585 
L 446.215739 234.765932 
L 447.568917 238.72436 
L 448.752948 241.554746 
L 449.767832 243.500738 
L 450.782715 244.989398 
L 451.628452 245.872136 
L 452.474188 246.434555 
L 453.150778 246.655803 
L 455.180545 246.83253 
L 462.115584 247.254466 
L 470.742096 247.548369 
L 483.258995 247.733083 
L 496.283337 247.737326 
L 496.959926 247.472365 
L 497.636515 246.999188 
L 498.482252 246.11185 
L 499.327988 244.895674 
L 500.342872 243.012298 
L 501.357756 240.663903 
L 502.541787 237.343658 
L 503.725818 233.378942 
L 505.078996 228.063141 
L 506.601322 221.068166 
L 529.943648 107.674634 
L 531.296826 102.760409 
L 532.480857 99.197494 
L 533.664888 96.310225 
L 534.679772 94.37135 
L 535.694656 92.926324 
L 536.540392 92.101775 
L 537.216981 91.693564 
L 537.893571 91.512114 
L 539.415896 91.524416 
L 575.275122 92.161773 
L 581.02613 92.286669 
L 581.702719 92.590075 
L 582.548456 93.278931 
L 583.394192 94.293401 
L 584.239928 95.63666 
L 585.254812 97.675512 
L 586.269696 100.196062 
L 587.453727 103.762616 
L 588.806905 108.677095 
L 590.498378 115.766916 
L 593.881324 131.262276 
L 598.448301 153.183991 
L 606.398224 192.542845 
L 613.840704 229.157825 
L 615.193883 234.45366 
L 616.547061 238.855836 
L 617.731092 241.989962 
L 618.745976 244.136952 
L 619.76086 245.786189 
L 620.606596 246.784509 
L 621.452333 247.446441 
L 622.128922 247.732389 
L 622.636364 247.807655 
L 622.636364 247.807655 
" clip-path="url(#p99bbd6ee1d)" style="fill: none; stroke: #0000ff; stroke-width: 1.5; stroke-linecap: square"/>
   </g>
   <g id="line2d_27">
    <path d="M 115.363636 247.827434 
L 159.511079 247.721757 
L 160.525963 247.463536 
L 161.540847 246.967048 
L 162.555731 246.172313 
L 163.570614 245.033845 
L 164.585498 243.505116 
L 165.600382 241.567265 
L 166.615266 239.186696 
L 167.799297 235.815371 
L 169.152475 231.164063 
L 170.674801 225.049604 
L 172.535421 216.620718 
L 174.903483 204.832098 
L 178.455576 185.926336 
L 193.509685 104.453163 
L 195.201158 97.02551 
L 196.723484 91.352292 
L 198.076662 87.199322 
L 199.260693 84.29451 
L 200.275577 82.340026 
L 201.29046 80.848584 
L 202.305344 79.762967 
L 203.320228 79.019125 
L 204.335112 78.558923 
L 205.349995 78.330329 
L 206.534026 78.296343 
L 207.887205 78.499013 
L 209.40953 78.957018 
L 211.439298 79.815996 
L 214.483949 81.374667 
L 221.249841 84.889609 
L 224.801934 86.446235 
L 228.18488 87.688204 
L 231.567826 88.700853 
L 235.289066 89.58389 
L 239.348601 90.315227 
L 244.592167 91.221394 
L 245.607051 91.720877 
L 246.621935 92.482281 
L 247.636818 93.568649 
L 248.651702 95.023246 
L 249.666586 96.874201 
L 250.68147 99.152558 
L 251.865501 102.386968 
L 253.049532 106.261798 
L 254.40271 111.416494 
L 256.094183 118.7458 
L 258.293098 129.324864 
L 261.337749 145.185261 
L 266.073873 171.184513 
L 275.546121 223.242194 
L 277.745036 234.302167 
L 279.436509 241.822683 
L 280.958835 247.647864 
L 282.312013 251.978833 
L 283.496044 255.051868 
L 284.510928 257.139225 
L 285.525812 258.73419 
L 286.540695 259.887965 
L 287.555579 260.693201 
L 288.570463 261.206821 
L 289.585347 261.479371 
L 290.769378 261.5531 
L 292.122556 261.390854 
L 293.644882 260.972841 
L 295.674649 260.15156 
L 298.7193 258.631927 
L 305.992634 254.920476 
L 309.544727 253.405983 
L 312.927673 252.203032 
L 316.479766 251.178492 
L 320.201006 250.335954 
L 324.429689 249.61368 
L 329.165813 248.830497 
L 330.180697 248.370911 
L 331.19558 247.652524 
L 332.210464 246.62092 
L 333.225348 245.228785 
L 334.240232 243.437694 
L 335.424263 240.809543 
L 336.608294 237.573613 
L 337.792325 233.683536 
L 339.145503 228.487862 
L 340.836976 221.105266 
L 343.035891 210.464728 
L 346.080542 194.51184 
L 351.662403 163.756915 
L 359.95062 118.355423 
L 362.318682 106.449155 
L 364.179302 98.246386 
L 365.701628 92.503414 
L 367.054806 88.22815 
L 368.238837 85.182596 
L 369.253721 83.118639 
L 370.268605 81.543889 
L 371.283488 80.385062 
L 372.298372 79.576924 
L 373.313256 79.060074 
L 374.32814 78.780947 
L 375.512171 78.693556 
L 376.865349 78.842447 
L 378.387675 79.248566 
L 380.417442 80.050633 
L 383.292946 81.456549 
L 390.904574 85.283049 
L 394.456667 86.766431 
L 397.839613 87.945667 
L 401.391706 88.947051 
L 405.282094 89.804753 
L 409.510776 90.501386 
L 413.401164 91.137422 
L 414.585195 91.633869 
L 415.600079 92.320631 
L 416.614963 93.318564 
L 417.629846 94.683575 
L 418.64473 96.439901 
L 419.659614 98.611361 
L 420.843645 101.707549 
L 422.027676 105.458062 
L 423.380854 110.510745 
L 425.072327 117.742154 
L 427.271242 128.249932 
L 430.146746 143.173532 
L 434.88287 169.114364 
L 445.370002 226.764183 
L 447.39977 236.680908 
L 449.091243 243.865596 
L 450.613568 249.330736 
L 451.797599 252.8511 
L 452.98163 255.691578 
L 453.996514 257.580093 
L 455.011398 259.002255 
L 456.026281 260.025969 
L 457.041165 260.728489 
L 458.056049 261.160671 
L 459.070933 261.370201 
L 460.254964 261.388707 
L 461.608142 261.17914 
L 463.299615 260.662012 
L 465.49853 259.719447 
L 469.050623 257.910476 
L 474.632484 255.092567 
L 478.184577 253.556894 
L 481.567523 252.330035 
L 485.119616 251.281689 
L 488.840856 250.416579 
L 492.900391 249.699012 
L 498.482252 248.759146 
L 499.497135 248.255323 
L 500.512019 247.478829 
L 501.526903 246.381412 
L 502.541787 244.919897 
L 503.55667 243.053972 
L 504.740701 240.341625 
L 505.924732 237.013838 
L 507.108764 233.020831 
L 508.631089 227.014335 
L 510.491709 218.644889 
L 512.859771 206.90317 
L 516.242717 188.923222 
L 523.854345 146.831668 
L 529.943648 113.804876 
L 531.973415 103.930405 
L 533.664888 96.717171 
L 535.187214 91.180199 
L 536.540392 87.130265 
L 537.724423 84.289681 
L 538.739307 82.367725 
L 539.754191 80.892233 
L 540.769075 79.821034 
L 541.783958 79.095056 
L 542.798842 78.646123 
L 543.813726 78.425907 
L 544.997757 78.402977 
L 546.350935 78.614865 
L 548.042408 79.135889 
L 550.072176 80.010724 
L 553.455121 81.75195 
L 559.544424 84.886232 
L 563.096517 86.442055 
L 566.479463 87.680882 
L 570.031556 88.740743 
L 573.752796 89.612917 
L 577.812331 90.336943 
L 582.88675 91.209534 
L 583.901634 91.706858 
L 584.916518 92.464646 
L 585.931401 93.540348 
L 586.946285 94.974741 
L 587.961169 96.802077 
L 588.976053 99.060293 
L 590.160084 102.2849 
L 591.344115 106.176142 
L 592.86644 112.068062 
L 594.727061 120.323951 
L 597.095123 131.978696 
L 600.478068 149.899289 
L 606.905666 185.43907 
L 613.840704 223.291767 
L 616.208767 235.085214 
L 617.900239 242.495459 
L 619.422565 248.200557 
L 620.775743 252.406589 
L 621.959774 255.377184 
L 622.636364 256.767747 
L 622.636364 256.767747 
" clip-path="url(#p99bbd6ee1d)" style="fill: none; stroke: #ff0000; stroke-width: 1.5; stroke-linecap: square"/>
   </g>
   <g id="patch_3">
    <path d="M 90 270.72 
L 90 69.12 
" style="fill: none; stroke: #000000; stroke-width: 0.8; stroke-linejoin: miter; stroke-linecap: square"/>
   </g>
   <g id="patch_4">
    <path d="M 648 270.72 
L 648 69.12 
" style="fill: none; stroke: #000000; stroke-width: 0.8; stroke-linejoin: miter; stroke-linecap: square"/>
   </g>
   <g id="patch_5">
    <path d="M 90 270.72 
L 648 270.72 
" style="fill: none; stroke: #000000; stroke-width: 0.8; stroke-linejoin: miter; stroke-linecap: square"/>
   </g>
   <g id="patch_6">
    <path d="M 90 69.12 
L 648 69.12 
" style="fill: none; stroke: #000000; stroke-width: 0.8; stroke-linejoin: miter; stroke-linecap: square"/>
   </g>
   <g id="text_14">
    <!-- Position Tracking -->
    <g transform="translate(318.76125 63.12) scale(0.12 -0.12)">
     <defs>
      <path id="DejaVuSans-54" d="M -19 4666 
L 3928 4666 
L 3928 4134 
L 2272 4134 
L 2272 0 
L 1638 0 
L 1638 4134 
L -19 4134 
L -19 4666 
z
" transform="scale(0.015625)"/>
      <path id="DejaVuSans-72" d="M 2631 2963 
Q 2534 3019 2420 3045 
Q 2306 3072 2169 3072 
Q 1681 3072 1420 2755 
Q 1159 2438 1159 1844 
L 1159 0 
L 581 0 
L 581 3500 
L 1159 3500 
L 1159 2956 
Q 1341 3275 1631 3429 
Q 1922 3584 2338 3584 
Q 2397 3584 2469 3576 
Q 2541 3569 2628 3553 
L 2631 2963 
z
" transform="scale(0.015625)"/>
      <path id="DejaVuSans-61" d="M 2194 1759 
Q 1497 1759 1228 1600 
Q 959 1441 959 1056 
Q 959 750 1161 570 
Q 1363 391 1709 391 
Q 2188 391 2477 730 
Q 2766 1069 2766 1631 
L 2766 1759 
L 2194 1759 
z
M 3341 1997 
L 3341 0 
L 2766 0 
L 2766 531 
Q 2569 213 2275 61 
Q 1981 -91 1556 -91 
Q 1019 -91 701 211 
Q 384 513 384 1019 
Q 384 1609 779 1909 
Q 1175 2209 1959 2209 
L 2766 2209 
L 2766 2266 
Q 2766 2663 2505 2880 
Q 2244 3097 1772 3097 
Q 1472 3097 1187 3025 
Q 903 2953 641 2809 
L 641 3341 
Q 956 3463 1253 3523 
Q 1550 3584 1831 3584 
Q 2591 3584 2966 3190 
Q 3341 2797 3341 1997 
z
" transform="scale(0.015625)"/>
      <path id="DejaVuSans-63" d="M 3122 3366 
L 3122 2828 
Q 2878 2963 2633 3030 
Q 2388 3097 2138 3097 
Q 1578 3097 1268 2742 
Q 959 2388 959 1747 
Q 959 1106 1268 751 
Q 1578 397 2138 397 
Q 2388 397 2633 464 
Q 2878 531 3122 666 
L 3122 134 
Q 2881 22 2623 -34 
Q 2366 -91 2075 -91 
Q 1284 -91 818 406 
Q 353 903 353 1747 
Q 353 2603 823 3093 
Q 1294 3584 2113 3584 
Q 2378 3584 2631 3529 
Q 2884 3475 3122 3366 
z
" transform="scale(0.015625)"/>
      <path id="DejaVuSans-6b" d="M 581 4863 
L 1159 4863 
L 1159 1991 
L 2875 3500 
L 3609 3500 
L 1753 1863 
L 3688 0 
L 2938 0 
L 1159 1709 
L 1159 0 
L 581 0 
L 581 4863 
z
" transform="scale(0.015625)"/>
      <path id="DejaVuSans-67" d="M 2906 1791 
Q 2906 2416 2648 2759 
Q 2391 3103 1925 3103 
Q 1463 3103 1205 2759 
Q 947 2416 947 1791 
Q 947 1169 1205 825 
Q 1463 481 1925 481 
Q 2391 481 2648 825 
Q 2906 1169 2906 1791 
z
M 3481 434 
Q 3481 -459 3084 -895 
Q 2688 -1331 1869 -1331 
Q 1566 -1331 1297 -1286 
Q 1028 -1241 775 -1147 
L 775 -588 
Q 1028 -725 1275 -790 
Q 1522 -856 1778 -856 
Q 2344 -856 2625 -561 
Q 2906 -266 2906 331 
L 2906 616 
Q 2728 306 2450 153 
Q 2172 0 1784 0 
Q 1141 0 747 490 
Q 353 981 353 1791 
Q 353 2603 747 3093 
Q 1141 3584 1784 3584 
Q 2172 3584 2450 3431 
Q 2728 3278 2906 2969 
L 2906 3500 
L 3481 3500 
L 3481 434 
z
" transform="scale(0.015625)"/>
     </defs>
     <use xlink:href="#DejaVuSans-50"/>
     <use xlink:href="#DejaVuSans-6f" transform="translate(56.677734 0)"/>
     <use xlink:href="#DejaVuSans-73" transform="translate(117.859375 0)"/>
     <use xlink:href="#DejaVuSans-69" transform="translate(169.958984 0)"/>
     <use xlink:href="#DejaVuSans-74" transform="translate(197.742188 0)"/>
     <use xlink:href="#DejaVuSans-69" transform="translate(236.951172 0)"/>
     <use xlink:href="#DejaVuSans-6f" transform="translate(264.734375 0)"/>
     <use xlink:href="#DejaVuSans-6e" transform="translate(325.916016 0)"/>
     <use xlink:href="#DejaVuSans-20" transform="translate(389.294922 0)"/>
     <use xlink:href="#DejaVuSans-54" transform="translate(421.082031 0)"/>
     <use xlink:href="#DejaVuSans-72" transform="translate(467.416016 0)"/>
     <use xlink:href="#DejaVuSans-61" transform="translate(508.529297 0)"/>
     <use xlink:href="#DejaVuSans-63" transform="translate(569.808594 0)"/>
     <use xlink:href="#DejaVuSans-6b" transform="translate(624.789062 0)"/>
     <use xlink:href="#DejaVuSans-69" transform="translate(682.699219 0)"/>
     <use xlink:href="#DejaVuSans-6e" transform="translate(710.482422 0)"/>
     <use xlink:href="#DejaVuSans-67" transform="translate(773.861328 0)"/>
    </g>
   </g>
   <g id="legend_1">
    <g id="patch_7">
     <path d="M 463.928125 193.437187 
L 641 193.437187 
Q 643 193.437187 643 191.437187 
L 643 148.402812 
Q 643 146.402812 641 146.402812 
L 463.928125 146.402812 
Q 461.928125 146.402812 461.928125 148.402812 
L 461.928125 191.437187 
Q 461.928125 193.437187 463.928125 193.437187 
z
" style="fill: #ffffff; opacity: 0.8; stroke: #cccccc; stroke-linejoin: miter"/>
    </g>
    <g id="line2d_28">
     <path d="M 465.928125 154.50125 
L 475.928125 154.50125 
L 485.928125 154.50125 
" style="fill: none; stroke-dasharray: 5.55,2.4; stroke-dashoffset: 0; stroke: #000000; stroke-width: 1.5"/>
    </g>
    <g id="text_15">
     <!-- Reference Position -->
     <g transform="translate(493.928125 158.00125) scale(0.1 -0.1)">
      <defs>
       <path id="DejaVuSans-52" d="M 2841 2188 
Q 3044 2119 3236 1894 
Q 3428 1669 3622 1275 
L 4263 0 
L 3584 0 
L 2988 1197 
Q 2756 1666 2539 1819 
Q 2322 1972 1947 1972 
L 1259 1972 
L 1259 0 
L 628 0 
L 628 4666 
L 2053 4666 
Q 2853 4666 3247 4331 
Q 3641 3997 3641 3322 
Q 3641 2881 3436 2590 
Q 3231 2300 2841 2188 
z
M 1259 4147 
L 1259 2491 
L 2053 2491 
Q 2509 2491 2742 2702 
Q 2975 2913 2975 3322 
Q 2975 3731 2742 3939 
Q 2509 4147 2053 4147 
L 1259 4147 
z
" transform="scale(0.015625)"/>
       <path id="DejaVuSans-65" d="M 3597 1894 
L 3597 1613 
L 953 1613 
Q 991 1019 1311 708 
Q 1631 397 2203 397 
Q 2534 397 2845 478 
Q 3156 559 3463 722 
L 3463 178 
Q 3153 47 2828 -22 
Q 2503 -91 2169 -91 
Q 1331 -91 842 396 
Q 353 884 353 1716 
Q 353 2575 817 3079 
Q 1281 3584 2069 3584 
Q 2775 3584 3186 3129 
Q 3597 2675 3597 1894 
z
M 3022 2063 
Q 3016 2534 2758 2815 
Q 2500 3097 2075 3097 
Q 1594 3097 1305 2825 
Q 1016 2553 972 2059 
L 3022 2063 
z
" transform="scale(0.015625)"/>
       <path id="DejaVuSans-66" d="M 2375 4863 
L 2375 4384 
L 1825 4384 
Q 1516 4384 1395 4259 
Q 1275 4134 1275 3809 
L 1275 3500 
L 2222 3500 
L 2222 3053 
L 1275 3053 
L 1275 0 
L 697 0 
L 697 3053 
L 147 3053 
L 147 3500 
L 697 3500 
L 697 3744 
Q 697 4328 969 4595 
Q 1241 4863 1831 4863 
L 2375 4863 
z
" transform="scale(0.015625)"/>
      </defs>
      <use xlink:href="#DejaVuSans-52"/>
      <use xlink:href="#DejaVuSans-65" transform="translate(64.982422 0)"/>
      <use xlink:href="#DejaVuSans-66" transform="translate(126.505859 0)"/>
      <use xlink:href="#DejaVuSans-65" transform="translate(161.710938 0)"/>
      <use xlink:href="#DejaVuSans-72" transform="translate(223.234375 0)"/>
      <use xlink:href="#DejaVuSans-65" transform="translate(262.097656 0)"/>
      <use xlink:href="#DejaVuSans-6e" transform="translate(323.621094 0)"/>
      <use xlink:href="#DejaVuSans-63" transform="translate(387 0)"/>
      <use xlink:href="#DejaVuSans-65" transform="translate(441.980469 0)"/>
      <use xlink:href="#DejaVuSans-20" transform="translate(503.503906 0)"/>
      <use xlink:href="#DejaVuSans-50" transform="translate(535.291016 0)"/>
      <use xlink:href="#DejaVuSans-6f" transform="translate(591.96875 0)"/>
      <use xlink:href="#DejaVuSans-73" transform="translate(653.150391 0)"/>
      <use xlink:href="#DejaVuSans-69" transform="translate(705.25 0)"/>
      <use xlink:href="#DejaVuSans-74" transform="translate(733.033203 0)"/>
      <use xlink:href="#DejaVuSans-69" transform="translate(772.242188 0)"/>
      <use xlink:href="#DejaVuSans-6f" transform="translate(800.025391 0)"/>
      <use xlink:href="#DejaVuSans-6e" transform="translate(861.207031 0)"/>
     </g>
    </g>
    <g id="line2d_29">
     <path d="M 465.928125 169.179375 
L 475.928125 169.179375 
L 485.928125 169.179375 
" style="fill: none; stroke: #0000ff; stroke-width: 1.5; stroke-linecap: square"/>
    </g>
    <g id="text_16">
     <!-- Position with Feedforward -->
     <g transform="translate(493.928125 172.679375) scale(0.1 -0.1)">
      <defs>
       <path id="DejaVuSans-77" d="M 269 3500 
L 844 3500 
L 1563 769 
L 2278 3500 
L 2956 3500 
L 3675 769 
L 4391 3500 
L 4966 3500 
L 4050 0 
L 3372 0 
L 2619 2869 
L 1863 0 
L 1184 0 
L 269 3500 
z
" transform="scale(0.015625)"/>
       <path id="DejaVuSans-68" d="M 3513 2113 
L 3513 0 
L 2938 0 
L 2938 2094 
Q 2938 2591 2744 2837 
Q 2550 3084 2163 3084 
Q 1697 3084 1428 2787 
Q 1159 2491 1159 1978 
L 1159 0 
L 581 0 
L 581 4863 
L 1159 4863 
L 1159 2956 
Q 1366 3272 1645 3428 
Q 1925 3584 2291 3584 
Q 2894 3584 3203 3211 
Q 3513 2838 3513 2113 
z
" transform="scale(0.015625)"/>
       <path id="DejaVuSans-46" d="M 628 4666 
L 3309 4666 
L 3309 4134 
L 1259 4134 
L 1259 2759 
L 3109 2759 
L 3109 2228 
L 1259 2228 
L 1259 0 
L 628 0 
L 628 4666 
z
" transform="scale(0.015625)"/>
       <path id="DejaVuSans-64" d="M 2906 2969 
L 2906 4863 
L 3481 4863 
L 3481 0 
L 2906 0 
L 2906 525 
Q 2725 213 2448 61 
Q 2172 -91 1784 -91 
Q 1150 -91 751 415 
Q 353 922 353 1747 
Q 353 2572 751 3078 
Q 1150 3584 1784 3584 
Q 2172 3584 2448 3432 
Q 2725 3281 2906 2969 
z
M 947 1747 
Q 947 1113 1208 752 
Q 1469 391 1925 391 
Q 2381 391 2643 752 
Q 2906 1113 2906 1747 
Q 2906 2381 2643 2742 
Q 2381 3103 1925 3103 
Q 1469 3103 1208 2742 
Q 947 2381 947 1747 
z
" transform="scale(0.015625)"/>
      </defs>
      <use xlink:href="#DejaVuSans-50"/>
      <use xlink:href="#DejaVuSans-6f" transform="translate(56.677734 0)"/>
      <use xlink:href="#DejaVuSans-73" transform="translate(117.859375 0)"/>
      <use xlink:href="#DejaVuSans-69" transform="translate(169.958984 0)"/>
      <use xlink:href="#DejaVuSans-74" transform="translate(197.742188 0)"/>
      <use xlink:href="#DejaVuSans-69" transform="translate(236.951172 0)"/>
      <use xlink:href="#DejaVuSans-6f" transform="translate(264.734375 0)"/>
      <use xlink:href="#DejaVuSans-6e" transform="translate(325.916016 0)"/>
      <use xlink:href="#DejaVuSans-20" transform="translate(389.294922 0)"/>
      <use xlink:href="#DejaVuSans-77" transform="translate(421.082031 0)"/>
      <use xlink:href="#DejaVuSans-69" transform="translate(502.869141 0)"/>
      <use xlink:href="#DejaVuSans-74" transform="translate(530.652344 0)"/>
      <use xlink:href="#DejaVuSans-68" transform="translate(569.861328 0)"/>
      <use xlink:href="#DejaVuSans-20" transform="translate(633.240234 0)"/>
      <use xlink:href="#DejaVuSans-46" transform="translate(665.027344 0)"/>
      <use xlink:href="#DejaVuSans-65" transform="translate(717.046875 0)"/>
      <use xlink:href="#DejaVuSans-65" transform="translate(778.570312 0)"/>
      <use xlink:href="#DejaVuSans-64" transform="translate(840.09375 0)"/>
      <use xlink:href="#DejaVuSans-66" transform="translate(903.570312 0)"/>
      <use xlink:href="#DejaVuSans-6f" transform="translate(938.775391 0)"/>
      <use xlink:href="#DejaVuSans-72" transform="translate(999.957031 0)"/>
      <use xlink:href="#DejaVuSans-77" transform="translate(1041.070312 0)"/>
      <use xlink:href="#DejaVuSans-61" transform="translate(1122.857422 0)"/>
      <use xlink:href="#DejaVuSans-72" transform="translate(1184.136719 0)"/>
      <use xlink:href="#DejaVuSans-64" transform="translate(1223.5 0)"/>
     </g>
    </g>
    <g id="line2d_30">
     <path d="M 465.928125 183.8575 
L 475.928125 183.8575 
L 485.928125 183.8575 
" style="fill: none; stroke: #ff0000; stroke-width: 1.5; stroke-linecap: square"/>
    </g>
    <g id="text_17">
     <!-- Position without Feedforward -->
     <g transform="translate(493.928125 187.3575) scale(0.1 -0.1)">
      <defs>
       <path id="DejaVuSans-75" d="M 544 1381 
L 544 3500 
L 1119 3500 
L 1119 1403 
Q 1119 906 1312 657 
Q 1506 409 1894 409 
Q 2359 409 2629 706 
Q 2900 1003 2900 1516 
L 2900 3500 
L 3475 3500 
L 3475 0 
L 2900 0 
L 2900 538 
Q 2691 219 2414 64 
Q 2138 -91 1772 -91 
Q 1169 -91 856 284 
Q 544 659 544 1381 
z
M 1991 3584 
L 1991 3584 
z
" transform="scale(0.015625)"/>
      </defs>
      <use xlink:href="#DejaVuSans-50"/>
      <use xlink:href="#DejaVuSans-6f" transform="translate(56.677734 0)"/>
      <use xlink:href="#DejaVuSans-73" transform="translate(117.859375 0)"/>
      <use xlink:href="#DejaVuSans-69" transform="translate(169.958984 0)"/>
      <use xlink:href="#DejaVuSans-74" transform="translate(197.742188 0)"/>
      <use xlink:href="#DejaVuSans-69" transform="translate(236.951172 0)"/>
      <use xlink:href="#DejaVuSans-6f" transform="translate(264.734375 0)"/>
      <use xlink:href="#DejaVuSans-6e" transform="translate(325.916016 0)"/>
      <use xlink:href="#DejaVuSans-20" transform="translate(389.294922 0)"/>
      <use xlink:href="#DejaVuSans-77" transform="translate(421.082031 0)"/>
      <use xlink:href="#DejaVuSans-69" transform="translate(502.869141 0)"/>
      <use xlink:href="#DejaVuSans-74" transform="translate(530.652344 0)"/>
      <use xlink:href="#DejaVuSans-68" transform="translate(569.861328 0)"/>
      <use xlink:href="#DejaVuSans-6f" transform="translate(633.240234 0)"/>
      <use xlink:href="#DejaVuSans-75" transform="translate(694.421875 0)"/>
      <use xlink:href="#DejaVuSans-74" transform="translate(757.800781 0)"/>
      <use xlink:href="#DejaVuSans-20" transform="translate(797.009766 0)"/>
      <use xlink:href="#DejaVuSans-46" transform="translate(828.796875 0)"/>
      <use xlink:href="#DejaVuSans-65" transform="translate(880.816406 0)"/>
      <use xlink:href="#DejaVuSans-65" transform="translate(942.339844 0)"/>
      <use xlink:href="#DejaVuSans-64" transform="translate(1003.863281 0)"/>
      <use xlink:href="#DejaVuSans-66" transform="translate(1067.339844 0)"/>
      <use xlink:href="#DejaVuSans-6f" transform="translate(1102.544922 0)"/>
      <use xlink:href="#DejaVuSans-72" transform="translate(1163.726562 0)"/>
      <use xlink:href="#DejaVuSans-77" transform="translate(1204.839844 0)"/>
      <use xlink:href="#DejaVuSans-61" transform="translate(1286.626953 0)"/>
      <use xlink:href="#DejaVuSans-72" transform="translate(1347.90625 0)"/>
      <use xlink:href="#DejaVuSans-64" transform="translate(1387.269531 0)"/>
     </g>
    </g>
   </g>
  </g>
  <g id="axes_2">
   <g id="patch_8">
    <path d="M 90 512.64 
L 648 512.64 
L 648 311.04 
L 90 311.04 
z
" style="fill: #ffffff"/>
   </g>
   <g id="matplotlib.axis_3">
    <g id="xtick_7">
     <g id="line2d_31">
      <path d="M 115.363636 512.64 
L 115.363636 311.04 
" clip-path="url(#p69475f202a)" style="fill: none; stroke: #b0b0b0; stroke-width: 0.8; stroke-linecap: square"/>
     </g>
     <g id="line2d_32">
      <g>
       <use xlink:href="#mdc3d7ed8ad" x="115.363636" y="512.64" style="stroke: #000000; stroke-width: 0.8"/>
      </g>
     </g>
     <g id="text_18">
      <!-- 0.0 -->
      <g transform="translate(107.412074 527.238438) scale(0.1 -0.1)">
       <use xlink:href="#DejaVuSans-30"/>
       <use xlink:href="#DejaVuSans-2e" transform="translate(63.623047 0)"/>
       <use xlink:href="#DejaVuSans-30" transform="translate(95.410156 0)"/>
      </g>
     </g>
    </g>
    <g id="xtick_8">
     <g id="line2d_33">
      <path d="M 221.045455 512.64 
L 221.045455 311.04 
" clip-path="url(#p69475f202a)" style="fill: none; stroke: #b0b0b0; stroke-width: 0.8; stroke-linecap: square"/>
     </g>
     <g id="line2d_34">
      <g>
       <use xlink:href="#mdc3d7ed8ad" x="221.045455" y="512.64" style="stroke: #000000; stroke-width: 0.8"/>
      </g>
     </g>
     <g id="text_19">
      <!-- 0.5 -->
      <g transform="translate(213.093892 527.238438) scale(0.1 -0.1)">
       <use xlink:href="#DejaVuSans-30"/>
       <use xlink:href="#DejaVuSans-2e" transform="translate(63.623047 0)"/>
       <use xlink:href="#DejaVuSans-35" transform="translate(95.410156 0)"/>
      </g>
     </g>
    </g>
    <g id="xtick_9">
     <g id="line2d_35">
      <path d="M 326.727273 512.64 
L 326.727273 311.04 
" clip-path="url(#p69475f202a)" style="fill: none; stroke: #b0b0b0; stroke-width: 0.8; stroke-linecap: square"/>
     </g>
     <g id="line2d_36">
      <g>
       <use xlink:href="#mdc3d7ed8ad" x="326.727273" y="512.64" style="stroke: #000000; stroke-width: 0.8"/>
      </g>
     </g>
     <g id="text_20">
      <!-- 1.0 -->
      <g transform="translate(318.77571 527.238438) scale(0.1 -0.1)">
       <use xlink:href="#DejaVuSans-31"/>
       <use xlink:href="#DejaVuSans-2e" transform="translate(63.623047 0)"/>
       <use xlink:href="#DejaVuSans-30" transform="translate(95.410156 0)"/>
      </g>
     </g>
    </g>
    <g id="xtick_10">
     <g id="line2d_37">
      <path d="M 432.409091 512.64 
L 432.409091 311.04 
" clip-path="url(#p69475f202a)" style="fill: none; stroke: #b0b0b0; stroke-width: 0.8; stroke-linecap: square"/>
     </g>
     <g id="line2d_38">
      <g>
       <use xlink:href="#mdc3d7ed8ad" x="432.409091" y="512.64" style="stroke: #000000; stroke-width: 0.8"/>
      </g>
     </g>
     <g id="text_21">
      <!-- 1.5 -->
      <g transform="translate(424.457528 527.238438) scale(0.1 -0.1)">
       <use xlink:href="#DejaVuSans-31"/>
       <use xlink:href="#DejaVuSans-2e" transform="translate(63.623047 0)"/>
       <use xlink:href="#DejaVuSans-35" transform="translate(95.410156 0)"/>
      </g>
     </g>
    </g>
    <g id="xtick_11">
     <g id="line2d_39">
      <path d="M 538.090909 512.64 
L 538.090909 311.04 
" clip-path="url(#p69475f202a)" style="fill: none; stroke: #b0b0b0; stroke-width: 0.8; stroke-linecap: square"/>
     </g>
     <g id="line2d_40">
      <g>
       <use xlink:href="#mdc3d7ed8ad" x="538.090909" y="512.64" style="stroke: #000000; stroke-width: 0.8"/>
      </g>
     </g>
     <g id="text_22">
      <!-- 2.0 -->
      <g transform="translate(530.139347 527.238438) scale(0.1 -0.1)">
       <use xlink:href="#DejaVuSans-32"/>
       <use xlink:href="#DejaVuSans-2e" transform="translate(63.623047 0)"/>
       <use xlink:href="#DejaVuSans-30" transform="translate(95.410156 0)"/>
      </g>
     </g>
    </g>
    <g id="xtick_12">
     <g id="line2d_41">
      <path d="M 643.772727 512.64 
L 643.772727 311.04 
" clip-path="url(#p69475f202a)" style="fill: none; stroke: #b0b0b0; stroke-width: 0.8; stroke-linecap: square"/>
     </g>
     <g id="line2d_42">
      <g>
       <use xlink:href="#mdc3d7ed8ad" x="643.772727" y="512.64" style="stroke: #000000; stroke-width: 0.8"/>
      </g>
     </g>
     <g id="text_23">
      <!-- 2.5 -->
      <g transform="translate(635.821165 527.238438) scale(0.1 -0.1)">
       <use xlink:href="#DejaVuSans-32"/>
       <use xlink:href="#DejaVuSans-2e" transform="translate(63.623047 0)"/>
       <use xlink:href="#DejaVuSans-35" transform="translate(95.410156 0)"/>
      </g>
     </g>
    </g>
    <g id="text_24">
     <!-- Time (s) -->
     <g transform="translate(348.671094 540.916563) scale(0.1 -0.1)">
      <use xlink:href="#DejaVuSans-54"/>
      <use xlink:href="#DejaVuSans-69" transform="translate(57.958984 0)"/>
      <use xlink:href="#DejaVuSans-6d" transform="translate(85.742188 0)"/>
      <use xlink:href="#DejaVuSans-65" transform="translate(183.154297 0)"/>
      <use xlink:href="#DejaVuSans-20" transform="translate(244.677734 0)"/>
      <use xlink:href="#DejaVuSans-28" transform="translate(276.464844 0)"/>
      <use xlink:href="#DejaVuSans-73" transform="translate(315.478516 0)"/>
      <use xlink:href="#DejaVuSans-29" transform="translate(367.578125 0)"/>
     </g>
    </g>
   </g>
   <g id="matplotlib.axis_4">
    <g id="ytick_7">
     <g id="line2d_43">
      <path d="M 90 508.907423 
L 648 508.907423 
" clip-path="url(#p69475f202a)" style="fill: none; stroke: #b0b0b0; stroke-width: 0.8; stroke-linecap: square"/>
     </g>
     <g id="line2d_44">
      <g>
       <use xlink:href="#m9bfb75db3d" x="90" y="508.907423" style="stroke: #000000; stroke-width: 0.8"/>
      </g>
     </g>
     <g id="text_25">
      <!-- 8 -->
      <g transform="translate(68.257812 512.706642) scale(0.1 -0.1)">
       <defs>
        <path id="DejaVuSans-2212" d="M 678 2272 
L 4684 2272 
L 4684 1741 
L 678 1741 
L 678 2272 
z
" transform="scale(0.015625)"/>
       </defs>
       <use xlink:href="#DejaVuSans-2212"/>
       <use xlink:href="#DejaVuSans-38" transform="translate(83.789062 0)"/>
      </g>
     </g>
    </g>
    <g id="ytick_8">
     <g id="line2d_45">
      <path d="M 90 484.627417 
L 648 484.627417 
" clip-path="url(#p69475f202a)" style="fill: none; stroke: #b0b0b0; stroke-width: 0.8; stroke-linecap: square"/>
     </g>
     <g id="line2d_46">
      <g>
       <use xlink:href="#m9bfb75db3d" x="90" y="484.627417" style="stroke: #000000; stroke-width: 0.8"/>
      </g>
     </g>
     <g id="text_26">
      <!-- 6 -->
      <g transform="translate(68.257812 488.426636) scale(0.1 -0.1)">
       <use xlink:href="#DejaVuSans-2212"/>
       <use xlink:href="#DejaVuSans-36" transform="translate(83.789062 0)"/>
      </g>
     </g>
    </g>
    <g id="ytick_9">
     <g id="line2d_47">
      <path d="M 90 460.347411 
L 648 460.347411 
" clip-path="url(#p69475f202a)" style="fill: none; stroke: #b0b0b0; stroke-width: 0.8; stroke-linecap: square"/>
     </g>
     <g id="line2d_48">
      <g>
       <use xlink:href="#m9bfb75db3d" x="90" y="460.347411" style="stroke: #000000; stroke-width: 0.8"/>
      </g>
     </g>
     <g id="text_27">
      <!-- 4 -->
      <g transform="translate(68.257812 464.14663) scale(0.1 -0.1)">
       <use xlink:href="#DejaVuSans-2212"/>
       <use xlink:href="#DejaVuSans-34" transform="translate(83.789062 0)"/>
      </g>
     </g>
    </g>
    <g id="ytick_10">
     <g id="line2d_49">
      <path d="M 90 436.067405 
L 648 436.067405 
" clip-path="url(#p69475f202a)" style="fill: none; stroke: #b0b0b0; stroke-width: 0.8; stroke-linecap: square"/>
     </g>
     <g id="line2d_50">
      <g>
       <use xlink:href="#m9bfb75db3d" x="90" y="436.067405" style="stroke: #000000; stroke-width: 0.8"/>
      </g>
     </g>
     <g id="text_28">
      <!-- 2 -->
      <g transform="translate(68.257812 439.866624) scale(0.1 -0.1)">
       <use xlink:href="#DejaVuSans-2212"/>
       <use xlink:href="#DejaVuSans-32" transform="translate(83.789062 0)"/>
      </g>
     </g>
    </g>
    <g id="ytick_11">
     <g id="line2d_51">
      <path d="M 90 411.787399 
L 648 411.787399 
" clip-path="url(#p69475f202a)" style="fill: none; stroke: #b0b0b0; stroke-width: 0.8; stroke-linecap: square"/>
     </g>
     <g id="line2d_52">
      <g>
       <use xlink:href="#m9bfb75db3d" x="90" y="411.787399" style="stroke: #000000; stroke-width: 0.8"/>
      </g>
     </g>
     <g id="text_29">
      <!-- 0 -->
      <g transform="translate(76.6375 415.586618) scale(0.1 -0.1)">
       <use xlink:href="#DejaVuSans-30"/>
      </g>
     </g>
    </g>
    <g id="ytick_12">
     <g id="line2d_53">
      <path d="M 90 387.507393 
L 648 387.507393 
" clip-path="url(#p69475f202a)" style="fill: none; stroke: #b0b0b0; stroke-width: 0.8; stroke-linecap: square"/>
     </g>
     <g id="line2d_54">
      <g>
       <use xlink:href="#m9bfb75db3d" x="90" y="387.507393" style="stroke: #000000; stroke-width: 0.8"/>
      </g>
     </g>
     <g id="text_30">
      <!-- 2 -->
      <g transform="translate(76.6375 391.306612) scale(0.1 -0.1)">
       <use xlink:href="#DejaVuSans-32"/>
      </g>
     </g>
    </g>
    <g id="ytick_13">
     <g id="line2d_55">
      <path d="M 90 363.227387 
L 648 363.227387 
" clip-path="url(#p69475f202a)" style="fill: none; stroke: #b0b0b0; stroke-width: 0.8; stroke-linecap: square"/>
     </g>
     <g id="line2d_56">
      <g>
       <use xlink:href="#m9bfb75db3d" x="90" y="363.227387" style="stroke: #000000; stroke-width: 0.8"/>
      </g>
     </g>
     <g id="text_31">
      <!-- 4 -->
      <g transform="translate(76.6375 367.026606) scale(0.1 -0.1)">
       <use xlink:href="#DejaVuSans-34"/>
      </g>
     </g>
    </g>
    <g id="ytick_14">
     <g id="line2d_57">
      <path d="M 90 338.947381 
L 648 338.947381 
" clip-path="url(#p69475f202a)" style="fill: none; stroke: #b0b0b0; stroke-width: 0.8; stroke-linecap: square"/>
     </g>
     <g id="line2d_58">
      <g>
       <use xlink:href="#m9bfb75db3d" x="90" y="338.947381" style="stroke: #000000; stroke-width: 0.8"/>
      </g>
     </g>
     <g id="text_32">
      <!-- 6 -->
      <g transform="translate(76.6375 342.7466) scale(0.1 -0.1)">
       <use xlink:href="#DejaVuSans-36"/>
      </g>
     </g>
    </g>
    <g id="ytick_15">
     <g id="line2d_59">
      <path d="M 90 314.667375 
L 648 314.667375 
" clip-path="url(#p69475f202a)" style="fill: none; stroke: #b0b0b0; stroke-width: 0.8; stroke-linecap: square"/>
     </g>
     <g id="line2d_60">
      <g>
       <use xlink:href="#m9bfb75db3d" x="90" y="314.667375" style="stroke: #000000; stroke-width: 0.8"/>
      </g>
     </g>
     <g id="text_33">
      <!-- 8 -->
      <g transform="translate(76.6375 318.466594) scale(0.1 -0.1)">
       <use xlink:href="#DejaVuSans-38"/>
      </g>
     </g>
    </g>
    <g id="text_34">
     <!-- Velocity (m/s) -->
     <g transform="translate(62.178125 446.105625) rotate(-90) scale(0.1 -0.1)">
      <defs>
       <path id="DejaVuSans-56" d="M 1831 0 
L 50 4666 
L 709 4666 
L 2188 738 
L 3669 4666 
L 4325 4666 
L 2547 0 
L 1831 0 
z
" transform="scale(0.015625)"/>
       <path id="DejaVuSans-6c" d="M 603 4863 
L 1178 4863 
L 1178 0 
L 603 0 
L 603 4863 
z
" transform="scale(0.015625)"/>
       <path id="DejaVuSans-79" d="M 2059 -325 
Q 1816 -950 1584 -1140 
Q 1353 -1331 966 -1331 
L 506 -1331 
L 506 -850 
L 844 -850 
Q 1081 -850 1212 -737 
Q 1344 -625 1503 -206 
L 1606 56 
L 191 3500 
L 800 3500 
L 1894 763 
L 2988 3500 
L 3597 3500 
L 2059 -325 
z
" transform="scale(0.015625)"/>
       <path id="DejaVuSans-2f" d="M 1625 4666 
L 2156 4666 
L 531 -594 
L 0 -594 
L 1625 4666 
z
" transform="scale(0.015625)"/>
      </defs>
      <use xlink:href="#DejaVuSans-56"/>
      <use xlink:href="#DejaVuSans-65" transform="translate(60.658203 0)"/>
      <use xlink:href="#DejaVuSans-6c" transform="translate(122.181641 0)"/>
      <use xlink:href="#DejaVuSans-6f" transform="translate(149.964844 0)"/>
      <use xlink:href="#DejaVuSans-63" transform="translate(211.146484 0)"/>
      <use xlink:href="#DejaVuSans-69" transform="translate(266.126953 0)"/>
      <use xlink:href="#DejaVuSans-74" transform="translate(293.910156 0)"/>
      <use xlink:href="#DejaVuSans-79" transform="translate(333.119141 0)"/>
      <use xlink:href="#DejaVuSans-20" transform="translate(392.298828 0)"/>
      <use xlink:href="#DejaVuSans-28" transform="translate(424.085938 0)"/>
      <use xlink:href="#DejaVuSans-6d" transform="translate(463.099609 0)"/>
      <use xlink:href="#DejaVuSans-2f" transform="translate(560.511719 0)"/>
      <use xlink:href="#DejaVuSans-73" transform="translate(594.203125 0)"/>
      <use xlink:href="#DejaVuSans-29" transform="translate(646.302734 0)"/>
     </g>
    </g>
   </g>
   <g id="line2d_61">
    <path d="M 115.363636 411.787399 
L 157.481312 411.787399 
L 157.650459 411.463342 
L 168.137591 331.097089 
L 168.306739 330.854046 
L 189.281003 330.854046 
L 190.972476 343.735331 
L 199.937282 411.787399 
L 242.054958 411.787399 
L 242.5624 415.352031 
L 252.711237 492.720752 
L 273.685501 492.720752 
L 273.854649 492.153652 
L 284.341781 411.787399 
L 326.628603 411.787399 
L 326.797751 411.463342 
L 337.284883 331.097089 
L 337.45403 330.854046 
L 358.428294 330.854046 
L 360.119767 343.735331 
L 369.084574 411.787399 
L 411.202249 411.787399 
L 411.709691 415.352031 
L 421.858529 492.720752 
L 442.832793 492.720752 
L 443.00194 492.153652 
L 453.489072 411.787399 
L 495.775895 411.787399 
L 495.945042 411.463342 
L 506.432174 331.097089 
L 506.601322 330.854046 
L 527.575586 330.854046 
L 529.267059 343.735331 
L 538.231865 411.787399 
L 580.349541 411.787399 
L 580.856983 415.352031 
L 591.00582 492.720752 
L 611.980084 492.720752 
L 612.149232 492.153652 
L 622.636364 411.787399 
L 622.636364 411.787399 
" clip-path="url(#p69475f202a)" style="fill: none; stroke-dasharray: 5.55,2.4; stroke-dashoffset: 0; stroke: #000000; stroke-width: 1.5"/>
   </g>
   <g id="line2d_62">
    <path d="M 115.363636 411.787399 
L 157.481312 411.787399 
L 157.650459 411.403749 
L 159.680227 395.885476 
L 168.137591 330.81503 
L 168.475886 329.454163 
L 168.81418 329.044844 
L 169.152475 329.290453 
L 169.49077 329.570897 
L 171.182243 329.942379 
L 174.565188 330.52565 
L 176.764103 330.937313 
L 180.485344 331.10806 
L 185.898057 331.191054 
L 186.743793 331.092526 
L 187.758677 330.336169 
L 188.096972 330.540068 
L 188.435266 331.183645 
L 188.773561 332.316848 
L 189.281003 334.917557 
L 190.126739 340.947061 
L 191.818212 352.968926 
L 196.216042 384.710997 
L 197.907515 397.628999 
L 198.584104 401.295557 
L 199.260693 403.741846 
L 199.768135 404.833136 
L 200.275577 405.437293 
L 201.797902 406.725077 
L 203.151081 408.041822 
L 204.673406 409.210114 
L 206.195732 410.110757 
L 207.887205 410.865756 
L 209.747825 411.46323 
L 211.94674 411.93361 
L 214.653096 412.269691 
L 218.036042 412.448731 
L 222.941314 412.460603 
L 234.44333 412.182025 
L 241.88581 412.066989 
L 242.054958 412.611566 
L 242.5624 416.285407 
L 243.577283 423.930885 
L 247.636818 454.79317 
L 252.372942 490.483793 
L 252.880384 492.255827 
L 253.218679 492.765169 
L 253.556974 492.841897 
L 254.064415 492.51876 
L 254.40271 492.365426 
L 257.447361 492.372339 
L 259.138834 492.418392 
L 262.690927 492.784079 
L 264.889842 492.684408 
L 266.91961 492.655689 
L 269.625966 492.590836 
L 272.839765 492.5397 
L 273.516354 492.561413 
L 273.685501 492.177506 
L 274.023796 490.3901 
L 275.03868 482.239315 
L 278.75992 454.322999 
L 284.341781 412.214191 
L 302.947983 411.907034 
L 325.782867 411.805203 
L 326.628603 411.803938 
L 326.797751 411.096597 
L 328.827518 395.594987 
L 336.777441 335.242062 
L 337.45403 329.710207 
L 337.792325 328.193512 
L 338.130619 327.747173 
L 338.299767 327.85278 
L 338.976356 328.687506 
L 340.498681 329.425841 
L 343.881627 330.549224 
L 345.403953 330.791413 
L 348.786899 331.044809 
L 354.030465 331.252467 
L 355.55279 331.111228 
L 356.567674 330.425541 
L 356.905969 330.567703 
L 357.244263 331.081029 
L 357.582558 332.018041 
L 358.09 334.236117 
L 358.766589 338.470133 
L 361.81124 359.424698 
L 365.194186 383.644432 
L 366.378217 393.089252 
L 367.393101 400.722311 
L 368.06969 404.575305 
L 368.746279 407.151435 
L 369.253721 408.253259 
L 369.761163 408.749705 
L 370.268605 408.820262 
L 371.114341 408.724146 
L 372.298372 409.290737 
L 374.32814 410.089295 
L 376.527054 410.71071 
L 379.233411 411.227193 
L 382.44721 411.595794 
L 386.675892 411.838658 
L 392.934342 411.945794 
L 406.80442 411.891385 
L 411.202249 411.927968 
L 411.371397 412.467187 
L 411.709691 414.667882 
L 414.077753 433.419227 
L 421.181939 488.418301 
L 421.689381 492.164641 
L 422.027676 493.727323 
L 422.36597 494.431545 
L 422.535118 494.496723 
L 422.873412 494.236255 
L 423.211707 493.849486 
L 424.057443 493.586752 
L 425.410622 493.372058 
L 431.838219 492.741258 
L 435.897754 492.527166 
L 438.265816 492.420849 
L 438.773258 492.496886 
L 439.2807 492.88011 
L 440.126436 493.612834 
L 440.464731 493.731663 
L 440.803025 493.667809 
L 441.14132 493.38019 
L 441.479614 492.838142 
L 441.987056 491.50657 
L 442.494498 489.53502 
L 443.171087 485.967344 
L 444.185971 479.099951 
L 446.554033 462.482875 
L 450.106126 437.114308 
L 453.319925 413.492786 
L 453.489072 413.217387 
L 456.364576 412.958388 
L 463.807057 412.463847 
L 472.264421 412.132464 
L 483.766437 411.91853 
L 495.775895 411.678817 
L 496.452484 406.619621 
L 506.432174 331.816505 
L 506.601322 331.570548 
L 506.939616 331.701844 
L 507.277911 331.890593 
L 507.616205 331.798334 
L 508.123647 331.681159 
L 510.491709 331.312282 
L 511.844888 331.234391 
L 514.551244 331.250699 
L 518.610779 330.887283 
L 521.486283 330.890433 
L 524.023493 330.931029 
L 525.714966 330.834406 
L 526.729849 330.859144 
L 527.575586 330.200278 
L 527.744733 330.397126 
L 528.083028 331.415818 
L 528.421322 333.312107 
L 529.097911 339.074257 
L 530.281942 349.143325 
L 533.834036 377.537606 
L 538.231865 412.047911 
L 541.953106 412.226151 
L 547.534966 412.248494 
L 566.986905 411.944457 
L 580.180393 411.845058 
L 580.349541 412.154338 
L 580.687835 413.967684 
L 586.100549 455.373899 
L 589.314347 479.975837 
L 589.990936 483.244887 
L 590.498378 484.910479 
L 591.00582 485.976048 
L 591.513262 486.590798 
L 592.697293 487.659132 
L 594.219619 489.400616 
L 595.572797 490.627848 
L 596.925975 491.543215 
L 598.448301 492.284819 
L 600.647216 493.100567 
L 602.676983 493.614441 
L 604.706751 493.900974 
L 607.24396 494.022908 
L 610.288611 494.05285 
L 610.626906 494.327581 
L 611.303495 494.969221 
L 611.64179 494.86732 
L 611.980084 494.274522 
L 612.318379 493.111607 
L 612.825821 490.277728 
L 613.50241 484.864291 
L 615.024736 472.177705 
L 622.636364 412.841306 
L 622.636364 412.841306 
" clip-path="url(#p69475f202a)" style="fill: none; stroke: #0000ff; stroke-width: 1.5; stroke-linecap: square"/>
   </g>
   <g id="line2d_63">
    <path d="M 115.363636 411.787399 
L 157.819607 411.753582 
L 158.327048 411.384943 
L 158.83449 410.64333 
L 159.511079 409.095731 
L 160.187669 407.078722 
L 161.033405 403.76939 
L 162.217436 398.03054 
L 163.063173 393.32007 
L 165.431235 378.010678 
L 167.291855 364.198426 
L 169.49077 347.99274 
L 170.505653 342.136265 
L 171.689684 336.573293 
L 172.873715 332.14719 
L 173.888599 329.122594 
L 174.903483 326.742981 
L 175.918367 324.90871 
L 176.93325 323.491535 
L 177.948134 322.456456 
L 178.963018 321.737598 
L 180.316196 321.101371 
L 181.500227 320.761377 
L 182.684258 320.648718 
L 183.868289 320.751548 
L 185.390615 321.119765 
L 187.251235 321.580568 
L 188.266119 321.325878 
L 188.942708 321.263876 
L 189.45015 321.434237 
L 189.957592 321.870558 
L 190.465034 322.626197 
L 190.972476 323.737233 
L 191.649065 325.801466 
L 192.494801 329.304382 
L 193.509685 334.67685 
L 195.201158 345.181918 
L 196.723484 355.946075 
L 199.091546 374.59558 
L 201.121313 389.957178 
L 202.305344 397.121261 
L 203.489375 402.887325 
L 204.673406 407.485804 
L 205.857437 411.120224 
L 206.872321 413.597828 
L 207.887205 415.57529 
L 208.902089 417.126985 
L 209.916972 418.32001 
L 210.931856 419.214182 
L 212.115887 419.94635 
L 213.299918 420.402114 
L 214.653096 420.653439 
L 216.175422 420.675385 
L 217.866895 420.46803 
L 220.06581 419.951254 
L 223.448756 418.879811 
L 232.075268 416.064835 
L 236.30395 414.973888 
L 240.532632 414.11835 
L 242.393252 413.860573 
L 242.731547 414.033506 
L 243.238989 414.647764 
L 243.746431 415.706108 
L 244.592167 418.17305 
L 245.437904 421.110067 
L 246.28364 424.895121 
L 247.467671 431.434977 
L 249.159144 441.878365 
L 251.019764 454.878515 
L 253.726121 474.678739 
L 254.910152 481.661337 
L 255.925036 486.494404 
L 256.939919 490.409221 
L 257.954803 493.565796 
L 259.138834 496.484521 
L 260.322865 498.779835 
L 261.506896 500.619964 
L 262.52178 501.799097 
L 263.367516 502.479568 
L 264.213253 502.896287 
L 265.058989 503.083643 
L 266.24302 503.074277 
L 269.456819 502.680445 
L 270.809997 502.469642 
L 273.516354 502.298071 
L 274.023796 501.950223 
L 274.531238 501.332662 
L 275.03868 500.351542 
L 275.715269 498.477615 
L 276.561005 495.360506 
L 277.575889 490.656595 
L 278.75992 484.08562 
L 280.282246 474.300853 
L 282.142866 460.849804 
L 284.341781 442.812443 
L 285.694959 432.573127 
L 286.87899 425.653663 
L 288.063021 420.084464 
L 289.247052 415.648506 
L 290.431083 412.152726 
L 291.615114 409.426875 
L 292.629998 407.599835 
L 293.644882 406.171899 
L 294.659765 405.082007 
L 295.674649 404.275026 
L 296.85868 403.625857 
L 298.042711 403.231847 
L 299.39589 403.03234 
L 300.918215 403.05299 
L 302.778835 403.325114 
L 305.146897 403.921366 
L 309.037285 405.182777 
L 315.972324 407.414827 
L 320.201006 408.517395 
L 324.429689 409.391292 
L 326.966898 409.743457 
L 327.47434 409.468504 
L 327.981782 408.855543 
L 328.658371 407.447509 
L 329.33496 405.563638 
L 330.180697 402.334815 
L 331.364728 396.888713 
L 332.887053 388.18426 
L 334.240232 379.199242 
L 336.100852 366.118598 
L 338.807208 346.20924 
L 339.99124 339.716424 
L 341.175271 334.568558 
L 342.190154 331.030841 
L 343.205038 328.220291 
L 344.389069 325.578622 
L 345.5731 323.478653 
L 346.587984 322.148198 
L 347.602868 321.282412 
L 348.617751 320.717013 
L 349.632635 320.397037 
L 350.816666 320.26343 
L 352.338992 320.339985 
L 354.876201 320.714877 
L 356.229379 321.13659 
L 357.244263 321.644753 
L 358.09 322.294448 
L 358.935736 323.271384 
L 359.612325 324.388545 
L 360.288914 325.903948 
L 360.965504 327.924985 
L 361.81124 331.316873 
L 362.826124 336.365923 
L 364.179302 344.397087 
L 365.701628 354.845116 
L 367.900543 371.658285 
L 370.437752 390.943869 
L 371.621783 397.832804 
L 372.805814 403.370718 
L 373.989845 407.784658 
L 375.173876 411.275401 
L 376.18876 413.653898 
L 377.203644 415.550068 
L 378.218527 417.036489 
L 379.233411 418.178416 
L 380.248295 419.033694 
L 381.432326 419.731573 
L 382.616357 420.163084 
L 383.969535 420.397456 
L 385.491861 420.411702 
L 387.183334 420.204331 
L 389.382249 419.697008 
L 392.765194 418.654956 
L 401.222559 415.971937 
L 405.451241 414.906573 
L 409.679924 414.070173 
L 411.202249 413.88177 
L 411.709691 414.099734 
L 412.217133 414.585108 
L 412.724575 415.355028 
L 413.401164 416.842581 
L 414.077753 418.864837 
L 414.92349 422.128699 
L 415.938373 427.039822 
L 417.291552 434.895442 
L 419.152172 447.120934 
L 421.012792 460.684483 
L 422.873412 474.507692 
L 424.057443 481.523212 
L 425.241474 487.185781 
L 426.256358 491.071318 
L 427.271242 494.184414 
L 428.286126 496.672473 
L 429.301009 498.638947 
L 430.315893 500.166054 
L 431.330777 501.328048 
L 432.345661 502.191219 
L 433.529692 502.89794 
L 434.713723 503.341758 
L 435.728607 503.47101 
L 437.250932 503.41355 
L 439.788142 503.084123 
L 441.14132 502.716898 
L 441.817909 502.544662 
L 442.832793 502.404976 
L 443.340235 502.053721 
L 443.847676 501.369749 
L 444.355118 500.293403 
L 445.031708 498.21847 
L 445.877444 494.70367 
L 447.230622 487.881941 
L 448.583801 479.809473 
L 450.106126 469.170024 
L 452.474188 450.730512 
L 454.503956 434.774393 
L 455.687987 427.484433 
L 456.872018 421.601693 
L 458.056049 416.882464 
L 459.24008 413.14575 
L 460.424111 410.221755 
L 461.438995 408.253595 
L 462.453879 406.705691 
L 463.468762 405.513658 
L 464.483646 404.619521 
L 465.667677 403.88472 
L 466.851708 403.4212 
L 468.204886 403.158329 
L 469.727212 403.123508 
L 471.418685 403.315882 
L 473.6176 403.808476 
L 476.831398 404.792784 
L 485.965352 407.68872 
L 490.194034 408.737449 
L 494.422717 409.558624 
L 496.11419 409.796794 
L 496.452484 409.648569 
L 496.959926 409.114466 
L 497.467368 408.217554 
L 498.143957 406.528073 
L 498.820546 404.306191 
L 499.83543 399.98946 
L 501.019461 393.975306 
L 502.203492 387.006821 
L 504.571554 371.044688 
L 506.263027 358.201899 
L 507.785353 347.078115 
L 508.800236 341.147309 
L 509.984267 335.652645 
L 510.999151 331.92437 
L 512.014035 328.972227 
L 513.028919 326.623957 
L 514.043802 324.757324 
L 515.058686 323.290314 
L 516.07357 322.15913 
L 517.088454 321.323579 
L 518.103337 320.767071 
L 519.287369 320.38953 
L 520.4714 320.217481 
L 521.824578 320.254171 
L 523.346904 320.544152 
L 525.376671 321.189281 
L 527.406439 321.94911 
L 527.91388 322.463461 
L 528.59047 323.581153 
L 529.267059 325.190502 
L 530.112795 327.880766 
L 531.127679 332.06334 
L 532.142563 337.209865 
L 533.495741 345.372896 
L 535.187214 357.196332 
L 540.261633 394.510305 
L 541.445664 400.870544 
L 542.629695 405.867826 
L 543.813726 409.832118 
L 544.82861 412.539162 
L 545.843493 414.711083 
L 546.858377 416.433404 
L 547.873261 417.774967 
L 548.888145 418.792837 
L 549.903028 419.538609 
L 551.087059 420.126132 
L 552.27109 420.469504 
L 553.624269 420.624518 
L 555.146594 420.565154 
L 557.007215 420.25597 
L 559.544424 419.580741 
L 563.942253 418.116305 
L 569.862409 416.211259 
L 574.091091 415.097775 
L 578.319773 414.212956 
L 580.518688 413.874142 
L 581.02613 414.052141 
L 581.364425 414.380202 
L 581.871866 415.222121 
L 582.548456 416.956433 
L 583.225045 419.189659 
L 584.578223 424.828917 
L 585.593107 430.194396 
L 587.28458 440.350337 
L 588.806905 450.91305 
L 591.00582 467.994054 
L 592.189851 476.230199 
L 593.373882 483.047693 
L 594.388766 487.749768 
L 595.40365 491.508321 
L 596.418533 494.531454 
L 597.433417 496.949012 
L 598.448301 498.850554 
L 599.463185 500.298258 
L 600.478068 501.390026 
L 601.662099 502.322596 
L 602.846131 502.958133 
L 603.861014 503.280404 
L 604.875898 503.382019 
L 606.398224 503.297007 
L 607.920549 502.983725 
L 609.781169 502.354314 
L 612.149232 501.369535 
L 612.656673 500.792153 
L 613.333263 499.534956 
L 614.009852 497.749537 
L 614.855588 494.822113 
L 615.870472 490.367482 
L 617.054503 483.99957 
L 618.407681 475.369925 
L 620.268302 461.754261 
L 622.636364 442.926605 
L 622.636364 442.926605 
" clip-path="url(#p69475f202a)" style="fill: none; stroke: #ff0000; stroke-width: 1.5; stroke-linecap: square"/>
   </g>
   <g id="patch_9">
    <path d="M 90 512.64 
L 90 311.04 
" style="fill: none; stroke: #000000; stroke-width: 0.8; stroke-linejoin: miter; stroke-linecap: square"/>
   </g>
   <g id="patch_10">
    <path d="M 648 512.64 
L 648 311.04 
" style="fill: none; stroke: #000000; stroke-width: 0.8; stroke-linejoin: miter; stroke-linecap: square"/>
   </g>
   <g id="patch_11">
    <path d="M 90 512.64 
L 648 512.64 
" style="fill: none; stroke: #000000; stroke-width: 0.8; stroke-linejoin: miter; stroke-linecap: square"/>
   </g>
   <g id="patch_12">
    <path d="M 90 311.04 
L 648 311.04 
" style="fill: none; stroke: #000000; stroke-width: 0.8; stroke-linejoin: miter; stroke-linecap: square"/>
   </g>
   <g id="text_35">
    <!-- Velocity Tracking -->
    <g transform="translate(318.579375 305.04) scale(0.12 -0.12)">
     <use xlink:href="#DejaVuSans-56"/>
     <use xlink:href="#DejaVuSans-65" transform="translate(60.658203 0)"/>
     <use xlink:href="#DejaVuSans-6c" transform="translate(122.181641 0)"/>
     <use xlink:href="#DejaVuSans-6f" transform="translate(149.964844 0)"/>
     <use xlink:href="#DejaVuSans-63" transform="translate(211.146484 0)"/>
     <use xlink:href="#DejaVuSans-69" transform="translate(266.126953 0)"/>
     <use xlink:href="#DejaVuSans-74" transform="translate(293.910156 0)"/>
     <use xlink:href="#DejaVuSans-79" transform="translate(333.119141 0)"/>
     <use xlink:href="#DejaVuSans-20" transform="translate(392.298828 0)"/>
     <use xlink:href="#DejaVuSans-54" transform="translate(424.085938 0)"/>
     <use xlink:href="#DejaVuSans-72" transform="translate(470.419922 0)"/>
     <use xlink:href="#DejaVuSans-61" transform="translate(511.533203 0)"/>
     <use xlink:href="#DejaVuSans-63" transform="translate(572.8125 0)"/>
     <use xlink:href="#DejaVuSans-6b" transform="translate(627.792969 0)"/>
     <use xlink:href="#DejaVuSans-69" transform="translate(685.703125 0)"/>
     <use xlink:href="#DejaVuSans-6e" transform="translate(713.486328 0)"/>
     <use xlink:href="#DejaVuSans-67" transform="translate(776.865234 0)"/>
    </g>
   </g>
   <g id="legend_2">
    <g id="patch_13">
     <path d="M 97 507.64 
L 274.375 507.64 
Q 276.375 507.64 276.375 505.64 
L 276.375 462.605625 
Q 276.375 460.605625 274.375 460.605625 
L 97 460.605625 
Q 95 460.605625 95 462.605625 
L 95 505.64 
Q 95 507.64 97 507.64 
z
" style="fill: #ffffff; opacity: 0.8; stroke: #cccccc; stroke-linejoin: miter"/>
    </g>
    <g id="line2d_64">
     <path d="M 99 468.704063 
L 109 468.704063 
L 119 468.704063 
" style="fill: none; stroke-dasharray: 5.55,2.4; stroke-dashoffset: 0; stroke: #000000; stroke-width: 1.5"/>
    </g>
    <g id="text_36">
     <!-- Reference Velocity -->
     <g transform="translate(127 472.204063) scale(0.1 -0.1)">
      <use xlink:href="#DejaVuSans-52"/>
      <use xlink:href="#DejaVuSans-65" transform="translate(64.982422 0)"/>
      <use xlink:href="#DejaVuSans-66" transform="translate(126.505859 0)"/>
      <use xlink:href="#DejaVuSans-65" transform="translate(161.710938 0)"/>
      <use xlink:href="#DejaVuSans-72" transform="translate(223.234375 0)"/>
      <use xlink:href="#DejaVuSans-65" transform="translate(262.097656 0)"/>
      <use xlink:href="#DejaVuSans-6e" transform="translate(323.621094 0)"/>
      <use xlink:href="#DejaVuSans-63" transform="translate(387 0)"/>
      <use xlink:href="#DejaVuSans-65" transform="translate(441.980469 0)"/>
      <use xlink:href="#DejaVuSans-20" transform="translate(503.503906 0)"/>
      <use xlink:href="#DejaVuSans-56" transform="translate(535.291016 0)"/>
      <use xlink:href="#DejaVuSans-65" transform="translate(595.949219 0)"/>
      <use xlink:href="#DejaVuSans-6c" transform="translate(657.472656 0)"/>
      <use xlink:href="#DejaVuSans-6f" transform="translate(685.255859 0)"/>
      <use xlink:href="#DejaVuSans-63" transform="translate(746.4375 0)"/>
      <use xlink:href="#DejaVuSans-69" transform="translate(801.417969 0)"/>
      <use xlink:href="#DejaVuSans-74" transform="translate(829.201172 0)"/>
      <use xlink:href="#DejaVuSans-79" transform="translate(868.410156 0)"/>
     </g>
    </g>
    <g id="line2d_65">
     <path d="M 99 483.382187 
L 109 483.382187 
L 119 483.382187 
" style="fill: none; stroke: #0000ff; stroke-width: 1.5; stroke-linecap: square"/>
    </g>
    <g id="text_37">
     <!-- Velocity with Feedforward -->
     <g transform="translate(127 486.882187) scale(0.1 -0.1)">
      <use xlink:href="#DejaVuSans-56"/>
      <use xlink:href="#DejaVuSans-65" transform="translate(60.658203 0)"/>
      <use xlink:href="#DejaVuSans-6c" transform="translate(122.181641 0)"/>
      <use xlink:href="#DejaVuSans-6f" transform="translate(149.964844 0)"/>
      <use xlink:href="#DejaVuSans-63" transform="translate(211.146484 0)"/>
      <use xlink:href="#DejaVuSans-69" transform="translate(266.126953 0)"/>
      <use xlink:href="#DejaVuSans-74" transform="translate(293.910156 0)"/>
      <use xlink:href="#DejaVuSans-79" transform="translate(333.119141 0)"/>
      <use xlink:href="#DejaVuSans-20" transform="translate(392.298828 0)"/>
      <use xlink:href="#DejaVuSans-77" transform="translate(424.085938 0)"/>
      <use xlink:href="#DejaVuSans-69" transform="translate(505.873047 0)"/>
      <use xlink:href="#DejaVuSans-74" transform="translate(533.65625 0)"/>
      <use xlink:href="#DejaVuSans-68" transform="translate(572.865234 0)"/>
      <use xlink:href="#DejaVuSans-20" transform="translate(636.244141 0)"/>
      <use xlink:href="#DejaVuSans-46" transform="translate(668.03125 0)"/>
      <use xlink:href="#DejaVuSans-65" transform="translate(720.050781 0)"/>
      <use xlink:href="#DejaVuSans-65" transform="translate(781.574219 0)"/>
      <use xlink:href="#DejaVuSans-64" transform="translate(843.097656 0)"/>
      <use xlink:href="#DejaVuSans-66" transform="translate(906.574219 0)"/>
      <use xlink:href="#DejaVuSans-6f" transform="translate(941.779297 0)"/>
      <use xlink:href="#DejaVuSans-72" transform="translate(1002.960938 0)"/>
      <use xlink:href="#DejaVuSans-77" transform="translate(1044.074219 0)"/>
      <use xlink:href="#DejaVuSans-61" transform="translate(1125.861328 0)"/>
      <use xlink:href="#DejaVuSans-72" transform="translate(1187.140625 0)"/>
      <use xlink:href="#DejaVuSans-64" transform="translate(1226.503906 0)"/>
     </g>
    </g>
    <g id="line2d_66">
     <path d="M 99 498.060313 
L 109 498.060313 
L 119 498.060313 
" style="fill: none; stroke: #ff0000; stroke-width: 1.5; stroke-linecap: square"/>
    </g>
    <g id="text_38">
     <!-- Velocity without Feedforward -->
     <g transform="translate(127 501.560313) scale(0.1 -0.1)">
      <use xlink:href="#DejaVuSans-56"/>
      <use xlink:href="#DejaVuSans-65" transform="translate(60.658203 0)"/>
      <use xlink:href="#DejaVuSans-6c" transform="translate(122.181641 0)"/>
      <use xlink:href="#DejaVuSans-6f" transform="translate(149.964844 0)"/>
      <use xlink:href="#DejaVuSans-63" transform="translate(211.146484 0)"/>
      <use xlink:href="#DejaVuSans-69" transform="translate(266.126953 0)"/>
      <use xlink:href="#DejaVuSans-74" transform="translate(293.910156 0)"/>
      <use xlink:href="#DejaVuSans-79" transform="translate(333.119141 0)"/>
      <use xlink:href="#DejaVuSans-20" transform="translate(392.298828 0)"/>
      <use xlink:href="#DejaVuSans-77" transform="translate(424.085938 0)"/>
      <use xlink:href="#DejaVuSans-69" transform="translate(505.873047 0)"/>
      <use xlink:href="#DejaVuSans-74" transform="translate(533.65625 0)"/>
      <use xlink:href="#DejaVuSans-68" transform="translate(572.865234 0)"/>
      <use xlink:href="#DejaVuSans-6f" transform="translate(636.244141 0)"/>
      <use xlink:href="#DejaVuSans-75" transform="translate(697.425781 0)"/>
      <use xlink:href="#DejaVuSans-74" transform="translate(760.804688 0)"/>
      <use xlink:href="#DejaVuSans-20" transform="translate(800.013672 0)"/>
      <use xlink:href="#DejaVuSans-46" transform="translate(831.800781 0)"/>
      <use xlink:href="#DejaVuSans-65" transform="translate(883.820312 0)"/>
      <use xlink:href="#DejaVuSans-65" transform="translate(945.34375 0)"/>
      <use xlink:href="#DejaVuSans-64" transform="translate(1006.867188 0)"/>
      <use xlink:href="#DejaVuSans-66" transform="translate(1070.34375 0)"/>
      <use xlink:href="#DejaVuSans-6f" transform="translate(1105.548828 0)"/>
      <use xlink:href="#DejaVuSans-72" transform="translate(1166.730469 0)"/>
      <use xlink:href="#DejaVuSans-77" transform="translate(1207.84375 0)"/>
      <use xlink:href="#DejaVuSans-61" transform="translate(1289.630859 0)"/>
      <use xlink:href="#DejaVuSans-72" transform="translate(1350.910156 0)"/>
      <use xlink:href="#DejaVuSans-64" transform="translate(1390.273438 0)"/>
     </g>
    </g>
   </g>
  </g>
  <g id="text_39">
   <!-- Comparison of Closed-Loop Response with and without Feedforward -->
   <g transform="translate(155.529375 20.638125) scale(0.12 -0.12)">
    <defs>
     <path id="DejaVuSans-43" d="M 4122 4306 
L 4122 3641 
Q 3803 3938 3442 4084 
Q 3081 4231 2675 4231 
Q 1875 4231 1450 3742 
Q 1025 3253 1025 2328 
Q 1025 1406 1450 917 
Q 1875 428 2675 428 
Q 3081 428 3442 575 
Q 3803 722 4122 1019 
L 4122 359 
Q 3791 134 3420 21 
Q 3050 -91 2638 -91 
Q 1578 -91 968 557 
Q 359 1206 359 2328 
Q 359 3453 968 4101 
Q 1578 4750 2638 4750 
Q 3056 4750 3426 4639 
Q 3797 4528 4122 4306 
z
" transform="scale(0.015625)"/>
     <path id="DejaVuSans-70" d="M 1159 525 
L 1159 -1331 
L 581 -1331 
L 581 3500 
L 1159 3500 
L 1159 2969 
Q 1341 3281 1617 3432 
Q 1894 3584 2278 3584 
Q 2916 3584 3314 3078 
Q 3713 2572 3713 1747 
Q 3713 922 3314 415 
Q 2916 -91 2278 -91 
Q 1894 -91 1617 61 
Q 1341 213 1159 525 
z
M 3116 1747 
Q 3116 2381 2855 2742 
Q 2594 3103 2138 3103 
Q 1681 3103 1420 2742 
Q 1159 2381 1159 1747 
Q 1159 1113 1420 752 
Q 1681 391 2138 391 
Q 2594 391 2855 752 
Q 3116 1113 3116 1747 
z
" transform="scale(0.015625)"/>
     <path id="DejaVuSans-2d" d="M 313 2009 
L 1997 2009 
L 1997 1497 
L 313 1497 
L 313 2009 
z
" transform="scale(0.015625)"/>
     <path id="DejaVuSans-4c" d="M 628 4666 
L 1259 4666 
L 1259 531 
L 3531 531 
L 3531 0 
L 628 0 
L 628 4666 
z
" transform="scale(0.015625)"/>
    </defs>
    <use xlink:href="#DejaVuSans-43"/>
    <use xlink:href="#DejaVuSans-6f" transform="translate(69.824219 0)"/>
    <use xlink:href="#DejaVuSans-6d" transform="translate(131.005859 0)"/>
    <use xlink:href="#DejaVuSans-70" transform="translate(228.417969 0)"/>
    <use xlink:href="#DejaVuSans-61" transform="translate(291.894531 0)"/>
    <use xlink:href="#DejaVuSans-72" transform="translate(353.173828 0)"/>
    <use xlink:href="#DejaVuSans-69" transform="translate(394.287109 0)"/>
    <use xlink:href="#DejaVuSans-73" transform="translate(422.070312 0)"/>
    <use xlink:href="#DejaVuSans-6f" transform="translate(474.169922 0)"/>
    <use xlink:href="#DejaVuSans-6e" transform="translate(535.351562 0)"/>
    <use xlink:href="#DejaVuSans-20" transform="translate(598.730469 0)"/>
    <use xlink:href="#DejaVuSans-6f" transform="translate(630.517578 0)"/>
    <use xlink:href="#DejaVuSans-66" transform="translate(691.699219 0)"/>
    <use xlink:href="#DejaVuSans-20" transform="translate(726.904297 0)"/>
    <use xlink:href="#DejaVuSans-43" transform="translate(758.691406 0)"/>
    <use xlink:href="#DejaVuSans-6c" transform="translate(828.515625 0)"/>
    <use xlink:href="#DejaVuSans-6f" transform="translate(856.298828 0)"/>
    <use xlink:href="#DejaVuSans-73" transform="translate(917.480469 0)"/>
    <use xlink:href="#DejaVuSans-65" transform="translate(969.580078 0)"/>
    <use xlink:href="#DejaVuSans-64" transform="translate(1031.103516 0)"/>
    <use xlink:href="#DejaVuSans-2d" transform="translate(1094.580078 0)"/>
    <use xlink:href="#DejaVuSans-4c" transform="translate(1130.664062 0)"/>
    <use xlink:href="#DejaVuSans-6f" transform="translate(1184.626953 0)"/>
    <use xlink:href="#DejaVuSans-6f" transform="translate(1245.808594 0)"/>
    <use xlink:href="#DejaVuSans-70" transform="translate(1306.990234 0)"/>
    <use xlink:href="#DejaVuSans-20" transform="translate(1370.466797 0)"/>
    <use xlink:href="#DejaVuSans-52" transform="translate(1402.253906 0)"/>
    <use xlink:href="#DejaVuSans-65" transform="translate(1467.236328 0)"/>
    <use xlink:href="#DejaVuSans-73" transform="translate(1528.759766 0)"/>
    <use xlink:href="#DejaVuSans-70" transform="translate(1580.859375 0)"/>
    <use xlink:href="#DejaVuSans-6f" transform="translate(1644.335938 0)"/>
    <use xlink:href="#DejaVuSans-6e" transform="translate(1705.517578 0)"/>
    <use xlink:href="#DejaVuSans-73" transform="translate(1768.896484 0)"/>
    <use xlink:href="#DejaVuSans-65" transform="translate(1820.996094 0)"/>
    <use xlink:href="#DejaVuSans-20" transform="translate(1882.519531 0)"/>
    <use xlink:href="#DejaVuSans-77" transform="translate(1914.306641 0)"/>
    <use xlink:href="#DejaVuSans-69" transform="translate(1996.09375 0)"/>
    <use xlink:href="#DejaVuSans-74" transform="translate(2023.876953 0)"/>
    <use xlink:href="#DejaVuSans-68" transform="translate(2063.085938 0)"/>
    <use xlink:href="#DejaVuSans-20" transform="translate(2126.464844 0)"/>
    <use xlink:href="#DejaVuSans-61" transform="translate(2158.251953 0)"/>
    <use xlink:href="#DejaVuSans-6e" transform="translate(2219.53125 0)"/>
    <use xlink:href="#DejaVuSans-64" transform="translate(2282.910156 0)"/>
    <use xlink:href="#DejaVuSans-20" transform="translate(2346.386719 0)"/>
    <use xlink:href="#DejaVuSans-77" transform="translate(2378.173828 0)"/>
    <use xlink:href="#DejaVuSans-69" transform="translate(2459.960938 0)"/>
    <use xlink:href="#DejaVuSans-74" transform="translate(2487.744141 0)"/>
    <use xlink:href="#DejaVuSans-68" transform="translate(2526.953125 0)"/>
    <use xlink:href="#DejaVuSans-6f" transform="translate(2590.332031 0)"/>
    <use xlink:href="#DejaVuSans-75" transform="translate(2651.513672 0)"/>
    <use xlink:href="#DejaVuSans-74" transform="translate(2714.892578 0)"/>
    <use xlink:href="#DejaVuSans-20" transform="translate(2754.101562 0)"/>
    <use xlink:href="#DejaVuSans-46" transform="translate(2785.888672 0)"/>
    <use xlink:href="#DejaVuSans-65" transform="translate(2837.908203 0)"/>
    <use xlink:href="#DejaVuSans-65" transform="translate(2899.431641 0)"/>
    <use xlink:href="#DejaVuSans-64" transform="translate(2960.955078 0)"/>
    <use xlink:href="#DejaVuSans-66" transform="translate(3024.431641 0)"/>
    <use xlink:href="#DejaVuSans-6f" transform="translate(3059.636719 0)"/>
    <use xlink:href="#DejaVuSans-72" transform="translate(3120.818359 0)"/>
    <use xlink:href="#DejaVuSans-77" transform="translate(3161.931641 0)"/>
    <use xlink:href="#DejaVuSans-61" transform="translate(3243.71875 0)"/>
    <use xlink:href="#DejaVuSans-72" transform="translate(3304.998047 0)"/>
    <use xlink:href="#DejaVuSans-64" transform="translate(3344.361328 0)"/>
   </g>
  </g>
 </g>
 <defs>
  <clipPath id="p99bbd6ee1d">
   <rect x="90" y="69.12" width="558" height="201.6"/>
  </clipPath>
  <clipPath id="p69475f202a">
   <rect x="90" y="311.04" width="558" height="201.6"/>
  </clipPath>
 </defs>
</svg>
