<?xml version="1.0" encoding="utf-8" standalone="no"?>
<!DOCTYPE svg PUBLIC "-//W3C//DTD SVG 1.1//EN"
  "http://www.w3.org/Graphics/SVG/1.1/DTD/svg11.dtd">
<svg xmlns:xlink="http://www.w3.org/1999/xlink" width="720pt" height="576pt" viewBox="0 0 720 576" xmlns="http://www.w3.org/2000/svg" version="1.1">
 <metadata>
  <rdf:RDF xmlns:dc="http://purl.org/dc/elements/1.1/" xmlns:cc="http://creativecommons.org/ns#" xmlns:rdf="http://www.w3.org/1999/02/22-rdf-syntax-ns#">
   <cc:Work>
    <dc:type rdf:resource="http://purl.org/dc/dcmitype/StillImage"/>
    <dc:date>2025-01-21T17:36:43.624123</dc:date>
    <dc:format>image/svg+xml</dc:format>
    <dc:creator>
     <cc:Agent>
      <dc:title>Matplotlib v3.10.0, https://matplotlib.org/</dc:title>
     </cc:Agent>
    </dc:creator>
   </cc:Work>
  </rdf:RDF>
 </metadata>
 <defs>
  <style type="text/css">*{stroke-linejoin: round; stroke-linecap: butt}</style>
 </defs>
 <g id="figure_1">
  <g id="patch_1">
   <path d="M 0 576 
L 720 576 
L 720 0 
L 0 0 
z
" style="fill: #ffffff"/>
  </g>
  <g id="axes_1">
   <g id="patch_2">
    <path d="M 90 270.72 
L 648 270.72 
L 648 69.12 
L 90 69.12 
z
" style="fill: #ffffff"/>
   </g>
   <g id="matplotlib.axis_1">
    <g id="xtick_1">
     <g id="line2d_1">
      <path d="M 115.363636 270.72 
L 115.363636 69.12 
" clip-path="url(#p59a1171397)" style="fill: none; stroke: #b0b0b0; stroke-width: 0.8; stroke-linecap: square"/>
     </g>
     <g id="line2d_2">
      <defs>
       <path id="m08ec632e68" d="M 0 0 
L 0 3.5 
" style="stroke: #000000; stroke-width: 0.8"/>
      </defs>
      <g>
       <use xlink:href="#m08ec632e68" x="115.363636" y="270.72" style="stroke: #000000; stroke-width: 0.8"/>
      </g>
     </g>
     <g id="text_1">
      <!-- 0.0 -->
      <g transform="translate(107.412074 285.318437) scale(0.1 -0.1)">
       <defs>
        <path id="DejaVuSans-30" d="M 2034 4250 
Q 1547 4250 1301 3770 
Q 1056 3291 1056 2328 
Q 1056 1369 1301 889 
Q 1547 409 2034 409 
Q 2525 409 2770 889 
Q 3016 1369 3016 2328 
Q 3016 3291 2770 3770 
Q 2525 4250 2034 4250 
z
M 2034 4750 
Q 2819 4750 3233 4129 
Q 3647 3509 3647 2328 
Q 3647 1150 3233 529 
Q 2819 -91 2034 -91 
Q 1250 -91 836 529 
Q 422 1150 422 2328 
Q 422 3509 836 4129 
Q 1250 4750 2034 4750 
z
" transform="scale(0.015625)"/>
        <path id="DejaVuSans-2e" d="M 684 794 
L 1344 794 
L 1344 0 
L 684 0 
L 684 794 
z
" transform="scale(0.015625)"/>
       </defs>
       <use xlink:href="#DejaVuSans-30"/>
       <use xlink:href="#DejaVuSans-2e" transform="translate(63.623047 0)"/>
       <use xlink:href="#DejaVuSans-30" transform="translate(95.410156 0)"/>
      </g>
     </g>
    </g>
    <g id="xtick_2">
     <g id="line2d_3">
      <path d="M 221.045455 270.72 
L 221.045455 69.12 
" clip-path="url(#p59a1171397)" style="fill: none; stroke: #b0b0b0; stroke-width: 0.8; stroke-linecap: square"/>
     </g>
     <g id="line2d_4">
      <g>
       <use xlink:href="#m08ec632e68" x="221.045455" y="270.72" style="stroke: #000000; stroke-width: 0.8"/>
      </g>
     </g>
     <g id="text_2">
      <!-- 0.5 -->
      <g transform="translate(213.093892 285.318437) scale(0.1 -0.1)">
       <defs>
        <path id="DejaVuSans-35" d="M 691 4666 
L 3169 4666 
L 3169 4134 
L 1269 4134 
L 1269 2991 
Q 1406 3038 1543 3061 
Q 1681 3084 1819 3084 
Q 2600 3084 3056 2656 
Q 3513 2228 3513 1497 
Q 3513 744 3044 326 
Q 2575 -91 1722 -91 
Q 1428 -91 1123 -41 
Q 819 9 494 109 
L 494 744 
Q 775 591 1075 516 
Q 1375 441 1709 441 
Q 2250 441 2565 725 
Q 2881 1009 2881 1497 
Q 2881 1984 2565 2268 
Q 2250 2553 1709 2553 
Q 1456 2553 1204 2497 
Q 953 2441 691 2322 
L 691 4666 
z
" transform="scale(0.015625)"/>
       </defs>
       <use xlink:href="#DejaVuSans-30"/>
       <use xlink:href="#DejaVuSans-2e" transform="translate(63.623047 0)"/>
       <use xlink:href="#DejaVuSans-35" transform="translate(95.410156 0)"/>
      </g>
     </g>
    </g>
    <g id="xtick_3">
     <g id="line2d_5">
      <path d="M 326.727273 270.72 
L 326.727273 69.12 
" clip-path="url(#p59a1171397)" style="fill: none; stroke: #b0b0b0; stroke-width: 0.8; stroke-linecap: square"/>
     </g>
     <g id="line2d_6">
      <g>
       <use xlink:href="#m08ec632e68" x="326.727273" y="270.72" style="stroke: #000000; stroke-width: 0.8"/>
      </g>
     </g>
     <g id="text_3">
      <!-- 1.0 -->
      <g transform="translate(318.77571 285.318437) scale(0.1 -0.1)">
       <defs>
        <path id="DejaVuSans-31" d="M 794 531 
L 1825 531 
L 1825 4091 
L 703 3866 
L 703 4441 
L 1819 4666 
L 2450 4666 
L 2450 531 
L 3481 531 
L 3481 0 
L 794 0 
L 794 531 
z
" transform="scale(0.015625)"/>
       </defs>
       <use xlink:href="#DejaVuSans-31"/>
       <use xlink:href="#DejaVuSans-2e" transform="translate(63.623047 0)"/>
       <use xlink:href="#DejaVuSans-30" transform="translate(95.410156 0)"/>
      </g>
     </g>
    </g>
    <g id="xtick_4">
     <g id="line2d_7">
      <path d="M 432.409091 270.72 
L 432.409091 69.12 
" clip-path="url(#p59a1171397)" style="fill: none; stroke: #b0b0b0; stroke-width: 0.8; stroke-linecap: square"/>
     </g>
     <g id="line2d_8">
      <g>
       <use xlink:href="#m08ec632e68" x="432.409091" y="270.72" style="stroke: #000000; stroke-width: 0.8"/>
      </g>
     </g>
     <g id="text_4">
      <!-- 1.5 -->
      <g transform="translate(424.457528 285.318437) scale(0.1 -0.1)">
       <use xlink:href="#DejaVuSans-31"/>
       <use xlink:href="#DejaVuSans-2e" transform="translate(63.623047 0)"/>
       <use xlink:href="#DejaVuSans-35" transform="translate(95.410156 0)"/>
      </g>
     </g>
    </g>
    <g id="xtick_5">
     <g id="line2d_9">
      <path d="M 538.090909 270.72 
L 538.090909 69.12 
" clip-path="url(#p59a1171397)" style="fill: none; stroke: #b0b0b0; stroke-width: 0.8; stroke-linecap: square"/>
     </g>
     <g id="line2d_10">
      <g>
       <use xlink:href="#m08ec632e68" x="538.090909" y="270.72" style="stroke: #000000; stroke-width: 0.8"/>
      </g>
     </g>
     <g id="text_5">
      <!-- 2.0 -->
      <g transform="translate(530.139347 285.318437) scale(0.1 -0.1)">
       <defs>
        <path id="DejaVuSans-32" d="M 1228 531 
L 3431 531 
L 3431 0 
L 469 0 
L 469 531 
Q 828 903 1448 1529 
Q 2069 2156 2228 2338 
Q 2531 2678 2651 2914 
Q 2772 3150 2772 3378 
Q 2772 3750 2511 3984 
Q 2250 4219 1831 4219 
Q 1534 4219 1204 4116 
Q 875 4013 500 3803 
L 500 4441 
Q 881 4594 1212 4672 
Q 1544 4750 1819 4750 
Q 2544 4750 2975 4387 
Q 3406 4025 3406 3419 
Q 3406 3131 3298 2873 
Q 3191 2616 2906 2266 
Q 2828 2175 2409 1742 
Q 1991 1309 1228 531 
z
" transform="scale(0.015625)"/>
       </defs>
       <use xlink:href="#DejaVuSans-32"/>
       <use xlink:href="#DejaVuSans-2e" transform="translate(63.623047 0)"/>
       <use xlink:href="#DejaVuSans-30" transform="translate(95.410156 0)"/>
      </g>
     </g>
    </g>
    <g id="xtick_6">
     <g id="line2d_11">
      <path d="M 643.772727 270.72 
L 643.772727 69.12 
" clip-path="url(#p59a1171397)" style="fill: none; stroke: #b0b0b0; stroke-width: 0.8; stroke-linecap: square"/>
     </g>
     <g id="line2d_12">
      <g>
       <use xlink:href="#m08ec632e68" x="643.772727" y="270.72" style="stroke: #000000; stroke-width: 0.8"/>
      </g>
     </g>
     <g id="text_6">
      <!-- 2.5 -->
      <g transform="translate(635.821165 285.318437) scale(0.1 -0.1)">
       <use xlink:href="#DejaVuSans-32"/>
       <use xlink:href="#DejaVuSans-2e" transform="translate(63.623047 0)"/>
       <use xlink:href="#DejaVuSans-35" transform="translate(95.410156 0)"/>
      </g>
     </g>
    </g>
   </g>
   <g id="matplotlib.axis_2">
    <g id="ytick_1">
     <g id="line2d_13">
      <path d="M 90 245.121915 
L 648 245.121915 
" clip-path="url(#p59a1171397)" style="fill: none; stroke: #b0b0b0; stroke-width: 0.8; stroke-linecap: square"/>
     </g>
     <g id="line2d_14">
      <defs>
       <path id="mcbb632b76e" d="M 0 0 
L -3.5 0 
" style="stroke: #000000; stroke-width: 0.8"/>
      </defs>
      <g>
       <use xlink:href="#mcbb632b76e" x="90" y="245.121915" style="stroke: #000000; stroke-width: 0.8"/>
      </g>
     </g>
     <g id="text_7">
      <!-- 0.0 -->
      <g transform="translate(67.096875 248.921133) scale(0.1 -0.1)">
       <use xlink:href="#DejaVuSans-30"/>
       <use xlink:href="#DejaVuSans-2e" transform="translate(63.623047 0)"/>
       <use xlink:href="#DejaVuSans-30" transform="translate(95.410156 0)"/>
      </g>
     </g>
    </g>
    <g id="ytick_2">
     <g id="line2d_15">
      <path d="M 90 215.122933 
L 648 215.122933 
" clip-path="url(#p59a1171397)" style="fill: none; stroke: #b0b0b0; stroke-width: 0.8; stroke-linecap: square"/>
     </g>
     <g id="line2d_16">
      <g>
       <use xlink:href="#mcbb632b76e" x="90" y="215.122933" style="stroke: #000000; stroke-width: 0.8"/>
      </g>
     </g>
     <g id="text_8">
      <!-- 0.2 -->
      <g transform="translate(67.096875 218.922152) scale(0.1 -0.1)">
       <use xlink:href="#DejaVuSans-30"/>
       <use xlink:href="#DejaVuSans-2e" transform="translate(63.623047 0)"/>
       <use xlink:href="#DejaVuSans-32" transform="translate(95.410156 0)"/>
      </g>
     </g>
    </g>
    <g id="ytick_3">
     <g id="line2d_17">
      <path d="M 90 185.123951 
L 648 185.123951 
" clip-path="url(#p59a1171397)" style="fill: none; stroke: #b0b0b0; stroke-width: 0.8; stroke-linecap: square"/>
     </g>
     <g id="line2d_18">
      <g>
       <use xlink:href="#mcbb632b76e" x="90" y="185.123951" style="stroke: #000000; stroke-width: 0.8"/>
      </g>
     </g>
     <g id="text_9">
      <!-- 0.4 -->
      <g transform="translate(67.096875 188.92317) scale(0.1 -0.1)">
       <defs>
        <path id="DejaVuSans-34" d="M 2419 4116 
L 825 1625 
L 2419 1625 
L 2419 4116 
z
M 2253 4666 
L 3047 4666 
L 3047 1625 
L 3713 1625 
L 3713 1100 
L 3047 1100 
L 3047 0 
L 2419 0 
L 2419 1100 
L 313 1100 
L 313 1709 
L 2253 4666 
z
" transform="scale(0.015625)"/>
       </defs>
       <use xlink:href="#DejaVuSans-30"/>
       <use xlink:href="#DejaVuSans-2e" transform="translate(63.623047 0)"/>
       <use xlink:href="#DejaVuSans-34" transform="translate(95.410156 0)"/>
      </g>
     </g>
    </g>
    <g id="ytick_4">
     <g id="line2d_19">
      <path d="M 90 155.124969 
L 648 155.124969 
" clip-path="url(#p59a1171397)" style="fill: none; stroke: #b0b0b0; stroke-width: 0.8; stroke-linecap: square"/>
     </g>
     <g id="line2d_20">
      <g>
       <use xlink:href="#mcbb632b76e" x="90" y="155.124969" style="stroke: #000000; stroke-width: 0.8"/>
      </g>
     </g>
     <g id="text_10">
      <!-- 0.6 -->
      <g transform="translate(67.096875 158.924188) scale(0.1 -0.1)">
       <defs>
        <path id="DejaVuSans-36" d="M 2113 2584 
Q 1688 2584 1439 2293 
Q 1191 2003 1191 1497 
Q 1191 994 1439 701 
Q 1688 409 2113 409 
Q 2538 409 2786 701 
Q 3034 994 3034 1497 
Q 3034 2003 2786 2293 
Q 2538 2584 2113 2584 
z
M 3366 4563 
L 3366 3988 
Q 3128 4100 2886 4159 
Q 2644 4219 2406 4219 
Q 1781 4219 1451 3797 
Q 1122 3375 1075 2522 
Q 1259 2794 1537 2939 
Q 1816 3084 2150 3084 
Q 2853 3084 3261 2657 
Q 3669 2231 3669 1497 
Q 3669 778 3244 343 
Q 2819 -91 2113 -91 
Q 1303 -91 875 529 
Q 447 1150 447 2328 
Q 447 3434 972 4092 
Q 1497 4750 2381 4750 
Q 2619 4750 2861 4703 
Q 3103 4656 3366 4563 
z
" transform="scale(0.015625)"/>
       </defs>
       <use xlink:href="#DejaVuSans-30"/>
       <use xlink:href="#DejaVuSans-2e" transform="translate(63.623047 0)"/>
       <use xlink:href="#DejaVuSans-36" transform="translate(95.410156 0)"/>
      </g>
     </g>
    </g>
    <g id="ytick_5">
     <g id="line2d_21">
      <path d="M 90 125.125988 
L 648 125.125988 
" clip-path="url(#p59a1171397)" style="fill: none; stroke: #b0b0b0; stroke-width: 0.8; stroke-linecap: square"/>
     </g>
     <g id="line2d_22">
      <g>
       <use xlink:href="#mcbb632b76e" x="90" y="125.125988" style="stroke: #000000; stroke-width: 0.8"/>
      </g>
     </g>
     <g id="text_11">
      <!-- 0.8 -->
      <g transform="translate(67.096875 128.925206) scale(0.1 -0.1)">
       <defs>
        <path id="DejaVuSans-38" d="M 2034 2216 
Q 1584 2216 1326 1975 
Q 1069 1734 1069 1313 
Q 1069 891 1326 650 
Q 1584 409 2034 409 
Q 2484 409 2743 651 
Q 3003 894 3003 1313 
Q 3003 1734 2745 1975 
Q 2488 2216 2034 2216 
z
M 1403 2484 
Q 997 2584 770 2862 
Q 544 3141 544 3541 
Q 544 4100 942 4425 
Q 1341 4750 2034 4750 
Q 2731 4750 3128 4425 
Q 3525 4100 3525 3541 
Q 3525 3141 3298 2862 
Q 3072 2584 2669 2484 
Q 3125 2378 3379 2068 
Q 3634 1759 3634 1313 
Q 3634 634 3220 271 
Q 2806 -91 2034 -91 
Q 1263 -91 848 271 
Q 434 634 434 1313 
Q 434 1759 690 2068 
Q 947 2378 1403 2484 
z
M 1172 3481 
Q 1172 3119 1398 2916 
Q 1625 2713 2034 2713 
Q 2441 2713 2670 2916 
Q 2900 3119 2900 3481 
Q 2900 3844 2670 4047 
Q 2441 4250 2034 4250 
Q 1625 4250 1398 4047 
Q 1172 3844 1172 3481 
z
" transform="scale(0.015625)"/>
       </defs>
       <use xlink:href="#DejaVuSans-30"/>
       <use xlink:href="#DejaVuSans-2e" transform="translate(63.623047 0)"/>
       <use xlink:href="#DejaVuSans-38" transform="translate(95.410156 0)"/>
      </g>
     </g>
    </g>
    <g id="ytick_6">
     <g id="line2d_23">
      <path d="M 90 95.127006 
L 648 95.127006 
" clip-path="url(#p59a1171397)" style="fill: none; stroke: #b0b0b0; stroke-width: 0.8; stroke-linecap: square"/>
     </g>
     <g id="line2d_24">
      <g>
       <use xlink:href="#mcbb632b76e" x="90" y="95.127006" style="stroke: #000000; stroke-width: 0.8"/>
      </g>
     </g>
     <g id="text_12">
      <!-- 1.0 -->
      <g transform="translate(67.096875 98.926225) scale(0.1 -0.1)">
       <use xlink:href="#DejaVuSans-31"/>
       <use xlink:href="#DejaVuSans-2e" transform="translate(63.623047 0)"/>
       <use xlink:href="#DejaVuSans-30" transform="translate(95.410156 0)"/>
      </g>
     </g>
    </g>
    <g id="text_13">
     <!-- Position (m) -->
     <g transform="translate(61.017187 199.745) rotate(-90) scale(0.1 -0.1)">
      <defs>
       <path id="DejaVuSans-50" d="M 1259 4147 
L 1259 2394 
L 2053 2394 
Q 2494 2394 2734 2622 
Q 2975 2850 2975 3272 
Q 2975 3691 2734 3919 
Q 2494 4147 2053 4147 
L 1259 4147 
z
M 628 4666 
L 2053 4666 
Q 2838 4666 3239 4311 
Q 3641 3956 3641 3272 
Q 3641 2581 3239 2228 
Q 2838 1875 2053 1875 
L 1259 1875 
L 1259 0 
L 628 0 
L 628 4666 
z
" transform="scale(0.015625)"/>
       <path id="DejaVuSans-6f" d="M 1959 3097 
Q 1497 3097 1228 2736 
Q 959 2375 959 1747 
Q 959 1119 1226 758 
Q 1494 397 1959 397 
Q 2419 397 2687 759 
Q 2956 1122 2956 1747 
Q 2956 2369 2687 2733 
Q 2419 3097 1959 3097 
z
M 1959 3584 
Q 2709 3584 3137 3096 
Q 3566 2609 3566 1747 
Q 3566 888 3137 398 
Q 2709 -91 1959 -91 
Q 1206 -91 779 398 
Q 353 888 353 1747 
Q 353 2609 779 3096 
Q 1206 3584 1959 3584 
z
" transform="scale(0.015625)"/>
       <path id="DejaVuSans-73" d="M 2834 3397 
L 2834 2853 
Q 2591 2978 2328 3040 
Q 2066 3103 1784 3103 
Q 1356 3103 1142 2972 
Q 928 2841 928 2578 
Q 928 2378 1081 2264 
Q 1234 2150 1697 2047 
L 1894 2003 
Q 2506 1872 2764 1633 
Q 3022 1394 3022 966 
Q 3022 478 2636 193 
Q 2250 -91 1575 -91 
Q 1294 -91 989 -36 
Q 684 19 347 128 
L 347 722 
Q 666 556 975 473 
Q 1284 391 1588 391 
Q 1994 391 2212 530 
Q 2431 669 2431 922 
Q 2431 1156 2273 1281 
Q 2116 1406 1581 1522 
L 1381 1569 
Q 847 1681 609 1914 
Q 372 2147 372 2553 
Q 372 3047 722 3315 
Q 1072 3584 1716 3584 
Q 2034 3584 2315 3537 
Q 2597 3491 2834 3397 
z
" transform="scale(0.015625)"/>
       <path id="DejaVuSans-69" d="M 603 3500 
L 1178 3500 
L 1178 0 
L 603 0 
L 603 3500 
z
M 603 4863 
L 1178 4863 
L 1178 4134 
L 603 4134 
L 603 4863 
z
" transform="scale(0.015625)"/>
       <path id="DejaVuSans-74" d="M 1172 4494 
L 1172 3500 
L 2356 3500 
L 2356 3053 
L 1172 3053 
L 1172 1153 
Q 1172 725 1289 603 
Q 1406 481 1766 481 
L 2356 481 
L 2356 0 
L 1766 0 
Q 1100 0 847 248 
Q 594 497 594 1153 
L 594 3053 
L 172 3053 
L 172 3500 
L 594 3500 
L 594 4494 
L 1172 4494 
z
" transform="scale(0.015625)"/>
       <path id="DejaVuSans-6e" d="M 3513 2113 
L 3513 0 
L 2938 0 
L 2938 2094 
Q 2938 2591 2744 2837 
Q 2550 3084 2163 3084 
Q 1697 3084 1428 2787 
Q 1159 2491 1159 1978 
L 1159 0 
L 581 0 
L 581 3500 
L 1159 3500 
L 1159 2956 
Q 1366 3272 1645 3428 
Q 1925 3584 2291 3584 
Q 2894 3584 3203 3211 
Q 3513 2838 3513 2113 
z
" transform="scale(0.015625)"/>
       <path id="DejaVuSans-20" transform="scale(0.015625)"/>
       <path id="DejaVuSans-28" d="M 1984 4856 
Q 1566 4138 1362 3434 
Q 1159 2731 1159 2009 
Q 1159 1288 1364 580 
Q 1569 -128 1984 -844 
L 1484 -844 
Q 1016 -109 783 600 
Q 550 1309 550 2009 
Q 550 2706 781 3412 
Q 1013 4119 1484 4856 
L 1984 4856 
z
" transform="scale(0.015625)"/>
       <path id="DejaVuSans-6d" d="M 3328 2828 
Q 3544 3216 3844 3400 
Q 4144 3584 4550 3584 
Q 5097 3584 5394 3201 
Q 5691 2819 5691 2113 
L 5691 0 
L 5113 0 
L 5113 2094 
Q 5113 2597 4934 2840 
Q 4756 3084 4391 3084 
Q 3944 3084 3684 2787 
Q 3425 2491 3425 1978 
L 3425 0 
L 2847 0 
L 2847 2094 
Q 2847 2600 2669 2842 
Q 2491 3084 2119 3084 
Q 1678 3084 1418 2786 
Q 1159 2488 1159 1978 
L 1159 0 
L 581 0 
L 581 3500 
L 1159 3500 
L 1159 2956 
Q 1356 3278 1631 3431 
Q 1906 3584 2284 3584 
Q 2666 3584 2933 3390 
Q 3200 3197 3328 2828 
z
" transform="scale(0.015625)"/>
       <path id="DejaVuSans-29" d="M 513 4856 
L 1013 4856 
Q 1481 4119 1714 3412 
Q 1947 2706 1947 2009 
Q 1947 1309 1714 600 
Q 1481 -109 1013 -844 
L 513 -844 
Q 928 -128 1133 580 
Q 1338 1288 1338 2009 
Q 1338 2731 1133 3434 
Q 928 4138 513 4856 
z
" transform="scale(0.015625)"/>
      </defs>
      <use xlink:href="#DejaVuSans-50"/>
      <use xlink:href="#DejaVuSans-6f" transform="translate(56.677734 0)"/>
      <use xlink:href="#DejaVuSans-73" transform="translate(117.859375 0)"/>
      <use xlink:href="#DejaVuSans-69" transform="translate(169.958984 0)"/>
      <use xlink:href="#DejaVuSans-74" transform="translate(197.742188 0)"/>
      <use xlink:href="#DejaVuSans-69" transform="translate(236.951172 0)"/>
      <use xlink:href="#DejaVuSans-6f" transform="translate(264.734375 0)"/>
      <use xlink:href="#DejaVuSans-6e" transform="translate(325.916016 0)"/>
      <use xlink:href="#DejaVuSans-20" transform="translate(389.294922 0)"/>
      <use xlink:href="#DejaVuSans-28" transform="translate(421.082031 0)"/>
      <use xlink:href="#DejaVuSans-6d" transform="translate(460.095703 0)"/>
      <use xlink:href="#DejaVuSans-29" transform="translate(557.507812 0)"/>
     </g>
    </g>
   </g>
   <g id="line2d_25">
    <path d="M 115.363636 245.121915 
L 158.157901 245.054181 
L 158.83449 244.784852 
L 159.680227 244.159624 
L 160.525963 243.213765 
L 161.3717 241.947276 
L 162.386583 240.004258 
L 163.401467 237.599532 
L 164.585498 234.210472 
L 165.938677 229.567749 
L 167.291855 224.104212 
L 169.152475 215.468266 
L 190.803328 113.481475 
L 192.156507 108.402694 
L 193.509685 104.144727 
L 194.693716 101.092329 
L 195.877747 98.668365 
L 196.892631 97.090865 
L 197.738367 96.128975 
L 198.584104 95.487715 
L 199.260693 95.20556 
L 200.106429 95.127006 
L 242.731547 95.217183 
L 243.408136 95.512163 
L 244.253873 96.169454 
L 245.099609 97.147376 
L 245.945345 98.445928 
L 246.960229 100.427422 
L 248.14426 103.322711 
L 249.328291 106.846436 
L 250.68147 111.643062 
L 252.034648 117.260501 
L 254.40271 128.384135 
L 275.207827 226.422768 
L 276.730152 232.136396 
L 278.083331 236.343063 
L 279.267362 239.350573 
L 280.451393 241.729648 
L 281.466277 243.268673 
L 282.312013 244.1985 
L 283.15775 244.807697 
L 283.834339 245.064201 
L 284.680075 245.121915 
L 327.305193 245.054181 
L 327.981782 244.784852 
L 328.827518 244.159624 
L 329.673255 243.213765 
L 330.518991 241.947276 
L 331.533875 240.004258 
L 332.548759 237.599532 
L 333.73279 234.210472 
L 335.085968 229.567749 
L 336.439146 224.104212 
L 338.299767 215.468266 
L 359.95062 113.481475 
L 361.303798 108.402694 
L 362.656977 104.144727 
L 363.841008 101.092329 
L 365.025039 98.668365 
L 366.039922 97.090865 
L 366.885659 96.128975 
L 367.731395 95.487715 
L 368.407984 95.20556 
L 369.253721 95.127006 
L 411.878838 95.217183 
L 412.555428 95.512163 
L 413.401164 96.169454 
L 414.2469 97.147376 
L 415.092637 98.445928 
L 416.107521 100.427422 
L 417.291552 103.322711 
L 418.475583 106.846436 
L 419.828761 111.643062 
L 421.181939 117.260501 
L 423.550002 128.384135 
L 444.355118 226.422768 
L 445.877444 232.136396 
L 447.230622 236.343063 
L 448.414653 239.350573 
L 449.598684 241.729648 
L 450.613568 243.268673 
L 451.459305 244.1985 
L 452.305041 244.807697 
L 452.98163 245.064201 
L 453.827367 245.121915 
L 496.452484 245.054181 
L 497.129073 244.784852 
L 497.97481 244.159624 
L 498.820546 243.213765 
L 499.666283 241.947276 
L 500.681166 240.004258 
L 501.69605 237.599532 
L 502.880081 234.210472 
L 504.23326 229.567749 
L 505.586438 224.104212 
L 507.447058 215.468266 
L 529.097911 113.481475 
L 530.45109 108.402694 
L 531.804268 104.144727 
L 532.988299 101.092329 
L 534.17233 98.668365 
L 535.187214 97.090865 
L 536.03295 96.128975 
L 536.878687 95.487715 
L 537.555276 95.20556 
L 538.401012 95.127006 
L 581.02613 95.217183 
L 581.702719 95.512163 
L 582.548456 96.169454 
L 583.394192 97.147376 
L 584.239928 98.445928 
L 585.254812 100.427422 
L 586.438843 103.322711 
L 587.622874 106.846436 
L 588.976053 111.643062 
L 590.329231 117.260501 
L 592.697293 128.384135 
L 613.50241 226.422768 
L 615.024736 232.136396 
L 616.377914 236.343063 
L 617.561945 239.350573 
L 618.745976 241.729648 
L 619.76086 243.268673 
L 620.606596 244.1985 
L 621.452333 244.807697 
L 622.128922 245.064201 
L 622.636364 245.121915 
L 622.636364 245.121915 
" clip-path="url(#p59a1171397)" style="fill: none; stroke-dasharray: 5.55,2.4; stroke-dashoffset: 0; stroke: #000000; stroke-width: 1.5"/>
   </g>
   <g id="line2d_26">
    <path d="M 115.363636 245.121915 
L 158.157901 245.017518 
L 158.83449 244.709666 
L 159.680227 244.041038 
L 160.525963 243.056063 
L 161.3717 241.755924 
L 162.386583 239.776157 
L 163.570614 236.892835 
L 164.754645 233.392513 
L 166.107824 228.613956 
L 167.630149 222.249407 
L 171.689684 203.640639 
L 180.823638 160.986626 
L 191.141623 112.880104 
L 192.494801 108.004618 
L 193.84798 103.96898 
L 195.032011 101.106665 
L 196.046894 99.150949 
L 197.061778 97.654474 
L 197.907515 96.75758 
L 198.753251 96.178027 
L 199.42984 95.942036 
L 200.275577 95.89381 
L 216.006275 95.620125 
L 238.841159 95.305003 
L 242.731547 95.336013 
L 243.408136 95.603028 
L 244.084725 96.078204 
L 244.930462 96.963647 
L 245.776198 98.168748 
L 246.791082 100.04159 
L 247.805966 102.373566 
L 248.989997 105.67988 
L 250.343175 110.232467 
L 251.696353 115.627703 
L 254.741005 129.103237 
L 260.66116 156.162259 
L 268.78023 194.383297 
L 275.376974 225.231836 
L 276.730152 230.253207 
L 278.083331 234.475353 
L 279.267362 237.502823 
L 280.451393 239.907238 
L 281.466277 241.47662 
L 282.312013 242.436384 
L 283.15775 243.076461 
L 283.834339 243.355863 
L 284.849222 243.470283 
L 294.490618 244.068748 
L 305.316045 244.510034 
L 318.678681 244.82042 
L 327.136045 244.870852 
L 327.812635 244.612236 
L 328.658371 244.010491 
L 329.504107 243.096053 
L 330.349844 241.865616 
L 331.364728 239.965138 
L 332.379611 237.604179 
L 333.563642 234.271645 
L 334.916821 229.707715 
L 336.269999 224.343283 
L 338.130619 215.890555 
L 354.707054 138.135764 
L 360.119767 112.980216 
L 361.472946 107.906273 
L 362.826124 103.671619 
L 364.010155 100.650187 
L 365.194186 98.265002 
L 366.20907 96.728237 
L 367.054806 95.805602 
L 367.900543 95.206207 
L 368.577132 94.959384 
L 369.422868 94.902474 
L 378.895117 94.839895 
L 404.26721 94.992038 
L 411.709691 95.119722 
L 412.38628 95.395662 
L 413.062869 95.893382 
L 413.908606 96.799573 
L 414.754342 98.018188 
L 415.769226 99.897671 
L 416.78411 102.23473 
L 417.968141 105.534287 
L 419.152172 109.45677 
L 420.50535 114.737804 
L 422.704265 124.408416 
L 429.639304 156.045473 
L 438.265816 196.621497 
L 443.171087 219.764165 
L 445.031708 227.435642 
L 446.554033 232.770532 
L 447.738064 236.138523 
L 448.922095 238.797778 
L 449.936979 240.597687 
L 450.951863 241.955372 
L 451.797599 242.747267 
L 452.643336 243.227647 
L 453.319925 243.385313 
L 467.190003 244.0619 
L 480.721786 244.545731 
L 495.775895 244.851548 
L 496.452484 244.789604 
L 497.129073 244.524955 
L 497.805662 244.054249 
L 498.651399 243.176325 
L 499.497135 241.976044 
L 500.512019 240.108617 
L 501.526903 237.78273 
L 502.710934 234.485553 
L 504.064112 229.952842 
L 505.417291 224.606972 
L 506.939616 217.567929 
L 517.93419 163.892149 
L 527.744733 117.663438 
L 529.436206 110.747407 
L 530.789384 106.160909 
L 532.142563 102.37412 
L 533.326594 99.701654 
L 534.341477 97.890439 
L 535.356361 96.525675 
L 536.202098 95.732712 
L 537.047834 95.256128 
L 537.724423 95.101543 
L 538.739307 95.163351 
L 543.306284 95.475427 
L 549.226439 95.642053 
L 558.022098 95.644237 
L 581.364425 95.538677 
L 582.041014 95.883216 
L 582.717603 96.455469 
L 583.563339 97.470948 
L 584.409076 98.800699 
L 585.42396 100.82494 
L 586.438843 103.320373 
L 587.622874 106.822743 
L 588.976053 111.608393 
L 590.329231 117.219648 
L 596.249386 144.026148 
L 604.199309 181.147825 
L 613.333263 223.790087 
L 614.855588 229.330807 
L 616.208767 233.452397 
L 617.392798 236.433479 
L 618.576829 238.821321 
L 619.591712 240.389449 
L 620.437449 241.354411 
L 621.283185 242.006617 
L 622.128922 242.349774 
L 622.636364 242.408749 
L 622.636364 242.408749 
" clip-path="url(#p59a1171397)" style="fill: none; stroke: #0000ff; stroke-width: 1.5; stroke-linecap: square"/>
   </g>
   <g id="line2d_27">
    <path d="M 115.363636 245.121915 
L 159.680227 245.033424 
L 161.033405 244.742029 
L 162.217436 244.23225 
L 163.23232 243.554164 
L 164.247204 242.61711 
L 165.262087 241.38568 
L 166.276971 239.828734 
L 167.461002 237.562789 
L 168.645033 234.77758 
L 169.998212 230.983439 
L 171.520537 226.031853 
L 173.381157 219.152899 
L 175.580072 210.079896 
L 178.117282 198.622416 
L 181.33108 183.004058 
L 185.72891 160.399028 
L 194.355422 115.683375 
L 196.385189 106.675096 
L 198.076662 100.117841 
L 199.598988 95.114834 
L 200.952166 91.401842 
L 202.305344 88.352018 
L 203.489375 86.179147 
L 204.842554 84.17699 
L 206.195732 82.568132 
L 207.54891 81.299628 
L 208.902089 80.34444 
L 210.255267 79.660221 
L 211.608445 79.207847 
L 213.130771 78.931487 
L 214.822244 78.859339 
L 216.682864 79.006052 
L 218.881779 79.418934 
L 221.418988 80.129471 
L 224.971081 81.378403 
L 231.90612 84.11991 
L 238.16457 86.481895 
L 245.268756 89.107879 
L 246.452787 89.913064 
L 247.636818 90.997107 
L 248.820849 92.41762 
L 250.00488 94.225198 
L 251.188911 96.463417 
L 252.372942 99.168834 
L 253.726121 102.864753 
L 255.248446 107.739984 
L 256.939919 113.923325 
L 258.969687 122.227543 
L 261.337749 132.874567 
L 264.3824 147.645091 
L 268.441935 168.548609 
L 274.531238 201.213017 
L 277.914184 218.935443 
L 280.113098 229.354942 
L 281.973719 237.10694 
L 283.496044 242.55366 
L 284.849222 246.656087 
L 286.202401 250.062206 
L 287.555579 252.86788 
L 288.908757 255.149996 
L 290.261936 256.97519 
L 291.615114 258.40512 
L 292.968292 259.496461 
L 294.321471 260.300912 
L 295.674649 260.862736 
L 297.196975 261.245324 
L 298.7193 261.404985 
L 300.410773 261.368262 
L 302.440541 261.091281 
L 304.808603 260.532857 
L 307.684107 259.619828 
L 312.081936 257.956116 
L 323.245658 253.647448 
L 330.011549 251.190251 
L 331.19558 250.401592 
L 332.379611 249.316549 
L 333.563642 247.879218 
L 334.747673 246.047015 
L 335.931705 243.772635 
L 337.115736 241.018317 
L 338.468914 237.257214 
L 339.99124 232.30515 
L 341.682712 226.042817 
L 343.71248 217.668212 
L 346.249689 206.179556 
L 349.294341 191.290582 
L 353.69217 168.555923 
L 358.597442 142.036282 
L 362.656977 120.409593 
L 364.686744 110.724476 
L 366.378217 103.592087 
L 367.900543 98.017534 
L 369.422868 93.295411 
L 370.776047 89.818874 
L 372.129225 86.954997 
L 373.482403 84.626319 
L 374.835582 82.765554 
L 376.18876 81.310254 
L 377.541938 80.202808 
L 378.895117 79.390443 
L 380.248295 78.826095 
L 381.770621 78.445036 
L 383.292946 78.29133 
L 384.984419 78.339042 
L 387.014187 78.634398 
L 389.382249 79.21988 
L 392.257753 80.170068 
L 396.486435 81.824632 
L 407.819303 86.34444 
L 414.2469 88.761075 
L 415.430932 89.529955 
L 416.614963 90.573731 
L 417.798994 91.954328 
L 418.983025 93.715408 
L 420.167056 95.902622 
L 421.351087 98.568192 
L 422.704265 102.229266 
L 424.226591 107.095028 
L 425.918064 113.273048 
L 427.947831 121.567863 
L 430.315893 132.20207 
L 433.360544 146.957072 
L 437.250932 166.973043 
L 443.340235 199.611019 
L 447.230622 220.080544 
L 449.429537 230.408445 
L 451.12101 237.394494 
L 452.643336 242.82227 
L 453.996514 246.911758 
L 455.349692 250.307518 
L 456.702871 253.098616 
L 458.056049 255.367326 
L 459.409227 257.180579 
L 460.762406 258.600009 
L 462.115584 259.681958 
L 463.468762 260.477467 
L 464.821941 261.029391 
L 466.344266 261.400679 
L 467.866592 261.549354 
L 469.558065 261.50121 
L 471.587832 261.212081 
L 473.955894 260.640802 
L 477.000546 259.652973 
L 481.567523 257.895574 
L 491.885507 253.869846 
L 499.158841 251.179191 
L 500.342872 250.381692 
L 501.526903 249.297833 
L 502.710934 247.870809 
L 503.894965 246.04193 
L 505.078996 243.753189 
L 506.263027 240.972787 
L 507.616205 237.187221 
L 509.138531 232.212792 
L 510.999151 225.272181 
L 513.198066 216.086854 
L 515.735275 204.479664 
L 518.949074 188.647552 
L 523.346904 165.709691 
L 532.819152 115.870668 
L 534.679772 107.583294 
L 536.371245 100.994739 
L 537.893571 95.913448 
L 539.246749 92.089506 
L 540.599927 88.89826 
L 541.953106 86.289486 
L 543.306284 84.183087 
L 544.659462 82.506174 
L 546.012641 81.203162 
L 547.365819 80.222866 
L 548.718997 79.518432 
L 550.072176 79.047339 
L 551.594501 78.750124 
L 553.285974 78.661685 
L 555.146594 78.802436 
L 557.345509 79.21475 
L 559.882718 79.92422 
L 563.265664 81.116613 
L 569.693261 83.680714 
L 576.6283 86.356517 
L 583.055897 88.782776 
L 584.409076 89.624865 
L 585.593107 90.621406 
L 586.777138 91.935656 
L 587.961169 93.632844 
L 589.1452 95.765608 
L 590.329231 98.373997 
L 591.682409 101.972061 
L 593.035588 106.234999 
L 594.727061 112.316843 
L 596.756828 120.510887 
L 599.12489 131.040136 
L 602.169541 145.672767 
L 605.890782 164.697523 
L 611.472642 194.511698 
L 616.208767 219.615459 
L 618.238534 229.253205 
L 620.099154 237.053765 
L 621.62148 242.565011 
L 622.636364 245.749979 
L 622.636364 245.749979 
" clip-path="url(#p59a1171397)" style="fill: none; stroke: #ff0000; stroke-width: 1.5; stroke-linecap: square"/>
   </g>
   <g id="patch_3">
    <path d="M 90 270.72 
L 90 69.12 
" style="fill: none; stroke: #000000; stroke-width: 0.8; stroke-linejoin: miter; stroke-linecap: square"/>
   </g>
   <g id="patch_4">
    <path d="M 648 270.72 
L 648 69.12 
" style="fill: none; stroke: #000000; stroke-width: 0.8; stroke-linejoin: miter; stroke-linecap: square"/>
   </g>
   <g id="patch_5">
    <path d="M 90 270.72 
L 648 270.72 
" style="fill: none; stroke: #000000; stroke-width: 0.8; stroke-linejoin: miter; stroke-linecap: square"/>
   </g>
   <g id="patch_6">
    <path d="M 90 69.12 
L 648 69.12 
" style="fill: none; stroke: #000000; stroke-width: 0.8; stroke-linejoin: miter; stroke-linecap: square"/>
   </g>
   <g id="text_14">
    <!-- Position Tracking (LQR) -->
    <g transform="translate(299.937187 63.12) scale(0.12 -0.12)">
     <defs>
      <path id="DejaVuSans-54" d="M -19 4666 
L 3928 4666 
L 3928 4134 
L 2272 4134 
L 2272 0 
L 1638 0 
L 1638 4134 
L -19 4134 
L -19 4666 
z
" transform="scale(0.015625)"/>
      <path id="DejaVuSans-72" d="M 2631 2963 
Q 2534 3019 2420 3045 
Q 2306 3072 2169 3072 
Q 1681 3072 1420 2755 
Q 1159 2438 1159 1844 
L 1159 0 
L 581 0 
L 581 3500 
L 1159 3500 
L 1159 2956 
Q 1341 3275 1631 3429 
Q 1922 3584 2338 3584 
Q 2397 3584 2469 3576 
Q 2541 3569 2628 3553 
L 2631 2963 
z
" transform="scale(0.015625)"/>
      <path id="DejaVuSans-61" d="M 2194 1759 
Q 1497 1759 1228 1600 
Q 959 1441 959 1056 
Q 959 750 1161 570 
Q 1363 391 1709 391 
Q 2188 391 2477 730 
Q 2766 1069 2766 1631 
L 2766 1759 
L 2194 1759 
z
M 3341 1997 
L 3341 0 
L 2766 0 
L 2766 531 
Q 2569 213 2275 61 
Q 1981 -91 1556 -91 
Q 1019 -91 701 211 
Q 384 513 384 1019 
Q 384 1609 779 1909 
Q 1175 2209 1959 2209 
L 2766 2209 
L 2766 2266 
Q 2766 2663 2505 2880 
Q 2244 3097 1772 3097 
Q 1472 3097 1187 3025 
Q 903 2953 641 2809 
L 641 3341 
Q 956 3463 1253 3523 
Q 1550 3584 1831 3584 
Q 2591 3584 2966 3190 
Q 3341 2797 3341 1997 
z
" transform="scale(0.015625)"/>
      <path id="DejaVuSans-63" d="M 3122 3366 
L 3122 2828 
Q 2878 2963 2633 3030 
Q 2388 3097 2138 3097 
Q 1578 3097 1268 2742 
Q 959 2388 959 1747 
Q 959 1106 1268 751 
Q 1578 397 2138 397 
Q 2388 397 2633 464 
Q 2878 531 3122 666 
L 3122 134 
Q 2881 22 2623 -34 
Q 2366 -91 2075 -91 
Q 1284 -91 818 406 
Q 353 903 353 1747 
Q 353 2603 823 3093 
Q 1294 3584 2113 3584 
Q 2378 3584 2631 3529 
Q 2884 3475 3122 3366 
z
" transform="scale(0.015625)"/>
      <path id="DejaVuSans-6b" d="M 581 4863 
L 1159 4863 
L 1159 1991 
L 2875 3500 
L 3609 3500 
L 1753 1863 
L 3688 0 
L 2938 0 
L 1159 1709 
L 1159 0 
L 581 0 
L 581 4863 
z
" transform="scale(0.015625)"/>
      <path id="DejaVuSans-67" d="M 2906 1791 
Q 2906 2416 2648 2759 
Q 2391 3103 1925 3103 
Q 1463 3103 1205 2759 
Q 947 2416 947 1791 
Q 947 1169 1205 825 
Q 1463 481 1925 481 
Q 2391 481 2648 825 
Q 2906 1169 2906 1791 
z
M 3481 434 
Q 3481 -459 3084 -895 
Q 2688 -1331 1869 -1331 
Q 1566 -1331 1297 -1286 
Q 1028 -1241 775 -1147 
L 775 -588 
Q 1028 -725 1275 -790 
Q 1522 -856 1778 -856 
Q 2344 -856 2625 -561 
Q 2906 -266 2906 331 
L 2906 616 
Q 2728 306 2450 153 
Q 2172 0 1784 0 
Q 1141 0 747 490 
Q 353 981 353 1791 
Q 353 2603 747 3093 
Q 1141 3584 1784 3584 
Q 2172 3584 2450 3431 
Q 2728 3278 2906 2969 
L 2906 3500 
L 3481 3500 
L 3481 434 
z
" transform="scale(0.015625)"/>
      <path id="DejaVuSans-4c" d="M 628 4666 
L 1259 4666 
L 1259 531 
L 3531 531 
L 3531 0 
L 628 0 
L 628 4666 
z
" transform="scale(0.015625)"/>
      <path id="DejaVuSans-51" d="M 2522 4238 
Q 1834 4238 1429 3725 
Q 1025 3213 1025 2328 
Q 1025 1447 1429 934 
Q 1834 422 2522 422 
Q 3209 422 3611 934 
Q 4013 1447 4013 2328 
Q 4013 3213 3611 3725 
Q 3209 4238 2522 4238 
z
M 3406 84 
L 4238 -825 
L 3475 -825 
L 2784 -78 
Q 2681 -84 2626 -87 
Q 2572 -91 2522 -91 
Q 1538 -91 948 567 
Q 359 1225 359 2328 
Q 359 3434 948 4092 
Q 1538 4750 2522 4750 
Q 3503 4750 4090 4092 
Q 4678 3434 4678 2328 
Q 4678 1516 4351 937 
Q 4025 359 3406 84 
z
" transform="scale(0.015625)"/>
      <path id="DejaVuSans-52" d="M 2841 2188 
Q 3044 2119 3236 1894 
Q 3428 1669 3622 1275 
L 4263 0 
L 3584 0 
L 2988 1197 
Q 2756 1666 2539 1819 
Q 2322 1972 1947 1972 
L 1259 1972 
L 1259 0 
L 628 0 
L 628 4666 
L 2053 4666 
Q 2853 4666 3247 4331 
Q 3641 3997 3641 3322 
Q 3641 2881 3436 2590 
Q 3231 2300 2841 2188 
z
M 1259 4147 
L 1259 2491 
L 2053 2491 
Q 2509 2491 2742 2702 
Q 2975 2913 2975 3322 
Q 2975 3731 2742 3939 
Q 2509 4147 2053 4147 
L 1259 4147 
z
" transform="scale(0.015625)"/>
     </defs>
     <use xlink:href="#DejaVuSans-50"/>
     <use xlink:href="#DejaVuSans-6f" transform="translate(56.677734 0)"/>
     <use xlink:href="#DejaVuSans-73" transform="translate(117.859375 0)"/>
     <use xlink:href="#DejaVuSans-69" transform="translate(169.958984 0)"/>
     <use xlink:href="#DejaVuSans-74" transform="translate(197.742188 0)"/>
     <use xlink:href="#DejaVuSans-69" transform="translate(236.951172 0)"/>
     <use xlink:href="#DejaVuSans-6f" transform="translate(264.734375 0)"/>
     <use xlink:href="#DejaVuSans-6e" transform="translate(325.916016 0)"/>
     <use xlink:href="#DejaVuSans-20" transform="translate(389.294922 0)"/>
     <use xlink:href="#DejaVuSans-54" transform="translate(421.082031 0)"/>
     <use xlink:href="#DejaVuSans-72" transform="translate(467.416016 0)"/>
     <use xlink:href="#DejaVuSans-61" transform="translate(508.529297 0)"/>
     <use xlink:href="#DejaVuSans-63" transform="translate(569.808594 0)"/>
     <use xlink:href="#DejaVuSans-6b" transform="translate(624.789062 0)"/>
     <use xlink:href="#DejaVuSans-69" transform="translate(682.699219 0)"/>
     <use xlink:href="#DejaVuSans-6e" transform="translate(710.482422 0)"/>
     <use xlink:href="#DejaVuSans-67" transform="translate(773.861328 0)"/>
     <use xlink:href="#DejaVuSans-20" transform="translate(837.337891 0)"/>
     <use xlink:href="#DejaVuSans-28" transform="translate(869.125 0)"/>
     <use xlink:href="#DejaVuSans-4c" transform="translate(908.138672 0)"/>
     <use xlink:href="#DejaVuSans-51" transform="translate(963.851562 0)"/>
     <use xlink:href="#DejaVuSans-52" transform="translate(1042.5625 0)"/>
     <use xlink:href="#DejaVuSans-29" transform="translate(1112.044922 0)"/>
    </g>
   </g>
   <g id="legend_1">
    <g id="patch_7">
     <path d="M 97 193.437187 
L 305.445312 193.437187 
Q 307.445312 193.437187 307.445312 191.437187 
L 307.445312 148.402812 
Q 307.445312 146.402812 305.445312 146.402812 
L 97 146.402812 
Q 95 146.402812 95 148.402812 
L 95 191.437187 
Q 95 193.437187 97 193.437187 
z
" style="fill: #ffffff; opacity: 0.8; stroke: #cccccc; stroke-linejoin: miter"/>
    </g>
    <g id="line2d_28">
     <path d="M 99 154.50125 
L 109 154.50125 
L 119 154.50125 
" style="fill: none; stroke-dasharray: 5.55,2.4; stroke-dashoffset: 0; stroke: #000000; stroke-width: 1.5"/>
    </g>
    <g id="text_15">
     <!-- Reference Position -->
     <g transform="translate(127 158.00125) scale(0.1 -0.1)">
      <defs>
       <path id="DejaVuSans-65" d="M 3597 1894 
L 3597 1613 
L 953 1613 
Q 991 1019 1311 708 
Q 1631 397 2203 397 
Q 2534 397 2845 478 
Q 3156 559 3463 722 
L 3463 178 
Q 3153 47 2828 -22 
Q 2503 -91 2169 -91 
Q 1331 -91 842 396 
Q 353 884 353 1716 
Q 353 2575 817 3079 
Q 1281 3584 2069 3584 
Q 2775 3584 3186 3129 
Q 3597 2675 3597 1894 
z
M 3022 2063 
Q 3016 2534 2758 2815 
Q 2500 3097 2075 3097 
Q 1594 3097 1305 2825 
Q 1016 2553 972 2059 
L 3022 2063 
z
" transform="scale(0.015625)"/>
       <path id="DejaVuSans-66" d="M 2375 4863 
L 2375 4384 
L 1825 4384 
Q 1516 4384 1395 4259 
Q 1275 4134 1275 3809 
L 1275 3500 
L 2222 3500 
L 2222 3053 
L 1275 3053 
L 1275 0 
L 697 0 
L 697 3053 
L 147 3053 
L 147 3500 
L 697 3500 
L 697 3744 
Q 697 4328 969 4595 
Q 1241 4863 1831 4863 
L 2375 4863 
z
" transform="scale(0.015625)"/>
      </defs>
      <use xlink:href="#DejaVuSans-52"/>
      <use xlink:href="#DejaVuSans-65" transform="translate(64.982422 0)"/>
      <use xlink:href="#DejaVuSans-66" transform="translate(126.505859 0)"/>
      <use xlink:href="#DejaVuSans-65" transform="translate(161.710938 0)"/>
      <use xlink:href="#DejaVuSans-72" transform="translate(223.234375 0)"/>
      <use xlink:href="#DejaVuSans-65" transform="translate(262.097656 0)"/>
      <use xlink:href="#DejaVuSans-6e" transform="translate(323.621094 0)"/>
      <use xlink:href="#DejaVuSans-63" transform="translate(387 0)"/>
      <use xlink:href="#DejaVuSans-65" transform="translate(441.980469 0)"/>
      <use xlink:href="#DejaVuSans-20" transform="translate(503.503906 0)"/>
      <use xlink:href="#DejaVuSans-50" transform="translate(535.291016 0)"/>
      <use xlink:href="#DejaVuSans-6f" transform="translate(591.96875 0)"/>
      <use xlink:href="#DejaVuSans-73" transform="translate(653.150391 0)"/>
      <use xlink:href="#DejaVuSans-69" transform="translate(705.25 0)"/>
      <use xlink:href="#DejaVuSans-74" transform="translate(733.033203 0)"/>
      <use xlink:href="#DejaVuSans-69" transform="translate(772.242188 0)"/>
      <use xlink:href="#DejaVuSans-6f" transform="translate(800.025391 0)"/>
      <use xlink:href="#DejaVuSans-6e" transform="translate(861.207031 0)"/>
     </g>
    </g>
    <g id="line2d_29">
     <path d="M 99 169.179375 
L 109 169.179375 
L 119 169.179375 
" style="fill: none; stroke: #0000ff; stroke-width: 1.5; stroke-linecap: square"/>
    </g>
    <g id="text_16">
     <!-- Position with Feedforward (LQR) -->
     <g transform="translate(127 172.679375) scale(0.1 -0.1)">
      <defs>
       <path id="DejaVuSans-77" d="M 269 3500 
L 844 3500 
L 1563 769 
L 2278 3500 
L 2956 3500 
L 3675 769 
L 4391 3500 
L 4966 3500 
L 4050 0 
L 3372 0 
L 2619 2869 
L 1863 0 
L 1184 0 
L 269 3500 
z
" transform="scale(0.015625)"/>
       <path id="DejaVuSans-68" d="M 3513 2113 
L 3513 0 
L 2938 0 
L 2938 2094 
Q 2938 2591 2744 2837 
Q 2550 3084 2163 3084 
Q 1697 3084 1428 2787 
Q 1159 2491 1159 1978 
L 1159 0 
L 581 0 
L 581 4863 
L 1159 4863 
L 1159 2956 
Q 1366 3272 1645 3428 
Q 1925 3584 2291 3584 
Q 2894 3584 3203 3211 
Q 3513 2838 3513 2113 
z
" transform="scale(0.015625)"/>
       <path id="DejaVuSans-46" d="M 628 4666 
L 3309 4666 
L 3309 4134 
L 1259 4134 
L 1259 2759 
L 3109 2759 
L 3109 2228 
L 1259 2228 
L 1259 0 
L 628 0 
L 628 4666 
z
" transform="scale(0.015625)"/>
       <path id="DejaVuSans-64" d="M 2906 2969 
L 2906 4863 
L 3481 4863 
L 3481 0 
L 2906 0 
L 2906 525 
Q 2725 213 2448 61 
Q 2172 -91 1784 -91 
Q 1150 -91 751 415 
Q 353 922 353 1747 
Q 353 2572 751 3078 
Q 1150 3584 1784 3584 
Q 2172 3584 2448 3432 
Q 2725 3281 2906 2969 
z
M 947 1747 
Q 947 1113 1208 752 
Q 1469 391 1925 391 
Q 2381 391 2643 752 
Q 2906 1113 2906 1747 
Q 2906 2381 2643 2742 
Q 2381 3103 1925 3103 
Q 1469 3103 1208 2742 
Q 947 2381 947 1747 
z
" transform="scale(0.015625)"/>
      </defs>
      <use xlink:href="#DejaVuSans-50"/>
      <use xlink:href="#DejaVuSans-6f" transform="translate(56.677734 0)"/>
      <use xlink:href="#DejaVuSans-73" transform="translate(117.859375 0)"/>
      <use xlink:href="#DejaVuSans-69" transform="translate(169.958984 0)"/>
      <use xlink:href="#DejaVuSans-74" transform="translate(197.742188 0)"/>
      <use xlink:href="#DejaVuSans-69" transform="translate(236.951172 0)"/>
      <use xlink:href="#DejaVuSans-6f" transform="translate(264.734375 0)"/>
      <use xlink:href="#DejaVuSans-6e" transform="translate(325.916016 0)"/>
      <use xlink:href="#DejaVuSans-20" transform="translate(389.294922 0)"/>
      <use xlink:href="#DejaVuSans-77" transform="translate(421.082031 0)"/>
      <use xlink:href="#DejaVuSans-69" transform="translate(502.869141 0)"/>
      <use xlink:href="#DejaVuSans-74" transform="translate(530.652344 0)"/>
      <use xlink:href="#DejaVuSans-68" transform="translate(569.861328 0)"/>
      <use xlink:href="#DejaVuSans-20" transform="translate(633.240234 0)"/>
      <use xlink:href="#DejaVuSans-46" transform="translate(665.027344 0)"/>
      <use xlink:href="#DejaVuSans-65" transform="translate(717.046875 0)"/>
      <use xlink:href="#DejaVuSans-65" transform="translate(778.570312 0)"/>
      <use xlink:href="#DejaVuSans-64" transform="translate(840.09375 0)"/>
      <use xlink:href="#DejaVuSans-66" transform="translate(903.570312 0)"/>
      <use xlink:href="#DejaVuSans-6f" transform="translate(938.775391 0)"/>
      <use xlink:href="#DejaVuSans-72" transform="translate(999.957031 0)"/>
      <use xlink:href="#DejaVuSans-77" transform="translate(1041.070312 0)"/>
      <use xlink:href="#DejaVuSans-61" transform="translate(1122.857422 0)"/>
      <use xlink:href="#DejaVuSans-72" transform="translate(1184.136719 0)"/>
      <use xlink:href="#DejaVuSans-64" transform="translate(1223.5 0)"/>
      <use xlink:href="#DejaVuSans-20" transform="translate(1286.976562 0)"/>
      <use xlink:href="#DejaVuSans-28" transform="translate(1318.763672 0)"/>
      <use xlink:href="#DejaVuSans-4c" transform="translate(1357.777344 0)"/>
      <use xlink:href="#DejaVuSans-51" transform="translate(1413.490234 0)"/>
      <use xlink:href="#DejaVuSans-52" transform="translate(1492.201172 0)"/>
      <use xlink:href="#DejaVuSans-29" transform="translate(1561.683594 0)"/>
     </g>
    </g>
    <g id="line2d_30">
     <path d="M 99 183.8575 
L 109 183.8575 
L 119 183.8575 
" style="fill: none; stroke: #ff0000; stroke-width: 1.5; stroke-linecap: square"/>
    </g>
    <g id="text_17">
     <!-- Position without Feedforward (LQR) -->
     <g transform="translate(127 187.3575) scale(0.1 -0.1)">
      <defs>
       <path id="DejaVuSans-75" d="M 544 1381 
L 544 3500 
L 1119 3500 
L 1119 1403 
Q 1119 906 1312 657 
Q 1506 409 1894 409 
Q 2359 409 2629 706 
Q 2900 1003 2900 1516 
L 2900 3500 
L 3475 3500 
L 3475 0 
L 2900 0 
L 2900 538 
Q 2691 219 2414 64 
Q 2138 -91 1772 -91 
Q 1169 -91 856 284 
Q 544 659 544 1381 
z
M 1991 3584 
L 1991 3584 
z
" transform="scale(0.015625)"/>
      </defs>
      <use xlink:href="#DejaVuSans-50"/>
      <use xlink:href="#DejaVuSans-6f" transform="translate(56.677734 0)"/>
      <use xlink:href="#DejaVuSans-73" transform="translate(117.859375 0)"/>
      <use xlink:href="#DejaVuSans-69" transform="translate(169.958984 0)"/>
      <use xlink:href="#DejaVuSans-74" transform="translate(197.742188 0)"/>
      <use xlink:href="#DejaVuSans-69" transform="translate(236.951172 0)"/>
      <use xlink:href="#DejaVuSans-6f" transform="translate(264.734375 0)"/>
      <use xlink:href="#DejaVuSans-6e" transform="translate(325.916016 0)"/>
      <use xlink:href="#DejaVuSans-20" transform="translate(389.294922 0)"/>
      <use xlink:href="#DejaVuSans-77" transform="translate(421.082031 0)"/>
      <use xlink:href="#DejaVuSans-69" transform="translate(502.869141 0)"/>
      <use xlink:href="#DejaVuSans-74" transform="translate(530.652344 0)"/>
      <use xlink:href="#DejaVuSans-68" transform="translate(569.861328 0)"/>
      <use xlink:href="#DejaVuSans-6f" transform="translate(633.240234 0)"/>
      <use xlink:href="#DejaVuSans-75" transform="translate(694.421875 0)"/>
      <use xlink:href="#DejaVuSans-74" transform="translate(757.800781 0)"/>
      <use xlink:href="#DejaVuSans-20" transform="translate(797.009766 0)"/>
      <use xlink:href="#DejaVuSans-46" transform="translate(828.796875 0)"/>
      <use xlink:href="#DejaVuSans-65" transform="translate(880.816406 0)"/>
      <use xlink:href="#DejaVuSans-65" transform="translate(942.339844 0)"/>
      <use xlink:href="#DejaVuSans-64" transform="translate(1003.863281 0)"/>
      <use xlink:href="#DejaVuSans-66" transform="translate(1067.339844 0)"/>
      <use xlink:href="#DejaVuSans-6f" transform="translate(1102.544922 0)"/>
      <use xlink:href="#DejaVuSans-72" transform="translate(1163.726562 0)"/>
      <use xlink:href="#DejaVuSans-77" transform="translate(1204.839844 0)"/>
      <use xlink:href="#DejaVuSans-61" transform="translate(1286.626953 0)"/>
      <use xlink:href="#DejaVuSans-72" transform="translate(1347.90625 0)"/>
      <use xlink:href="#DejaVuSans-64" transform="translate(1387.269531 0)"/>
      <use xlink:href="#DejaVuSans-20" transform="translate(1450.746094 0)"/>
      <use xlink:href="#DejaVuSans-28" transform="translate(1482.533203 0)"/>
      <use xlink:href="#DejaVuSans-4c" transform="translate(1521.546875 0)"/>
      <use xlink:href="#DejaVuSans-51" transform="translate(1577.259766 0)"/>
      <use xlink:href="#DejaVuSans-52" transform="translate(1655.970703 0)"/>
      <use xlink:href="#DejaVuSans-29" transform="translate(1725.453125 0)"/>
     </g>
    </g>
   </g>
  </g>
  <g id="axes_2">
   <g id="patch_8">
    <path d="M 90 512.64 
L 648 512.64 
L 648 311.04 
L 90 311.04 
z
" style="fill: #ffffff"/>
   </g>
   <g id="matplotlib.axis_3">
    <g id="xtick_7">
     <g id="line2d_31">
      <path d="M 115.363636 512.64 
L 115.363636 311.04 
" clip-path="url(#p02a688405f)" style="fill: none; stroke: #b0b0b0; stroke-width: 0.8; stroke-linecap: square"/>
     </g>
     <g id="line2d_32">
      <g>
       <use xlink:href="#m08ec632e68" x="115.363636" y="512.64" style="stroke: #000000; stroke-width: 0.8"/>
      </g>
     </g>
     <g id="text_18">
      <!-- 0.0 -->
      <g transform="translate(107.412074 527.238438) scale(0.1 -0.1)">
       <use xlink:href="#DejaVuSans-30"/>
       <use xlink:href="#DejaVuSans-2e" transform="translate(63.623047 0)"/>
       <use xlink:href="#DejaVuSans-30" transform="translate(95.410156 0)"/>
      </g>
     </g>
    </g>
    <g id="xtick_8">
     <g id="line2d_33">
      <path d="M 221.045455 512.64 
L 221.045455 311.04 
" clip-path="url(#p02a688405f)" style="fill: none; stroke: #b0b0b0; stroke-width: 0.8; stroke-linecap: square"/>
     </g>
     <g id="line2d_34">
      <g>
       <use xlink:href="#m08ec632e68" x="221.045455" y="512.64" style="stroke: #000000; stroke-width: 0.8"/>
      </g>
     </g>
     <g id="text_19">
      <!-- 0.5 -->
      <g transform="translate(213.093892 527.238438) scale(0.1 -0.1)">
       <use xlink:href="#DejaVuSans-30"/>
       <use xlink:href="#DejaVuSans-2e" transform="translate(63.623047 0)"/>
       <use xlink:href="#DejaVuSans-35" transform="translate(95.410156 0)"/>
      </g>
     </g>
    </g>
    <g id="xtick_9">
     <g id="line2d_35">
      <path d="M 326.727273 512.64 
L 326.727273 311.04 
" clip-path="url(#p02a688405f)" style="fill: none; stroke: #b0b0b0; stroke-width: 0.8; stroke-linecap: square"/>
     </g>
     <g id="line2d_36">
      <g>
       <use xlink:href="#m08ec632e68" x="326.727273" y="512.64" style="stroke: #000000; stroke-width: 0.8"/>
      </g>
     </g>
     <g id="text_20">
      <!-- 1.0 -->
      <g transform="translate(318.77571 527.238438) scale(0.1 -0.1)">
       <use xlink:href="#DejaVuSans-31"/>
       <use xlink:href="#DejaVuSans-2e" transform="translate(63.623047 0)"/>
       <use xlink:href="#DejaVuSans-30" transform="translate(95.410156 0)"/>
      </g>
     </g>
    </g>
    <g id="xtick_10">
     <g id="line2d_37">
      <path d="M 432.409091 512.64 
L 432.409091 311.04 
" clip-path="url(#p02a688405f)" style="fill: none; stroke: #b0b0b0; stroke-width: 0.8; stroke-linecap: square"/>
     </g>
     <g id="line2d_38">
      <g>
       <use xlink:href="#m08ec632e68" x="432.409091" y="512.64" style="stroke: #000000; stroke-width: 0.8"/>
      </g>
     </g>
     <g id="text_21">
      <!-- 1.5 -->
      <g transform="translate(424.457528 527.238438) scale(0.1 -0.1)">
       <use xlink:href="#DejaVuSans-31"/>
       <use xlink:href="#DejaVuSans-2e" transform="translate(63.623047 0)"/>
       <use xlink:href="#DejaVuSans-35" transform="translate(95.410156 0)"/>
      </g>
     </g>
    </g>
    <g id="xtick_11">
     <g id="line2d_39">
      <path d="M 538.090909 512.64 
L 538.090909 311.04 
" clip-path="url(#p02a688405f)" style="fill: none; stroke: #b0b0b0; stroke-width: 0.8; stroke-linecap: square"/>
     </g>
     <g id="line2d_40">
      <g>
       <use xlink:href="#m08ec632e68" x="538.090909" y="512.64" style="stroke: #000000; stroke-width: 0.8"/>
      </g>
     </g>
     <g id="text_22">
      <!-- 2.0 -->
      <g transform="translate(530.139347 527.238438) scale(0.1 -0.1)">
       <use xlink:href="#DejaVuSans-32"/>
       <use xlink:href="#DejaVuSans-2e" transform="translate(63.623047 0)"/>
       <use xlink:href="#DejaVuSans-30" transform="translate(95.410156 0)"/>
      </g>
     </g>
    </g>
    <g id="xtick_12">
     <g id="line2d_41">
      <path d="M 643.772727 512.64 
L 643.772727 311.04 
" clip-path="url(#p02a688405f)" style="fill: none; stroke: #b0b0b0; stroke-width: 0.8; stroke-linecap: square"/>
     </g>
     <g id="line2d_42">
      <g>
       <use xlink:href="#m08ec632e68" x="643.772727" y="512.64" style="stroke: #000000; stroke-width: 0.8"/>
      </g>
     </g>
     <g id="text_23">
      <!-- 2.5 -->
      <g transform="translate(635.821165 527.238438) scale(0.1 -0.1)">
       <use xlink:href="#DejaVuSans-32"/>
       <use xlink:href="#DejaVuSans-2e" transform="translate(63.623047 0)"/>
       <use xlink:href="#DejaVuSans-35" transform="translate(95.410156 0)"/>
      </g>
     </g>
    </g>
    <g id="text_24">
     <!-- Time (s) -->
     <g transform="translate(348.671094 540.916563) scale(0.1 -0.1)">
      <use xlink:href="#DejaVuSans-54"/>
      <use xlink:href="#DejaVuSans-69" transform="translate(57.958984 0)"/>
      <use xlink:href="#DejaVuSans-6d" transform="translate(85.742188 0)"/>
      <use xlink:href="#DejaVuSans-65" transform="translate(183.154297 0)"/>
      <use xlink:href="#DejaVuSans-20" transform="translate(244.677734 0)"/>
      <use xlink:href="#DejaVuSans-28" transform="translate(276.464844 0)"/>
      <use xlink:href="#DejaVuSans-73" transform="translate(315.478516 0)"/>
      <use xlink:href="#DejaVuSans-29" transform="translate(367.578125 0)"/>
     </g>
    </g>
   </g>
   <g id="matplotlib.axis_4">
    <g id="ytick_7">
     <g id="line2d_43">
      <path d="M 90 507.564035 
L 648 507.564035 
" clip-path="url(#p02a688405f)" style="fill: none; stroke: #b0b0b0; stroke-width: 0.8; stroke-linecap: square"/>
     </g>
     <g id="line2d_44">
      <g>
       <use xlink:href="#mcbb632b76e" x="90" y="507.564035" style="stroke: #000000; stroke-width: 0.8"/>
      </g>
     </g>
     <g id="text_25">
      <!-- 8 -->
      <g transform="translate(68.257812 511.363253) scale(0.1 -0.1)">
       <defs>
        <path id="DejaVuSans-2212" d="M 678 2272 
L 4684 2272 
L 4684 1741 
L 678 1741 
L 678 2272 
z
" transform="scale(0.015625)"/>
       </defs>
       <use xlink:href="#DejaVuSans-2212"/>
       <use xlink:href="#DejaVuSans-38" transform="translate(83.789062 0)"/>
      </g>
     </g>
    </g>
    <g id="ytick_8">
     <g id="line2d_45">
      <path d="M 90 483.729033 
L 648 483.729033 
" clip-path="url(#p02a688405f)" style="fill: none; stroke: #b0b0b0; stroke-width: 0.8; stroke-linecap: square"/>
     </g>
     <g id="line2d_46">
      <g>
       <use xlink:href="#mcbb632b76e" x="90" y="483.729033" style="stroke: #000000; stroke-width: 0.8"/>
      </g>
     </g>
     <g id="text_26">
      <!-- 6 -->
      <g transform="translate(68.257812 487.528252) scale(0.1 -0.1)">
       <use xlink:href="#DejaVuSans-2212"/>
       <use xlink:href="#DejaVuSans-36" transform="translate(83.789062 0)"/>
      </g>
     </g>
    </g>
    <g id="ytick_9">
     <g id="line2d_47">
      <path d="M 90 459.894031 
L 648 459.894031 
" clip-path="url(#p02a688405f)" style="fill: none; stroke: #b0b0b0; stroke-width: 0.8; stroke-linecap: square"/>
     </g>
     <g id="line2d_48">
      <g>
       <use xlink:href="#mcbb632b76e" x="90" y="459.894031" style="stroke: #000000; stroke-width: 0.8"/>
      </g>
     </g>
     <g id="text_27">
      <!-- 4 -->
      <g transform="translate(68.257812 463.69325) scale(0.1 -0.1)">
       <use xlink:href="#DejaVuSans-2212"/>
       <use xlink:href="#DejaVuSans-34" transform="translate(83.789062 0)"/>
      </g>
     </g>
    </g>
    <g id="ytick_10">
     <g id="line2d_49">
      <path d="M 90 436.059029 
L 648 436.059029 
" clip-path="url(#p02a688405f)" style="fill: none; stroke: #b0b0b0; stroke-width: 0.8; stroke-linecap: square"/>
     </g>
     <g id="line2d_50">
      <g>
       <use xlink:href="#mcbb632b76e" x="90" y="436.059029" style="stroke: #000000; stroke-width: 0.8"/>
      </g>
     </g>
     <g id="text_28">
      <!-- 2 -->
      <g transform="translate(68.257812 439.858248) scale(0.1 -0.1)">
       <use xlink:href="#DejaVuSans-2212"/>
       <use xlink:href="#DejaVuSans-32" transform="translate(83.789062 0)"/>
      </g>
     </g>
    </g>
    <g id="ytick_11">
     <g id="line2d_51">
      <path d="M 90 412.224027 
L 648 412.224027 
" clip-path="url(#p02a688405f)" style="fill: none; stroke: #b0b0b0; stroke-width: 0.8; stroke-linecap: square"/>
     </g>
     <g id="line2d_52">
      <g>
       <use xlink:href="#mcbb632b76e" x="90" y="412.224027" style="stroke: #000000; stroke-width: 0.8"/>
      </g>
     </g>
     <g id="text_29">
      <!-- 0 -->
      <g transform="translate(76.6375 416.023246) scale(0.1 -0.1)">
       <use xlink:href="#DejaVuSans-30"/>
      </g>
     </g>
    </g>
    <g id="ytick_12">
     <g id="line2d_53">
      <path d="M 90 388.389025 
L 648 388.389025 
" clip-path="url(#p02a688405f)" style="fill: none; stroke: #b0b0b0; stroke-width: 0.8; stroke-linecap: square"/>
     </g>
     <g id="line2d_54">
      <g>
       <use xlink:href="#mcbb632b76e" x="90" y="388.389025" style="stroke: #000000; stroke-width: 0.8"/>
      </g>
     </g>
     <g id="text_30">
      <!-- 2 -->
      <g transform="translate(76.6375 392.188244) scale(0.1 -0.1)">
       <use xlink:href="#DejaVuSans-32"/>
      </g>
     </g>
    </g>
    <g id="ytick_13">
     <g id="line2d_55">
      <path d="M 90 364.554024 
L 648 364.554024 
" clip-path="url(#p02a688405f)" style="fill: none; stroke: #b0b0b0; stroke-width: 0.8; stroke-linecap: square"/>
     </g>
     <g id="line2d_56">
      <g>
       <use xlink:href="#mcbb632b76e" x="90" y="364.554024" style="stroke: #000000; stroke-width: 0.8"/>
      </g>
     </g>
     <g id="text_31">
      <!-- 4 -->
      <g transform="translate(76.6375 368.353242) scale(0.1 -0.1)">
       <use xlink:href="#DejaVuSans-34"/>
      </g>
     </g>
    </g>
    <g id="ytick_14">
     <g id="line2d_57">
      <path d="M 90 340.719022 
L 648 340.719022 
" clip-path="url(#p02a688405f)" style="fill: none; stroke: #b0b0b0; stroke-width: 0.8; stroke-linecap: square"/>
     </g>
     <g id="line2d_58">
      <g>
       <use xlink:href="#mcbb632b76e" x="90" y="340.719022" style="stroke: #000000; stroke-width: 0.8"/>
      </g>
     </g>
     <g id="text_32">
      <!-- 6 -->
      <g transform="translate(76.6375 344.51824) scale(0.1 -0.1)">
       <use xlink:href="#DejaVuSans-36"/>
      </g>
     </g>
    </g>
    <g id="ytick_15">
     <g id="line2d_59">
      <path d="M 90 316.88402 
L 648 316.88402 
" clip-path="url(#p02a688405f)" style="fill: none; stroke: #b0b0b0; stroke-width: 0.8; stroke-linecap: square"/>
     </g>
     <g id="line2d_60">
      <g>
       <use xlink:href="#mcbb632b76e" x="90" y="316.88402" style="stroke: #000000; stroke-width: 0.8"/>
      </g>
     </g>
     <g id="text_33">
      <!-- 8 -->
      <g transform="translate(76.6375 320.683239) scale(0.1 -0.1)">
       <use xlink:href="#DejaVuSans-38"/>
      </g>
     </g>
    </g>
    <g id="text_34">
     <!-- Velocity (m/s) -->
     <g transform="translate(62.178125 446.105625) rotate(-90) scale(0.1 -0.1)">
      <defs>
       <path id="DejaVuSans-56" d="M 1831 0 
L 50 4666 
L 709 4666 
L 2188 738 
L 3669 4666 
L 4325 4666 
L 2547 0 
L 1831 0 
z
" transform="scale(0.015625)"/>
       <path id="DejaVuSans-6c" d="M 603 4863 
L 1178 4863 
L 1178 0 
L 603 0 
L 603 4863 
z
" transform="scale(0.015625)"/>
       <path id="DejaVuSans-79" d="M 2059 -325 
Q 1816 -950 1584 -1140 
Q 1353 -1331 966 -1331 
L 506 -1331 
L 506 -850 
L 844 -850 
Q 1081 -850 1212 -737 
Q 1344 -625 1503 -206 
L 1606 56 
L 191 3500 
L 800 3500 
L 1894 763 
L 2988 3500 
L 3597 3500 
L 2059 -325 
z
" transform="scale(0.015625)"/>
       <path id="DejaVuSans-2f" d="M 1625 4666 
L 2156 4666 
L 531 -594 
L 0 -594 
L 1625 4666 
z
" transform="scale(0.015625)"/>
      </defs>
      <use xlink:href="#DejaVuSans-56"/>
      <use xlink:href="#DejaVuSans-65" transform="translate(60.658203 0)"/>
      <use xlink:href="#DejaVuSans-6c" transform="translate(122.181641 0)"/>
      <use xlink:href="#DejaVuSans-6f" transform="translate(149.964844 0)"/>
      <use xlink:href="#DejaVuSans-63" transform="translate(211.146484 0)"/>
      <use xlink:href="#DejaVuSans-69" transform="translate(266.126953 0)"/>
      <use xlink:href="#DejaVuSans-74" transform="translate(293.910156 0)"/>
      <use xlink:href="#DejaVuSans-79" transform="translate(333.119141 0)"/>
      <use xlink:href="#DejaVuSans-20" transform="translate(392.298828 0)"/>
      <use xlink:href="#DejaVuSans-28" transform="translate(424.085938 0)"/>
      <use xlink:href="#DejaVuSans-6d" transform="translate(463.099609 0)"/>
      <use xlink:href="#DejaVuSans-2f" transform="translate(560.511719 0)"/>
      <use xlink:href="#DejaVuSans-73" transform="translate(594.203125 0)"/>
      <use xlink:href="#DejaVuSans-29" transform="translate(646.302734 0)"/>
     </g>
    </g>
   </g>
   <g id="line2d_61">
    <path d="M 115.363636 412.224027 
L 157.481312 412.224027 
L 157.650459 411.905909 
L 168.137591 333.01261 
L 168.306739 332.774021 
L 189.281003 332.774021 
L 190.972476 345.419217 
L 199.937282 412.224027 
L 242.054958 412.224027 
L 242.5624 415.723327 
L 252.711237 491.674033 
L 273.685501 491.674033 
L 273.854649 491.117327 
L 284.341781 412.224027 
L 326.628603 412.224027 
L 326.797751 411.905909 
L 337.284883 333.01261 
L 337.45403 332.774021 
L 358.428294 332.774021 
L 360.119767 345.419217 
L 369.084574 412.224027 
L 411.202249 412.224027 
L 411.709691 415.723327 
L 421.858529 491.674033 
L 442.832793 491.674033 
L 443.00194 491.117327 
L 453.489072 412.224027 
L 495.775895 412.224027 
L 495.945042 411.905909 
L 506.432174 333.01261 
L 506.601322 332.774021 
L 527.575586 332.774021 
L 529.267059 345.419217 
L 538.231865 412.224027 
L 580.349541 412.224027 
L 580.856983 415.723327 
L 591.00582 491.674033 
L 611.980084 491.674033 
L 612.149232 491.117327 
L 622.636364 412.224027 
L 622.636364 412.224027 
" clip-path="url(#p02a688405f)" style="fill: none; stroke-dasharray: 5.55,2.4; stroke-dashoffset: 0; stroke: #000000; stroke-width: 1.5"/>
   </g>
   <g id="line2d_62">
    <path d="M 115.363636 412.224027 
L 157.312165 412.224027 
L 157.481312 412.06697 
L 158.157901 407.090874 
L 166.107824 347.649907 
L 167.122708 339.769828 
L 167.630149 337.125594 
L 168.137591 335.645456 
L 168.475886 335.248158 
L 168.81418 335.198122 
L 169.49077 335.395988 
L 174.565188 334.056123 
L 177.440692 333.516913 
L 182.007669 332.99636 
L 185.221468 332.725808 
L 186.574646 332.577946 
L 187.251235 331.880675 
L 187.758677 331.477761 
L 188.096972 331.468679 
L 188.435266 331.758196 
L 188.773561 332.399792 
L 189.281003 334.085721 
L 189.788445 336.645153 
L 190.465034 341.236166 
L 196.554336 387.46459 
L 199.937282 412.064013 
L 207.041468 411.916072 
L 218.712631 411.926246 
L 242.054958 412.095828 
L 242.224105 412.350798 
L 242.731547 416.251432 
L 251.696353 484.040341 
L 252.203795 485.909135 
L 252.54209 486.425659 
L 252.880384 486.546707 
L 253.387826 486.640914 
L 255.248446 487.84369 
L 257.278214 488.859334 
L 259.984571 489.909444 
L 263.705811 491.174803 
L 266.24302 491.693616 
L 269.625966 492.148254 
L 273.178059 492.406444 
L 273.516354 492.319456 
L 273.854649 491.169142 
L 274.36209 487.838518 
L 277.237594 465.890463 
L 284.341781 413.480881 
L 303.624572 412.797615 
L 319.35527 412.488907 
L 326.459456 412.406912 
L 326.628603 412.117357 
L 327.136045 408.332059 
L 336.946588 335.806305 
L 337.284883 334.593401 
L 337.623177 334.149046 
L 337.961472 334.146613 
L 338.976356 334.605802 
L 339.483798 334.470565 
L 340.160387 334.162322 
L 344.219922 333.555618 
L 352.338992 332.92624 
L 357.244263 332.714089 
L 357.920852 332.090795 
L 358.09 332.123801 
L 358.259147 332.305124 
L 358.597442 333.18933 
L 358.935736 334.810414 
L 359.443178 338.430809 
L 361.472946 354.478986 
L 368.915426 411.250495 
L 369.084574 411.894945 
L 375.512171 412.170756 
L 384.646124 412.318883 
L 401.560854 412.328582 
L 410.863955 412.307331 
L 411.033102 412.589603 
L 411.371397 414.158304 
L 412.047986 419.28467 
L 413.401164 429.545508 
L 419.490467 475.223515 
L 420.336203 481.64964 
L 421.012792 485.143658 
L 421.520234 486.587104 
L 421.858529 487.046801 
L 422.196823 487.206542 
L 423.04256 487.273284 
L 425.241474 488.455229 
L 427.609537 489.539822 
L 429.808451 490.221294 
L 432.514808 490.884271 
L 435.221165 491.316759 
L 437.250932 491.68092 
L 437.927521 492.29153 
L 439.449847 493.804146 
L 439.957289 493.998727 
L 440.464731 493.909161 
L 440.972173 493.478208 
L 441.479614 492.662197 
L 441.987056 491.431031 
L 442.663645 489.117069 
L 443.509382 485.149197 
L 444.524266 478.944469 
L 445.877444 468.852036 
L 448.583801 448.121564 
L 453.489072 413.031613 
L 460.085816 413.065165 
L 472.095274 412.862746 
L 495.775895 412.460886 
L 495.945042 412.084232 
L 499.666283 383.870892 
L 504.23326 349.674979 
L 505.924732 336.369037 
L 506.601322 331.067639 
L 507.108764 328.574204 
L 507.447058 327.782369 
L 507.785353 327.622992 
L 508.123647 327.924718 
L 508.800236 328.725709 
L 510.660857 329.698134 
L 513.705508 330.895585 
L 516.750159 331.894167 
L 518.779927 332.302557 
L 523.854345 333.154539 
L 524.361787 332.812582 
L 525.207524 332.107145 
L 525.545818 332.030891 
L 525.884113 332.171777 
L 526.222407 332.577282 
L 526.560702 333.281183 
L 527.068144 334.93671 
L 527.744733 338.261008 
L 528.59047 343.936478 
L 532.142563 369.97396 
L 537.893571 412.091445 
L 538.231865 413.898666 
L 541.614811 413.259599 
L 545.505199 412.756718 
L 550.241323 412.376237 
L 556.330625 412.123947 
L 564.957137 412.007567 
L 580.180393 412.043714 
L 580.349541 412.184674 
L 580.687835 413.431278 
L 581.195277 416.865784 
L 584.070781 439.259892 
L 590.329231 486.330693 
L 590.667526 487.250968 
L 591.00582 487.565651 
L 591.513262 487.538792 
L 592.020704 487.496115 
L 592.528146 487.734178 
L 593.543029 488.435853 
L 595.572797 489.297956 
L 598.955743 490.40873 
L 602.507836 491.189224 
L 606.398224 491.789277 
L 609.273728 492.181038 
L 610.288611 492.98598 
L 610.626906 492.849378 
L 610.965201 492.333199 
L 611.303495 491.38742 
L 611.810937 489.1461 
L 612.487526 484.851584 
L 615.870472 461.003418 
L 619.930007 431.989415 
L 622.467216 413.499693 
L 622.636364 412.899584 
L 622.636364 412.899584 
" clip-path="url(#p02a688405f)" style="fill: none; stroke: #0000ff; stroke-width: 1.5; stroke-linecap: square"/>
   </g>
   <g id="line2d_63">
    <path d="M 115.363636 412.224027 
L 157.988754 412.148478 
L 158.665343 411.649202 
L 159.341932 410.746022 
L 160.187669 409.069952 
L 161.202552 406.395876 
L 162.217436 402.931311 
L 163.401467 398.230095 
L 164.754645 391.871466 
L 166.276971 383.618795 
L 167.968444 373.230257 
L 169.659917 363.216857 
L 171.182243 355.525838 
L 172.535421 349.741056 
L 174.057747 344.217313 
L 175.580072 339.620195 
L 177.102398 335.739565 
L 178.624723 332.46165 
L 179.977902 330.053655 
L 181.33108 328.144377 
L 182.853406 326.393557 
L 184.206584 325.17581 
L 185.559762 324.257621 
L 187.082088 323.522601 
L 188.942708 322.900364 
L 189.45015 322.911708 
L 189.957592 323.133346 
L 190.634181 323.748726 
L 191.31077 324.720558 
L 192.156507 326.421518 
L 193.002243 328.644678 
L 194.017127 331.974735 
L 195.201158 336.731172 
L 196.554336 343.252248 
L 197.738367 349.950501 
L 199.937282 364.319583 
L 201.797902 375.715622 
L 203.151081 382.643236 
L 204.504259 388.350372 
L 206.195732 394.370554 
L 207.718058 399.044574 
L 209.240383 402.98078 
L 210.762709 406.274385 
L 212.285034 409.012708 
L 213.80736 411.275177 
L 215.329686 413.133065 
L 216.852011 414.643394 
L 218.374337 415.852359 
L 220.06581 416.893796 
L 221.757283 417.668627 
L 223.617903 418.269511 
L 225.64767 418.684023 
L 227.846585 418.905535 
L 230.383795 418.936862 
L 233.597593 418.737013 
L 237.657128 418.246754 
L 242.393252 417.624696 
L 242.900694 417.888456 
L 243.408136 418.373517 
L 244.084725 419.349398 
L 244.930462 421.069163 
L 245.776198 423.306873 
L 246.791082 426.619475 
L 247.975113 431.262223 
L 249.328291 437.461253 
L 251.019764 446.313839 
L 253.218679 459.161735 
L 254.741005 467.510614 
L 256.26333 474.539089 
L 257.616509 479.819941 
L 258.969687 484.308355 
L 260.322865 488.106814 
L 261.676044 491.307906 
L 263.029222 493.994327 
L 264.3824 496.234525 
L 265.735579 498.031866 
L 267.088757 499.467786 
L 268.611082 500.757282 
L 270.133408 501.771115 
L 271.655734 502.530701 
L 273.178059 503.022013 
L 273.854649 503.058278 
L 274.531238 502.844808 
L 275.03868 502.473611 
L 275.715269 501.651843 
L 276.391858 500.424759 
L 277.237594 498.30369 
L 278.083331 495.557434 
L 279.267362 490.834165 
L 280.62054 484.567852 
L 281.973719 477.139332 
L 283.665191 466.356034 
L 285.864106 452.419903 
L 287.386432 444.393023 
L 288.908757 437.544173 
L 290.431083 431.726364 
L 291.953409 426.804465 
L 293.475734 422.655204 
L 294.99806 419.16756 
L 296.520386 416.25292 
L 298.042711 413.83819 
L 299.565037 411.855708 
L 301.087362 410.243942 
L 302.609688 408.947481 
L 304.132014 407.918268 
L 305.823487 407.042426 
L 307.51496 406.404452 
L 309.37558 405.928744 
L 311.574495 405.608976 
L 313.942557 405.490904 
L 316.818061 405.581837 
L 320.370154 405.928641 
L 325.444572 406.663081 
L 327.136045 406.843007 
L 327.643487 406.677302 
L 328.150929 406.294897 
L 328.658371 405.664424 
L 329.33496 404.429426 
L 330.180697 402.324677 
L 331.19558 399.074558 
L 332.379611 394.467753 
L 333.901937 387.514643 
L 335.424263 379.532787 
L 337.45403 367.554001 
L 338.976356 358.86319 
L 340.498681 351.477327 
L 342.021007 345.24445 
L 343.374185 340.646893 
L 344.896511 336.293407 
L 346.249689 333.050062 
L 347.602868 330.331182 
L 348.956046 328.084031 
L 350.309224 326.265342 
L 351.324108 325.205033 
L 352.508139 324.328661 
L 355.045348 322.535204 
L 357.751705 320.468322 
L 358.428294 320.226606 
L 358.935736 320.222532 
L 359.443178 320.423085 
L 359.95062 320.881841 
L 360.458062 321.658021 
L 361.134651 323.174927 
L 361.980387 325.55918 
L 362.995271 329.125305 
L 364.179302 334.228196 
L 365.532481 341.177961 
L 367.223953 351.150379 
L 371.452636 376.796671 
L 372.974961 384.199897 
L 374.497287 390.497549 
L 376.019613 395.830708 
L 377.541938 400.328871 
L 379.064264 404.109957 
L 380.586589 407.277451 
L 382.108915 409.909498 
L 383.631241 412.076807 
L 385.153566 413.844171 
L 386.675892 415.270003 
L 388.198218 416.40612 
L 389.889691 417.379878 
L 391.581163 418.096569 
L 393.441784 418.639739 
L 395.471551 418.997091 
L 397.839613 419.174011 
L 400.54597 419.136888 
L 403.928916 418.844835 
L 408.495893 418.205717 
L 411.202249 417.867139 
L 411.878838 418.109849 
L 412.555428 418.630438 
L 413.232017 419.48868 
L 413.908606 420.728631 
L 414.754342 422.818157 
L 415.769226 426.066686 
L 416.953257 430.722992 
L 418.64473 438.431511 
L 419.997908 445.485639 
L 421.689381 455.65225 
L 423.380854 465.535686 
L 424.90318 472.868569 
L 426.425505 479.067959 
L 427.947831 484.292412 
L 429.301009 488.191009 
L 430.654188 491.417701 
L 432.007366 494.092747 
L 433.360544 496.293406 
L 434.713723 498.074894 
L 436.066901 499.493945 
L 437.420079 500.608812 
L 438.942405 501.573926 
L 442.156204 503.214684 
L 442.832793 503.393763 
L 443.340235 503.347566 
L 443.847676 503.106237 
L 444.355118 502.643184 
L 445.031708 501.65182 
L 445.708297 500.219429 
L 446.554033 497.829537 
L 447.568917 494.205081 
L 449.091243 487.755054 
L 450.275274 481.80053 
L 451.628452 473.86807 
L 456.026281 446.771282 
L 457.548607 439.554134 
L 459.070933 433.414507 
L 460.593258 428.213085 
L 462.115584 423.823083 
L 463.63791 420.130308 
L 465.160235 417.039216 
L 466.682561 414.472724 
L 468.204886 412.360498 
L 469.727212 410.638462 
L 471.249538 409.248795 
L 472.771863 408.140684 
L 474.463336 407.191221 
L 476.154809 406.492733 
L 478.015429 405.963582 
L 480.045197 405.615447 
L 482.413259 405.443274 
L 485.119616 405.47994 
L 488.502561 405.764923 
L 493.069538 406.388509 
L 496.11419 406.778065 
L 496.621631 406.589732 
L 497.129073 406.210982 
L 497.805662 405.388537 
L 498.482252 404.189108 
L 499.327988 402.159891 
L 500.342872 398.995719 
L 501.526903 394.470059 
L 502.880081 388.402553 
L 504.23326 381.299586 
L 506.263027 369.265791 
L 508.123647 358.592119 
L 509.476826 352.057964 
L 510.830004 346.483991 
L 512.35233 341.180233 
L 513.874655 336.736697 
L 515.227834 333.451928 
L 516.581012 330.71313 
L 517.93419 328.445383 
L 519.287369 326.582166 
L 520.640547 325.065354 
L 522.162872 323.711413 
L 525.207524 321.485084 
L 526.05326 321.132131 
L 526.729849 321.058747 
L 527.406439 321.214149 
L 528.083028 321.631293 
L 528.759617 322.336768 
L 529.436206 323.350799 
L 530.281942 325.072749 
L 531.127679 327.311086 
L 532.142563 330.674163 
L 533.326594 335.485191 
L 534.679772 342.075138 
L 536.371245 351.609303 
L 541.107369 379.070569 
L 542.460547 385.417041 
L 543.982873 391.484178 
L 545.505199 396.627094 
L 547.027524 400.964433 
L 548.54985 404.604468 
L 550.072176 407.645096 
L 551.594501 410.172266 
L 553.116827 412.254058 
L 554.639152 413.9507 
L 556.161478 415.316993 
L 557.683804 416.402192 
L 559.375277 417.330714 
L 561.06675 418.013233 
L 562.92737 418.528259 
L 564.957137 418.862784 
L 567.325199 419.021828 
L 570.031556 418.975839 
L 573.414502 418.68166 
L 576.966595 418.165262 
L 578.827215 417.967033 
L 579.842099 418.076376 
L 580.687835 418.388986 
L 581.364425 418.841498 
L 582.041014 419.524359 
L 582.717603 420.48919 
L 583.394192 421.792395 
L 584.239928 423.990502 
L 585.593107 428.381444 
L 586.777138 433.113444 
L 587.961169 438.901076 
L 589.314347 446.706416 
L 592.86644 467.971555 
L 594.388766 474.906841 
L 595.741944 480.107154 
L 597.095123 484.513885 
L 598.448301 488.231856 
L 599.801479 491.361345 
L 601.154658 493.995855 
L 602.507836 496.196339 
L 603.861014 498.006316 
L 605.214193 499.468978 
L 606.567371 500.627304 
L 608.089697 501.619885 
L 611.472642 503.384834 
L 612.149232 503.471137 
L 612.656673 503.330098 
L 613.164115 502.979359 
L 613.671557 502.398215 
L 614.348146 501.245216 
L 615.024736 499.656992 
L 615.870472 497.095872 
L 617.054503 492.637133 
L 618.407681 486.630876 
L 619.76086 479.529454 
L 621.452333 469.264128 
L 622.636364 461.49656 
L 622.636364 461.49656 
" clip-path="url(#p02a688405f)" style="fill: none; stroke: #ff0000; stroke-width: 1.5; stroke-linecap: square"/>
   </g>
   <g id="patch_9">
    <path d="M 90 512.64 
L 90 311.04 
" style="fill: none; stroke: #000000; stroke-width: 0.8; stroke-linejoin: miter; stroke-linecap: square"/>
   </g>
   <g id="patch_10">
    <path d="M 648 512.64 
L 648 311.04 
" style="fill: none; stroke: #000000; stroke-width: 0.8; stroke-linejoin: miter; stroke-linecap: square"/>
   </g>
   <g id="patch_11">
    <path d="M 90 512.64 
L 648 512.64 
" style="fill: none; stroke: #000000; stroke-width: 0.8; stroke-linejoin: miter; stroke-linecap: square"/>
   </g>
   <g id="patch_12">
    <path d="M 90 311.04 
L 648 311.04 
" style="fill: none; stroke: #000000; stroke-width: 0.8; stroke-linejoin: miter; stroke-linecap: square"/>
   </g>
   <g id="text_35">
    <!-- Velocity Tracking (LQR) -->
    <g transform="translate(299.755313 305.04) scale(0.12 -0.12)">
     <use xlink:href="#DejaVuSans-56"/>
     <use xlink:href="#DejaVuSans-65" transform="translate(60.658203 0)"/>
     <use xlink:href="#DejaVuSans-6c" transform="translate(122.181641 0)"/>
     <use xlink:href="#DejaVuSans-6f" transform="translate(149.964844 0)"/>
     <use xlink:href="#DejaVuSans-63" transform="translate(211.146484 0)"/>
     <use xlink:href="#DejaVuSans-69" transform="translate(266.126953 0)"/>
     <use xlink:href="#DejaVuSans-74" transform="translate(293.910156 0)"/>
     <use xlink:href="#DejaVuSans-79" transform="translate(333.119141 0)"/>
     <use xlink:href="#DejaVuSans-20" transform="translate(392.298828 0)"/>
     <use xlink:href="#DejaVuSans-54" transform="translate(424.085938 0)"/>
     <use xlink:href="#DejaVuSans-72" transform="translate(470.419922 0)"/>
     <use xlink:href="#DejaVuSans-61" transform="translate(511.533203 0)"/>
     <use xlink:href="#DejaVuSans-63" transform="translate(572.8125 0)"/>
     <use xlink:href="#DejaVuSans-6b" transform="translate(627.792969 0)"/>
     <use xlink:href="#DejaVuSans-69" transform="translate(685.703125 0)"/>
     <use xlink:href="#DejaVuSans-6e" transform="translate(713.486328 0)"/>
     <use xlink:href="#DejaVuSans-67" transform="translate(776.865234 0)"/>
     <use xlink:href="#DejaVuSans-20" transform="translate(840.341797 0)"/>
     <use xlink:href="#DejaVuSans-28" transform="translate(872.128906 0)"/>
     <use xlink:href="#DejaVuSans-4c" transform="translate(911.142578 0)"/>
     <use xlink:href="#DejaVuSans-51" transform="translate(966.855469 0)"/>
     <use xlink:href="#DejaVuSans-52" transform="translate(1045.566406 0)"/>
     <use xlink:href="#DejaVuSans-29" transform="translate(1115.048828 0)"/>
    </g>
   </g>
   <g id="legend_2">
    <g id="patch_13">
     <path d="M 97 363.074375 
L 305.748438 363.074375 
Q 307.748438 363.074375 307.748438 361.074375 
L 307.748438 318.04 
Q 307.748438 316.04 305.748438 316.04 
L 97 316.04 
Q 95 316.04 95 318.04 
L 95 361.074375 
Q 95 363.074375 97 363.074375 
z
" style="fill: #ffffff; opacity: 0.8; stroke: #cccccc; stroke-linejoin: miter"/>
    </g>
    <g id="line2d_64">
     <path d="M 99 324.138438 
L 109 324.138438 
L 119 324.138438 
" style="fill: none; stroke-dasharray: 5.55,2.4; stroke-dashoffset: 0; stroke: #000000; stroke-width: 1.5"/>
    </g>
    <g id="text_36">
     <!-- Reference Velocity -->
     <g transform="translate(127 327.638438) scale(0.1 -0.1)">
      <use xlink:href="#DejaVuSans-52"/>
      <use xlink:href="#DejaVuSans-65" transform="translate(64.982422 0)"/>
      <use xlink:href="#DejaVuSans-66" transform="translate(126.505859 0)"/>
      <use xlink:href="#DejaVuSans-65" transform="translate(161.710938 0)"/>
      <use xlink:href="#DejaVuSans-72" transform="translate(223.234375 0)"/>
      <use xlink:href="#DejaVuSans-65" transform="translate(262.097656 0)"/>
      <use xlink:href="#DejaVuSans-6e" transform="translate(323.621094 0)"/>
      <use xlink:href="#DejaVuSans-63" transform="translate(387 0)"/>
      <use xlink:href="#DejaVuSans-65" transform="translate(441.980469 0)"/>
      <use xlink:href="#DejaVuSans-20" transform="translate(503.503906 0)"/>
      <use xlink:href="#DejaVuSans-56" transform="translate(535.291016 0)"/>
      <use xlink:href="#DejaVuSans-65" transform="translate(595.949219 0)"/>
      <use xlink:href="#DejaVuSans-6c" transform="translate(657.472656 0)"/>
      <use xlink:href="#DejaVuSans-6f" transform="translate(685.255859 0)"/>
      <use xlink:href="#DejaVuSans-63" transform="translate(746.4375 0)"/>
      <use xlink:href="#DejaVuSans-69" transform="translate(801.417969 0)"/>
      <use xlink:href="#DejaVuSans-74" transform="translate(829.201172 0)"/>
      <use xlink:href="#DejaVuSans-79" transform="translate(868.410156 0)"/>
     </g>
    </g>
    <g id="line2d_65">
     <path d="M 99 338.816562 
L 109 338.816562 
L 119 338.816562 
" style="fill: none; stroke: #0000ff; stroke-width: 1.5; stroke-linecap: square"/>
    </g>
    <g id="text_37">
     <!-- Velocity with Feedforward (LQR) -->
     <g transform="translate(127 342.316562) scale(0.1 -0.1)">
      <use xlink:href="#DejaVuSans-56"/>
      <use xlink:href="#DejaVuSans-65" transform="translate(60.658203 0)"/>
      <use xlink:href="#DejaVuSans-6c" transform="translate(122.181641 0)"/>
      <use xlink:href="#DejaVuSans-6f" transform="translate(149.964844 0)"/>
      <use xlink:href="#DejaVuSans-63" transform="translate(211.146484 0)"/>
      <use xlink:href="#DejaVuSans-69" transform="translate(266.126953 0)"/>
      <use xlink:href="#DejaVuSans-74" transform="translate(293.910156 0)"/>
      <use xlink:href="#DejaVuSans-79" transform="translate(333.119141 0)"/>
      <use xlink:href="#DejaVuSans-20" transform="translate(392.298828 0)"/>
      <use xlink:href="#DejaVuSans-77" transform="translate(424.085938 0)"/>
      <use xlink:href="#DejaVuSans-69" transform="translate(505.873047 0)"/>
      <use xlink:href="#DejaVuSans-74" transform="translate(533.65625 0)"/>
      <use xlink:href="#DejaVuSans-68" transform="translate(572.865234 0)"/>
      <use xlink:href="#DejaVuSans-20" transform="translate(636.244141 0)"/>
      <use xlink:href="#DejaVuSans-46" transform="translate(668.03125 0)"/>
      <use xlink:href="#DejaVuSans-65" transform="translate(720.050781 0)"/>
      <use xlink:href="#DejaVuSans-65" transform="translate(781.574219 0)"/>
      <use xlink:href="#DejaVuSans-64" transform="translate(843.097656 0)"/>
      <use xlink:href="#DejaVuSans-66" transform="translate(906.574219 0)"/>
      <use xlink:href="#DejaVuSans-6f" transform="translate(941.779297 0)"/>
      <use xlink:href="#DejaVuSans-72" transform="translate(1002.960938 0)"/>
      <use xlink:href="#DejaVuSans-77" transform="translate(1044.074219 0)"/>
      <use xlink:href="#DejaVuSans-61" transform="translate(1125.861328 0)"/>
      <use xlink:href="#DejaVuSans-72" transform="translate(1187.140625 0)"/>
      <use xlink:href="#DejaVuSans-64" transform="translate(1226.503906 0)"/>
      <use xlink:href="#DejaVuSans-20" transform="translate(1289.980469 0)"/>
      <use xlink:href="#DejaVuSans-28" transform="translate(1321.767578 0)"/>
      <use xlink:href="#DejaVuSans-4c" transform="translate(1360.78125 0)"/>
      <use xlink:href="#DejaVuSans-51" transform="translate(1416.494141 0)"/>
      <use xlink:href="#DejaVuSans-52" transform="translate(1495.205078 0)"/>
      <use xlink:href="#DejaVuSans-29" transform="translate(1564.6875 0)"/>
     </g>
    </g>
    <g id="line2d_66">
     <path d="M 99 353.494687 
L 109 353.494687 
L 119 353.494687 
" style="fill: none; stroke: #ff0000; stroke-width: 1.5; stroke-linecap: square"/>
    </g>
    <g id="text_38">
     <!-- Velocity without Feedforward (LQR) -->
     <g transform="translate(127 356.994687) scale(0.1 -0.1)">
      <use xlink:href="#DejaVuSans-56"/>
      <use xlink:href="#DejaVuSans-65" transform="translate(60.658203 0)"/>
      <use xlink:href="#DejaVuSans-6c" transform="translate(122.181641 0)"/>
      <use xlink:href="#DejaVuSans-6f" transform="translate(149.964844 0)"/>
      <use xlink:href="#DejaVuSans-63" transform="translate(211.146484 0)"/>
      <use xlink:href="#DejaVuSans-69" transform="translate(266.126953 0)"/>
      <use xlink:href="#DejaVuSans-74" transform="translate(293.910156 0)"/>
      <use xlink:href="#DejaVuSans-79" transform="translate(333.119141 0)"/>
      <use xlink:href="#DejaVuSans-20" transform="translate(392.298828 0)"/>
      <use xlink:href="#DejaVuSans-77" transform="translate(424.085938 0)"/>
      <use xlink:href="#DejaVuSans-69" transform="translate(505.873047 0)"/>
      <use xlink:href="#DejaVuSans-74" transform="translate(533.65625 0)"/>
      <use xlink:href="#DejaVuSans-68" transform="translate(572.865234 0)"/>
      <use xlink:href="#DejaVuSans-6f" transform="translate(636.244141 0)"/>
      <use xlink:href="#DejaVuSans-75" transform="translate(697.425781 0)"/>
      <use xlink:href="#DejaVuSans-74" transform="translate(760.804688 0)"/>
      <use xlink:href="#DejaVuSans-20" transform="translate(800.013672 0)"/>
      <use xlink:href="#DejaVuSans-46" transform="translate(831.800781 0)"/>
      <use xlink:href="#DejaVuSans-65" transform="translate(883.820312 0)"/>
      <use xlink:href="#DejaVuSans-65" transform="translate(945.34375 0)"/>
      <use xlink:href="#DejaVuSans-64" transform="translate(1006.867188 0)"/>
      <use xlink:href="#DejaVuSans-66" transform="translate(1070.34375 0)"/>
      <use xlink:href="#DejaVuSans-6f" transform="translate(1105.548828 0)"/>
      <use xlink:href="#DejaVuSans-72" transform="translate(1166.730469 0)"/>
      <use xlink:href="#DejaVuSans-77" transform="translate(1207.84375 0)"/>
      <use xlink:href="#DejaVuSans-61" transform="translate(1289.630859 0)"/>
      <use xlink:href="#DejaVuSans-72" transform="translate(1350.910156 0)"/>
      <use xlink:href="#DejaVuSans-64" transform="translate(1390.273438 0)"/>
      <use xlink:href="#DejaVuSans-20" transform="translate(1453.75 0)"/>
      <use xlink:href="#DejaVuSans-28" transform="translate(1485.537109 0)"/>
      <use xlink:href="#DejaVuSans-4c" transform="translate(1524.550781 0)"/>
      <use xlink:href="#DejaVuSans-51" transform="translate(1580.263672 0)"/>
      <use xlink:href="#DejaVuSans-52" transform="translate(1658.974609 0)"/>
      <use xlink:href="#DejaVuSans-29" transform="translate(1728.457031 0)"/>
     </g>
    </g>
   </g>
  </g>
  <g id="text_39">
   <!-- Comparison of Closed-Loop Response with and without Feedforward (LQR) -->
   <g transform="translate(136.705313 20.638125) scale(0.12 -0.12)">
    <defs>
     <path id="DejaVuSans-43" d="M 4122 4306 
L 4122 3641 
Q 3803 3938 3442 4084 
Q 3081 4231 2675 4231 
Q 1875 4231 1450 3742 
Q 1025 3253 1025 2328 
Q 1025 1406 1450 917 
Q 1875 428 2675 428 
Q 3081 428 3442 575 
Q 3803 722 4122 1019 
L 4122 359 
Q 3791 134 3420 21 
Q 3050 -91 2638 -91 
Q 1578 -91 968 557 
Q 359 1206 359 2328 
Q 359 3453 968 4101 
Q 1578 4750 2638 4750 
Q 3056 4750 3426 4639 
Q 3797 4528 4122 4306 
z
" transform="scale(0.015625)"/>
     <path id="DejaVuSans-70" d="M 1159 525 
L 1159 -1331 
L 581 -1331 
L 581 3500 
L 1159 3500 
L 1159 2969 
Q 1341 3281 1617 3432 
Q 1894 3584 2278 3584 
Q 2916 3584 3314 3078 
Q 3713 2572 3713 1747 
Q 3713 922 3314 415 
Q 2916 -91 2278 -91 
Q 1894 -91 1617 61 
Q 1341 213 1159 525 
z
M 3116 1747 
Q 3116 2381 2855 2742 
Q 2594 3103 2138 3103 
Q 1681 3103 1420 2742 
Q 1159 2381 1159 1747 
Q 1159 1113 1420 752 
Q 1681 391 2138 391 
Q 2594 391 2855 752 
Q 3116 1113 3116 1747 
z
" transform="scale(0.015625)"/>
     <path id="DejaVuSans-2d" d="M 313 2009 
L 1997 2009 
L 1997 1497 
L 313 1497 
L 313 2009 
z
" transform="scale(0.015625)"/>
    </defs>
    <use xlink:href="#DejaVuSans-43"/>
    <use xlink:href="#DejaVuSans-6f" transform="translate(69.824219 0)"/>
    <use xlink:href="#DejaVuSans-6d" transform="translate(131.005859 0)"/>
    <use xlink:href="#DejaVuSans-70" transform="translate(228.417969 0)"/>
    <use xlink:href="#DejaVuSans-61" transform="translate(291.894531 0)"/>
    <use xlink:href="#DejaVuSans-72" transform="translate(353.173828 0)"/>
    <use xlink:href="#DejaVuSans-69" transform="translate(394.287109 0)"/>
    <use xlink:href="#DejaVuSans-73" transform="translate(422.070312 0)"/>
    <use xlink:href="#DejaVuSans-6f" transform="translate(474.169922 0)"/>
    <use xlink:href="#DejaVuSans-6e" transform="translate(535.351562 0)"/>
    <use xlink:href="#DejaVuSans-20" transform="translate(598.730469 0)"/>
    <use xlink:href="#DejaVuSans-6f" transform="translate(630.517578 0)"/>
    <use xlink:href="#DejaVuSans-66" transform="translate(691.699219 0)"/>
    <use xlink:href="#DejaVuSans-20" transform="translate(726.904297 0)"/>
    <use xlink:href="#DejaVuSans-43" transform="translate(758.691406 0)"/>
    <use xlink:href="#DejaVuSans-6c" transform="translate(828.515625 0)"/>
    <use xlink:href="#DejaVuSans-6f" transform="translate(856.298828 0)"/>
    <use xlink:href="#DejaVuSans-73" transform="translate(917.480469 0)"/>
    <use xlink:href="#DejaVuSans-65" transform="translate(969.580078 0)"/>
    <use xlink:href="#DejaVuSans-64" transform="translate(1031.103516 0)"/>
    <use xlink:href="#DejaVuSans-2d" transform="translate(1094.580078 0)"/>
    <use xlink:href="#DejaVuSans-4c" transform="translate(1130.664062 0)"/>
    <use xlink:href="#DejaVuSans-6f" transform="translate(1184.626953 0)"/>
    <use xlink:href="#DejaVuSans-6f" transform="translate(1245.808594 0)"/>
    <use xlink:href="#DejaVuSans-70" transform="translate(1306.990234 0)"/>
    <use xlink:href="#DejaVuSans-20" transform="translate(1370.466797 0)"/>
    <use xlink:href="#DejaVuSans-52" transform="translate(1402.253906 0)"/>
    <use xlink:href="#DejaVuSans-65" transform="translate(1467.236328 0)"/>
    <use xlink:href="#DejaVuSans-73" transform="translate(1528.759766 0)"/>
    <use xlink:href="#DejaVuSans-70" transform="translate(1580.859375 0)"/>
    <use xlink:href="#DejaVuSans-6f" transform="translate(1644.335938 0)"/>
    <use xlink:href="#DejaVuSans-6e" transform="translate(1705.517578 0)"/>
    <use xlink:href="#DejaVuSans-73" transform="translate(1768.896484 0)"/>
    <use xlink:href="#DejaVuSans-65" transform="translate(1820.996094 0)"/>
    <use xlink:href="#DejaVuSans-20" transform="translate(1882.519531 0)"/>
    <use xlink:href="#DejaVuSans-77" transform="translate(1914.306641 0)"/>
    <use xlink:href="#DejaVuSans-69" transform="translate(1996.09375 0)"/>
    <use xlink:href="#DejaVuSans-74" transform="translate(2023.876953 0)"/>
    <use xlink:href="#DejaVuSans-68" transform="translate(2063.085938 0)"/>
    <use xlink:href="#DejaVuSans-20" transform="translate(2126.464844 0)"/>
    <use xlink:href="#DejaVuSans-61" transform="translate(2158.251953 0)"/>
    <use xlink:href="#DejaVuSans-6e" transform="translate(2219.53125 0)"/>
    <use xlink:href="#DejaVuSans-64" transform="translate(2282.910156 0)"/>
    <use xlink:href="#DejaVuSans-20" transform="translate(2346.386719 0)"/>
    <use xlink:href="#DejaVuSans-77" transform="translate(2378.173828 0)"/>
    <use xlink:href="#DejaVuSans-69" transform="translate(2459.960938 0)"/>
    <use xlink:href="#DejaVuSans-74" transform="translate(2487.744141 0)"/>
    <use xlink:href="#DejaVuSans-68" transform="translate(2526.953125 0)"/>
    <use xlink:href="#DejaVuSans-6f" transform="translate(2590.332031 0)"/>
    <use xlink:href="#DejaVuSans-75" transform="translate(2651.513672 0)"/>
    <use xlink:href="#DejaVuSans-74" transform="translate(2714.892578 0)"/>
    <use xlink:href="#DejaVuSans-20" transform="translate(2754.101562 0)"/>
    <use xlink:href="#DejaVuSans-46" transform="translate(2785.888672 0)"/>
    <use xlink:href="#DejaVuSans-65" transform="translate(2837.908203 0)"/>
    <use xlink:href="#DejaVuSans-65" transform="translate(2899.431641 0)"/>
    <use xlink:href="#DejaVuSans-64" transform="translate(2960.955078 0)"/>
    <use xlink:href="#DejaVuSans-66" transform="translate(3024.431641 0)"/>
    <use xlink:href="#DejaVuSans-6f" transform="translate(3059.636719 0)"/>
    <use xlink:href="#DejaVuSans-72" transform="translate(3120.818359 0)"/>
    <use xlink:href="#DejaVuSans-77" transform="translate(3161.931641 0)"/>
    <use xlink:href="#DejaVuSans-61" transform="translate(3243.71875 0)"/>
    <use xlink:href="#DejaVuSans-72" transform="translate(3304.998047 0)"/>
    <use xlink:href="#DejaVuSans-64" transform="translate(3344.361328 0)"/>
    <use xlink:href="#DejaVuSans-20" transform="translate(3407.837891 0)"/>
    <use xlink:href="#DejaVuSans-28" transform="translate(3439.625 0)"/>
    <use xlink:href="#DejaVuSans-4c" transform="translate(3478.638672 0)"/>
    <use xlink:href="#DejaVuSans-51" transform="translate(3534.351562 0)"/>
    <use xlink:href="#DejaVuSans-52" transform="translate(3613.0625 0)"/>
    <use xlink:href="#DejaVuSans-29" transform="translate(3682.544922 0)"/>
   </g>
  </g>
 </g>
 <defs>
  <clipPath id="p59a1171397">
   <rect x="90" y="69.12" width="558" height="201.6"/>
  </clipPath>
  <clipPath id="p02a688405f">
   <rect x="90" y="311.04" width="558" height="201.6"/>
  </clipPath>
 </defs>
</svg>
