<?xml version="1.0" encoding="utf-8" standalone="no"?>
<!DOCTYPE svg PUBLIC "-//W3C//DTD SVG 1.1//EN"
  "http://www.w3.org/Graphics/SVG/1.1/DTD/svg11.dtd">
<svg xmlns:xlink="http://www.w3.org/1999/xlink" width="720pt" height="576pt" viewBox="0 0 720 576" xmlns="http://www.w3.org/2000/svg" version="1.1">
 <metadata>
  <rdf:RDF xmlns:dc="http://purl.org/dc/elements/1.1/" xmlns:cc="http://creativecommons.org/ns#" xmlns:rdf="http://www.w3.org/1999/02/22-rdf-syntax-ns#">
   <cc:Work>
    <dc:type rdf:resource="http://purl.org/dc/dcmitype/StillImage"/>
    <dc:date>2025-01-21T17:37:35.594373</dc:date>
    <dc:format>image/svg+xml</dc:format>
    <dc:creator>
     <cc:Agent>
      <dc:title>Matplotlib v3.10.0, https://matplotlib.org/</dc:title>
     </cc:Agent>
    </dc:creator>
   </cc:Work>
  </rdf:RDF>
 </metadata>
 <defs>
  <style type="text/css">*{stroke-linejoin: round; stroke-linecap: butt}</style>
 </defs>
 <g id="figure_1">
  <g id="patch_1">
   <path d="M 0 576 
L 720 576 
L 720 0 
L 0 0 
z
" style="fill: #ffffff"/>
  </g>
  <g id="axes_1">
   <g id="patch_2">
    <path d="M 90 270.72 
L 648 270.72 
L 648 69.12 
L 90 69.12 
z
" style="fill: #ffffff"/>
   </g>
   <g id="matplotlib.axis_1">
    <g id="xtick_1">
     <g id="line2d_1">
      <path d="M 115.363636 270.72 
L 115.363636 69.12 
" clip-path="url(#pf3ec6200c7)" style="fill: none; stroke: #b0b0b0; stroke-width: 0.8; stroke-linecap: square"/>
     </g>
     <g id="line2d_2">
      <defs>
       <path id="md0afe024ba" d="M 0 0 
L 0 3.5 
" style="stroke: #000000; stroke-width: 0.8"/>
      </defs>
      <g>
       <use xlink:href="#md0afe024ba" x="115.363636" y="270.72" style="stroke: #000000; stroke-width: 0.8"/>
      </g>
     </g>
     <g id="text_1">
      <!-- 0.0 -->
      <g transform="translate(107.412074 285.318437) scale(0.1 -0.1)">
       <defs>
        <path id="DejaVuSans-30" d="M 2034 4250 
Q 1547 4250 1301 3770 
Q 1056 3291 1056 2328 
Q 1056 1369 1301 889 
Q 1547 409 2034 409 
Q 2525 409 2770 889 
Q 3016 1369 3016 2328 
Q 3016 3291 2770 3770 
Q 2525 4250 2034 4250 
z
M 2034 4750 
Q 2819 4750 3233 4129 
Q 3647 3509 3647 2328 
Q 3647 1150 3233 529 
Q 2819 -91 2034 -91 
Q 1250 -91 836 529 
Q 422 1150 422 2328 
Q 422 3509 836 4129 
Q 1250 4750 2034 4750 
z
" transform="scale(0.015625)"/>
        <path id="DejaVuSans-2e" d="M 684 794 
L 1344 794 
L 1344 0 
L 684 0 
L 684 794 
z
" transform="scale(0.015625)"/>
       </defs>
       <use xlink:href="#DejaVuSans-30"/>
       <use xlink:href="#DejaVuSans-2e" transform="translate(63.623047 0)"/>
       <use xlink:href="#DejaVuSans-30" transform="translate(95.410156 0)"/>
      </g>
     </g>
    </g>
    <g id="xtick_2">
     <g id="line2d_3">
      <path d="M 221.045455 270.72 
L 221.045455 69.12 
" clip-path="url(#pf3ec6200c7)" style="fill: none; stroke: #b0b0b0; stroke-width: 0.8; stroke-linecap: square"/>
     </g>
     <g id="line2d_4">
      <g>
       <use xlink:href="#md0afe024ba" x="221.045455" y="270.72" style="stroke: #000000; stroke-width: 0.8"/>
      </g>
     </g>
     <g id="text_2">
      <!-- 0.5 -->
      <g transform="translate(213.093892 285.318437) scale(0.1 -0.1)">
       <defs>
        <path id="DejaVuSans-35" d="M 691 4666 
L 3169 4666 
L 3169 4134 
L 1269 4134 
L 1269 2991 
Q 1406 3038 1543 3061 
Q 1681 3084 1819 3084 
Q 2600 3084 3056 2656 
Q 3513 2228 3513 1497 
Q 3513 744 3044 326 
Q 2575 -91 1722 -91 
Q 1428 -91 1123 -41 
Q 819 9 494 109 
L 494 744 
Q 775 591 1075 516 
Q 1375 441 1709 441 
Q 2250 441 2565 725 
Q 2881 1009 2881 1497 
Q 2881 1984 2565 2268 
Q 2250 2553 1709 2553 
Q 1456 2553 1204 2497 
Q 953 2441 691 2322 
L 691 4666 
z
" transform="scale(0.015625)"/>
       </defs>
       <use xlink:href="#DejaVuSans-30"/>
       <use xlink:href="#DejaVuSans-2e" transform="translate(63.623047 0)"/>
       <use xlink:href="#DejaVuSans-35" transform="translate(95.410156 0)"/>
      </g>
     </g>
    </g>
    <g id="xtick_3">
     <g id="line2d_5">
      <path d="M 326.727273 270.72 
L 326.727273 69.12 
" clip-path="url(#pf3ec6200c7)" style="fill: none; stroke: #b0b0b0; stroke-width: 0.8; stroke-linecap: square"/>
     </g>
     <g id="line2d_6">
      <g>
       <use xlink:href="#md0afe024ba" x="326.727273" y="270.72" style="stroke: #000000; stroke-width: 0.8"/>
      </g>
     </g>
     <g id="text_3">
      <!-- 1.0 -->
      <g transform="translate(318.77571 285.318437) scale(0.1 -0.1)">
       <defs>
        <path id="DejaVuSans-31" d="M 794 531 
L 1825 531 
L 1825 4091 
L 703 3866 
L 703 4441 
L 1819 4666 
L 2450 4666 
L 2450 531 
L 3481 531 
L 3481 0 
L 794 0 
L 794 531 
z
" transform="scale(0.015625)"/>
       </defs>
       <use xlink:href="#DejaVuSans-31"/>
       <use xlink:href="#DejaVuSans-2e" transform="translate(63.623047 0)"/>
       <use xlink:href="#DejaVuSans-30" transform="translate(95.410156 0)"/>
      </g>
     </g>
    </g>
    <g id="xtick_4">
     <g id="line2d_7">
      <path d="M 432.409091 270.72 
L 432.409091 69.12 
" clip-path="url(#pf3ec6200c7)" style="fill: none; stroke: #b0b0b0; stroke-width: 0.8; stroke-linecap: square"/>
     </g>
     <g id="line2d_8">
      <g>
       <use xlink:href="#md0afe024ba" x="432.409091" y="270.72" style="stroke: #000000; stroke-width: 0.8"/>
      </g>
     </g>
     <g id="text_4">
      <!-- 1.5 -->
      <g transform="translate(424.457528 285.318437) scale(0.1 -0.1)">
       <use xlink:href="#DejaVuSans-31"/>
       <use xlink:href="#DejaVuSans-2e" transform="translate(63.623047 0)"/>
       <use xlink:href="#DejaVuSans-35" transform="translate(95.410156 0)"/>
      </g>
     </g>
    </g>
    <g id="xtick_5">
     <g id="line2d_9">
      <path d="M 538.090909 270.72 
L 538.090909 69.12 
" clip-path="url(#pf3ec6200c7)" style="fill: none; stroke: #b0b0b0; stroke-width: 0.8; stroke-linecap: square"/>
     </g>
     <g id="line2d_10">
      <g>
       <use xlink:href="#md0afe024ba" x="538.090909" y="270.72" style="stroke: #000000; stroke-width: 0.8"/>
      </g>
     </g>
     <g id="text_5">
      <!-- 2.0 -->
      <g transform="translate(530.139347 285.318437) scale(0.1 -0.1)">
       <defs>
        <path id="DejaVuSans-32" d="M 1228 531 
L 3431 531 
L 3431 0 
L 469 0 
L 469 531 
Q 828 903 1448 1529 
Q 2069 2156 2228 2338 
Q 2531 2678 2651 2914 
Q 2772 3150 2772 3378 
Q 2772 3750 2511 3984 
Q 2250 4219 1831 4219 
Q 1534 4219 1204 4116 
Q 875 4013 500 3803 
L 500 4441 
Q 881 4594 1212 4672 
Q 1544 4750 1819 4750 
Q 2544 4750 2975 4387 
Q 3406 4025 3406 3419 
Q 3406 3131 3298 2873 
Q 3191 2616 2906 2266 
Q 2828 2175 2409 1742 
Q 1991 1309 1228 531 
z
" transform="scale(0.015625)"/>
       </defs>
       <use xlink:href="#DejaVuSans-32"/>
       <use xlink:href="#DejaVuSans-2e" transform="translate(63.623047 0)"/>
       <use xlink:href="#DejaVuSans-30" transform="translate(95.410156 0)"/>
      </g>
     </g>
    </g>
    <g id="xtick_6">
     <g id="line2d_11">
      <path d="M 643.772727 270.72 
L 643.772727 69.12 
" clip-path="url(#pf3ec6200c7)" style="fill: none; stroke: #b0b0b0; stroke-width: 0.8; stroke-linecap: square"/>
     </g>
     <g id="line2d_12">
      <g>
       <use xlink:href="#md0afe024ba" x="643.772727" y="270.72" style="stroke: #000000; stroke-width: 0.8"/>
      </g>
     </g>
     <g id="text_6">
      <!-- 2.5 -->
      <g transform="translate(635.821165 285.318437) scale(0.1 -0.1)">
       <use xlink:href="#DejaVuSans-32"/>
       <use xlink:href="#DejaVuSans-2e" transform="translate(63.623047 0)"/>
       <use xlink:href="#DejaVuSans-35" transform="translate(95.410156 0)"/>
      </g>
     </g>
    </g>
   </g>
   <g id="matplotlib.axis_2">
    <g id="ytick_1">
     <g id="line2d_13">
      <path d="M 90 258.058581 
L 648 258.058581 
" clip-path="url(#pf3ec6200c7)" style="fill: none; stroke: #b0b0b0; stroke-width: 0.8; stroke-linecap: square"/>
     </g>
     <g id="line2d_14">
      <defs>
       <path id="md06f7d071d" d="M 0 0 
L -3.5 0 
" style="stroke: #000000; stroke-width: 0.8"/>
      </defs>
      <g>
       <use xlink:href="#md06f7d071d" x="90" y="258.058581" style="stroke: #000000; stroke-width: 0.8"/>
      </g>
     </g>
     <g id="text_7">
      <!-- 0.0 -->
      <g transform="translate(67.096875 261.8578) scale(0.1 -0.1)">
       <use xlink:href="#DejaVuSans-30"/>
       <use xlink:href="#DejaVuSans-2e" transform="translate(63.623047 0)"/>
       <use xlink:href="#DejaVuSans-30" transform="translate(95.410156 0)"/>
      </g>
     </g>
    </g>
    <g id="ytick_2">
     <g id="line2d_15">
      <path d="M 90 222.819611 
L 648 222.819611 
" clip-path="url(#pf3ec6200c7)" style="fill: none; stroke: #b0b0b0; stroke-width: 0.8; stroke-linecap: square"/>
     </g>
     <g id="line2d_16">
      <g>
       <use xlink:href="#md06f7d071d" x="90" y="222.819611" style="stroke: #000000; stroke-width: 0.8"/>
      </g>
     </g>
     <g id="text_8">
      <!-- 0.2 -->
      <g transform="translate(67.096875 226.61883) scale(0.1 -0.1)">
       <use xlink:href="#DejaVuSans-30"/>
       <use xlink:href="#DejaVuSans-2e" transform="translate(63.623047 0)"/>
       <use xlink:href="#DejaVuSans-32" transform="translate(95.410156 0)"/>
      </g>
     </g>
    </g>
    <g id="ytick_3">
     <g id="line2d_17">
      <path d="M 90 187.580641 
L 648 187.580641 
" clip-path="url(#pf3ec6200c7)" style="fill: none; stroke: #b0b0b0; stroke-width: 0.8; stroke-linecap: square"/>
     </g>
     <g id="line2d_18">
      <g>
       <use xlink:href="#md06f7d071d" x="90" y="187.580641" style="stroke: #000000; stroke-width: 0.8"/>
      </g>
     </g>
     <g id="text_9">
      <!-- 0.4 -->
      <g transform="translate(67.096875 191.37986) scale(0.1 -0.1)">
       <defs>
        <path id="DejaVuSans-34" d="M 2419 4116 
L 825 1625 
L 2419 1625 
L 2419 4116 
z
M 2253 4666 
L 3047 4666 
L 3047 1625 
L 3713 1625 
L 3713 1100 
L 3047 1100 
L 3047 0 
L 2419 0 
L 2419 1100 
L 313 1100 
L 313 1709 
L 2253 4666 
z
" transform="scale(0.015625)"/>
       </defs>
       <use xlink:href="#DejaVuSans-30"/>
       <use xlink:href="#DejaVuSans-2e" transform="translate(63.623047 0)"/>
       <use xlink:href="#DejaVuSans-34" transform="translate(95.410156 0)"/>
      </g>
     </g>
    </g>
    <g id="ytick_4">
     <g id="line2d_19">
      <path d="M 90 152.341671 
L 648 152.341671 
" clip-path="url(#pf3ec6200c7)" style="fill: none; stroke: #b0b0b0; stroke-width: 0.8; stroke-linecap: square"/>
     </g>
     <g id="line2d_20">
      <g>
       <use xlink:href="#md06f7d071d" x="90" y="152.341671" style="stroke: #000000; stroke-width: 0.8"/>
      </g>
     </g>
     <g id="text_10">
      <!-- 0.6 -->
      <g transform="translate(67.096875 156.14089) scale(0.1 -0.1)">
       <defs>
        <path id="DejaVuSans-36" d="M 2113 2584 
Q 1688 2584 1439 2293 
Q 1191 2003 1191 1497 
Q 1191 994 1439 701 
Q 1688 409 2113 409 
Q 2538 409 2786 701 
Q 3034 994 3034 1497 
Q 3034 2003 2786 2293 
Q 2538 2584 2113 2584 
z
M 3366 4563 
L 3366 3988 
Q 3128 4100 2886 4159 
Q 2644 4219 2406 4219 
Q 1781 4219 1451 3797 
Q 1122 3375 1075 2522 
Q 1259 2794 1537 2939 
Q 1816 3084 2150 3084 
Q 2853 3084 3261 2657 
Q 3669 2231 3669 1497 
Q 3669 778 3244 343 
Q 2819 -91 2113 -91 
Q 1303 -91 875 529 
Q 447 1150 447 2328 
Q 447 3434 972 4092 
Q 1497 4750 2381 4750 
Q 2619 4750 2861 4703 
Q 3103 4656 3366 4563 
z
" transform="scale(0.015625)"/>
       </defs>
       <use xlink:href="#DejaVuSans-30"/>
       <use xlink:href="#DejaVuSans-2e" transform="translate(63.623047 0)"/>
       <use xlink:href="#DejaVuSans-36" transform="translate(95.410156 0)"/>
      </g>
     </g>
    </g>
    <g id="ytick_5">
     <g id="line2d_21">
      <path d="M 90 117.102701 
L 648 117.102701 
" clip-path="url(#pf3ec6200c7)" style="fill: none; stroke: #b0b0b0; stroke-width: 0.8; stroke-linecap: square"/>
     </g>
     <g id="line2d_22">
      <g>
       <use xlink:href="#md06f7d071d" x="90" y="117.102701" style="stroke: #000000; stroke-width: 0.8"/>
      </g>
     </g>
     <g id="text_11">
      <!-- 0.8 -->
      <g transform="translate(67.096875 120.90192) scale(0.1 -0.1)">
       <defs>
        <path id="DejaVuSans-38" d="M 2034 2216 
Q 1584 2216 1326 1975 
Q 1069 1734 1069 1313 
Q 1069 891 1326 650 
Q 1584 409 2034 409 
Q 2484 409 2743 651 
Q 3003 894 3003 1313 
Q 3003 1734 2745 1975 
Q 2488 2216 2034 2216 
z
M 1403 2484 
Q 997 2584 770 2862 
Q 544 3141 544 3541 
Q 544 4100 942 4425 
Q 1341 4750 2034 4750 
Q 2731 4750 3128 4425 
Q 3525 4100 3525 3541 
Q 3525 3141 3298 2862 
Q 3072 2584 2669 2484 
Q 3125 2378 3379 2068 
Q 3634 1759 3634 1313 
Q 3634 634 3220 271 
Q 2806 -91 2034 -91 
Q 1263 -91 848 271 
Q 434 634 434 1313 
Q 434 1759 690 2068 
Q 947 2378 1403 2484 
z
M 1172 3481 
Q 1172 3119 1398 2916 
Q 1625 2713 2034 2713 
Q 2441 2713 2670 2916 
Q 2900 3119 2900 3481 
Q 2900 3844 2670 4047 
Q 2441 4250 2034 4250 
Q 1625 4250 1398 4047 
Q 1172 3844 1172 3481 
z
" transform="scale(0.015625)"/>
       </defs>
       <use xlink:href="#DejaVuSans-30"/>
       <use xlink:href="#DejaVuSans-2e" transform="translate(63.623047 0)"/>
       <use xlink:href="#DejaVuSans-38" transform="translate(95.410156 0)"/>
      </g>
     </g>
    </g>
    <g id="ytick_6">
     <g id="line2d_23">
      <path d="M 90 81.863732 
L 648 81.863732 
" clip-path="url(#pf3ec6200c7)" style="fill: none; stroke: #b0b0b0; stroke-width: 0.8; stroke-linecap: square"/>
     </g>
     <g id="line2d_24">
      <g>
       <use xlink:href="#md06f7d071d" x="90" y="81.863732" style="stroke: #000000; stroke-width: 0.8"/>
      </g>
     </g>
     <g id="text_12">
      <!-- 1.0 -->
      <g transform="translate(67.096875 85.66295) scale(0.1 -0.1)">
       <use xlink:href="#DejaVuSans-31"/>
       <use xlink:href="#DejaVuSans-2e" transform="translate(63.623047 0)"/>
       <use xlink:href="#DejaVuSans-30" transform="translate(95.410156 0)"/>
      </g>
     </g>
    </g>
    <g id="text_13">
     <!-- Position (m) -->
     <g transform="translate(61.017187 199.745) rotate(-90) scale(0.1 -0.1)">
      <defs>
       <path id="DejaVuSans-50" d="M 1259 4147 
L 1259 2394 
L 2053 2394 
Q 2494 2394 2734 2622 
Q 2975 2850 2975 3272 
Q 2975 3691 2734 3919 
Q 2494 4147 2053 4147 
L 1259 4147 
z
M 628 4666 
L 2053 4666 
Q 2838 4666 3239 4311 
Q 3641 3956 3641 3272 
Q 3641 2581 3239 2228 
Q 2838 1875 2053 1875 
L 1259 1875 
L 1259 0 
L 628 0 
L 628 4666 
z
" transform="scale(0.015625)"/>
       <path id="DejaVuSans-6f" d="M 1959 3097 
Q 1497 3097 1228 2736 
Q 959 2375 959 1747 
Q 959 1119 1226 758 
Q 1494 397 1959 397 
Q 2419 397 2687 759 
Q 2956 1122 2956 1747 
Q 2956 2369 2687 2733 
Q 2419 3097 1959 3097 
z
M 1959 3584 
Q 2709 3584 3137 3096 
Q 3566 2609 3566 1747 
Q 3566 888 3137 398 
Q 2709 -91 1959 -91 
Q 1206 -91 779 398 
Q 353 888 353 1747 
Q 353 2609 779 3096 
Q 1206 3584 1959 3584 
z
" transform="scale(0.015625)"/>
       <path id="DejaVuSans-73" d="M 2834 3397 
L 2834 2853 
Q 2591 2978 2328 3040 
Q 2066 3103 1784 3103 
Q 1356 3103 1142 2972 
Q 928 2841 928 2578 
Q 928 2378 1081 2264 
Q 1234 2150 1697 2047 
L 1894 2003 
Q 2506 1872 2764 1633 
Q 3022 1394 3022 966 
Q 3022 478 2636 193 
Q 2250 -91 1575 -91 
Q 1294 -91 989 -36 
Q 684 19 347 128 
L 347 722 
Q 666 556 975 473 
Q 1284 391 1588 391 
Q 1994 391 2212 530 
Q 2431 669 2431 922 
Q 2431 1156 2273 1281 
Q 2116 1406 1581 1522 
L 1381 1569 
Q 847 1681 609 1914 
Q 372 2147 372 2553 
Q 372 3047 722 3315 
Q 1072 3584 1716 3584 
Q 2034 3584 2315 3537 
Q 2597 3491 2834 3397 
z
" transform="scale(0.015625)"/>
       <path id="DejaVuSans-69" d="M 603 3500 
L 1178 3500 
L 1178 0 
L 603 0 
L 603 3500 
z
M 603 4863 
L 1178 4863 
L 1178 4134 
L 603 4134 
L 603 4863 
z
" transform="scale(0.015625)"/>
       <path id="DejaVuSans-74" d="M 1172 4494 
L 1172 3500 
L 2356 3500 
L 2356 3053 
L 1172 3053 
L 1172 1153 
Q 1172 725 1289 603 
Q 1406 481 1766 481 
L 2356 481 
L 2356 0 
L 1766 0 
Q 1100 0 847 248 
Q 594 497 594 1153 
L 594 3053 
L 172 3053 
L 172 3500 
L 594 3500 
L 594 4494 
L 1172 4494 
z
" transform="scale(0.015625)"/>
       <path id="DejaVuSans-6e" d="M 3513 2113 
L 3513 0 
L 2938 0 
L 2938 2094 
Q 2938 2591 2744 2837 
Q 2550 3084 2163 3084 
Q 1697 3084 1428 2787 
Q 1159 2491 1159 1978 
L 1159 0 
L 581 0 
L 581 3500 
L 1159 3500 
L 1159 2956 
Q 1366 3272 1645 3428 
Q 1925 3584 2291 3584 
Q 2894 3584 3203 3211 
Q 3513 2838 3513 2113 
z
" transform="scale(0.015625)"/>
       <path id="DejaVuSans-20" transform="scale(0.015625)"/>
       <path id="DejaVuSans-28" d="M 1984 4856 
Q 1566 4138 1362 3434 
Q 1159 2731 1159 2009 
Q 1159 1288 1364 580 
Q 1569 -128 1984 -844 
L 1484 -844 
Q 1016 -109 783 600 
Q 550 1309 550 2009 
Q 550 2706 781 3412 
Q 1013 4119 1484 4856 
L 1984 4856 
z
" transform="scale(0.015625)"/>
       <path id="DejaVuSans-6d" d="M 3328 2828 
Q 3544 3216 3844 3400 
Q 4144 3584 4550 3584 
Q 5097 3584 5394 3201 
Q 5691 2819 5691 2113 
L 5691 0 
L 5113 0 
L 5113 2094 
Q 5113 2597 4934 2840 
Q 4756 3084 4391 3084 
Q 3944 3084 3684 2787 
Q 3425 2491 3425 1978 
L 3425 0 
L 2847 0 
L 2847 2094 
Q 2847 2600 2669 2842 
Q 2491 3084 2119 3084 
Q 1678 3084 1418 2786 
Q 1159 2488 1159 1978 
L 1159 0 
L 581 0 
L 581 3500 
L 1159 3500 
L 1159 2956 
Q 1356 3278 1631 3431 
Q 1906 3584 2284 3584 
Q 2666 3584 2933 3390 
Q 3200 3197 3328 2828 
z
" transform="scale(0.015625)"/>
       <path id="DejaVuSans-29" d="M 513 4856 
L 1013 4856 
Q 1481 4119 1714 3412 
Q 1947 2706 1947 2009 
Q 1947 1309 1714 600 
Q 1481 -109 1013 -844 
L 513 -844 
Q 928 -128 1133 580 
Q 1338 1288 1338 2009 
Q 1338 2731 1133 3434 
Q 928 4138 513 4856 
z
" transform="scale(0.015625)"/>
      </defs>
      <use xlink:href="#DejaVuSans-50"/>
      <use xlink:href="#DejaVuSans-6f" transform="translate(56.677734 0)"/>
      <use xlink:href="#DejaVuSans-73" transform="translate(117.859375 0)"/>
      <use xlink:href="#DejaVuSans-69" transform="translate(169.958984 0)"/>
      <use xlink:href="#DejaVuSans-74" transform="translate(197.742188 0)"/>
      <use xlink:href="#DejaVuSans-69" transform="translate(236.951172 0)"/>
      <use xlink:href="#DejaVuSans-6f" transform="translate(264.734375 0)"/>
      <use xlink:href="#DejaVuSans-6e" transform="translate(325.916016 0)"/>
      <use xlink:href="#DejaVuSans-20" transform="translate(389.294922 0)"/>
      <use xlink:href="#DejaVuSans-28" transform="translate(421.082031 0)"/>
      <use xlink:href="#DejaVuSans-6d" transform="translate(460.095703 0)"/>
      <use xlink:href="#DejaVuSans-29" transform="translate(557.507812 0)"/>
     </g>
    </g>
   </g>
   <g id="line2d_25">
    <path d="M 115.363636 258.058581 
L 158.157901 257.979017 
L 158.83449 257.662644 
L 159.511079 257.105223 
L 160.356816 256.069477 
L 161.202552 254.657094 
L 162.217436 252.465077 
L 163.23232 249.730705 
L 164.416351 245.855129 
L 165.600382 241.241347 
L 166.95356 235.064529 
L 168.475886 226.987851 
L 190.803328 103.424216 
L 192.156507 97.458314 
L 193.509685 92.456598 
L 194.693716 88.87103 
L 195.877747 86.023668 
L 196.892631 84.170622 
L 197.738367 83.040717 
L 198.584104 82.287446 
L 199.260693 81.956007 
L 199.937282 81.863732 
L 242.731547 81.96966 
L 243.408136 82.316165 
L 244.084725 82.903716 
L 244.930462 83.977126 
L 245.776198 85.427172 
L 246.791082 87.664385 
L 247.805966 90.443953 
L 248.989997 94.372259 
L 250.343175 99.765675 
L 251.696353 106.123278 
L 253.387826 115.286078 
L 275.207827 236.093214 
L 276.561005 242.119378 
L 277.914184 247.181356 
L 279.098215 250.819652 
L 280.282246 253.719743 
L 281.297129 255.617985 
L 282.142866 256.785554 
L 282.988602 257.576488 
L 283.665191 257.938058 
L 284.341781 258.058581 
L 327.305193 257.979017 
L 327.981782 257.662644 
L 328.658371 257.105223 
L 329.504107 256.069477 
L 330.349844 254.657094 
L 331.364728 252.465077 
L 332.379611 249.730705 
L 333.563642 245.855129 
L 334.747673 241.241347 
L 336.100852 235.064529 
L 337.623177 226.987851 
L 359.95062 103.424216 
L 361.303798 97.458314 
L 362.656977 92.456598 
L 363.841008 88.87103 
L 365.025039 86.023668 
L 366.039922 84.170622 
L 366.885659 83.040717 
L 367.731395 82.287446 
L 368.407984 81.956007 
L 369.084574 81.863732 
L 411.878838 81.96966 
L 412.555428 82.316165 
L 413.232017 82.903716 
L 414.077753 83.977126 
L 414.92349 85.427172 
L 415.938373 87.664385 
L 416.953257 90.443953 
L 418.137288 94.372259 
L 419.490467 99.765675 
L 420.843645 106.123278 
L 422.535118 115.286078 
L 444.355118 236.093214 
L 445.708297 242.119378 
L 447.061475 247.181356 
L 448.245506 250.819652 
L 449.429537 253.719743 
L 450.444421 255.617985 
L 451.290157 256.785554 
L 452.135894 257.576488 
L 452.812483 257.938058 
L 453.489072 258.058581 
L 496.452484 257.979017 
L 497.129073 257.662644 
L 497.805662 257.105223 
L 498.651399 256.069477 
L 499.497135 254.657094 
L 500.512019 252.465077 
L 501.526903 249.730705 
L 502.710934 245.855129 
L 503.894965 241.241347 
L 505.248143 235.064529 
L 506.770469 226.987851 
L 529.097911 103.424216 
L 530.45109 97.458314 
L 531.804268 92.456598 
L 532.988299 88.87103 
L 534.17233 86.023668 
L 535.187214 84.170622 
L 536.03295 83.040717 
L 536.878687 82.287446 
L 537.555276 81.956007 
L 538.231865 81.863732 
L 581.02613 81.96966 
L 581.702719 82.316165 
L 582.379308 82.903716 
L 583.225045 83.977126 
L 584.070781 85.427172 
L 585.085665 87.664385 
L 586.100549 90.443953 
L 587.28458 94.372259 
L 588.637758 99.765675 
L 589.990936 106.123278 
L 591.682409 115.286078 
L 613.50241 236.093214 
L 614.855588 242.119378 
L 616.208767 247.181356 
L 617.392798 250.819652 
L 618.576829 253.719743 
L 619.591712 255.617985 
L 620.437449 256.785554 
L 621.283185 257.576488 
L 621.959774 257.938058 
L 622.636364 258.058581 
L 622.636364 258.058581 
" clip-path="url(#pf3ec6200c7)" style="fill: none; stroke-dasharray: 5.55,2.4; stroke-dashoffset: 0; stroke: #000000; stroke-width: 1.5"/>
   </g>
   <g id="line2d_26">
    <path d="M 115.363636 258.058581 
L 158.157901 257.967898 
L 158.83449 257.646834 
L 159.511079 257.094909 
L 160.356816 256.077441 
L 161.202552 254.683757 
L 162.217436 252.496734 
L 163.23232 249.745379 
L 164.416351 245.874968 
L 165.600382 241.238407 
L 166.95356 235.05029 
L 168.306739 227.887306 
L 175.918367 185.536869 
L 190.803328 103.623668 
L 192.325654 96.985882 
L 193.678832 92.096213 
L 194.862863 88.604508 
L 195.877747 86.195082 
L 196.892631 84.349029 
L 197.738367 83.214071 
L 198.584104 82.457425 
L 199.260693 82.111433 
L 199.937282 82.010165 
L 206.364879 81.945282 
L 242.5624 81.891604 
L 243.238989 82.119581 
L 243.915578 82.621486 
L 244.761314 83.607265 
L 245.607051 84.967584 
L 246.621935 87.126793 
L 247.636818 89.812851 
L 248.820849 93.620676 
L 250.00488 98.155041 
L 251.358059 104.24488 
L 252.711237 111.334628 
L 275.546121 237.569164 
L 276.8993 243.359904 
L 278.252478 248.186807 
L 279.436509 251.629444 
L 280.451393 253.988655 
L 281.466277 255.788594 
L 282.312013 256.87149 
L 283.15775 257.571171 
L 283.834339 257.859136 
L 284.680075 257.927056 
L 293.644882 257.984433 
L 327.136045 257.998442 
L 327.812635 257.730229 
L 328.489224 257.227402 
L 329.33496 256.269083 
L 330.180697 254.934024 
L 331.19558 252.841551 
L 332.210464 250.209862 
L 333.394495 246.456158 
L 334.578526 241.939662 
L 335.931705 235.887637 
L 337.45403 227.954722 
L 350.478372 155.606302 
L 360.119767 102.695411 
L 361.472946 96.865683 
L 362.826124 91.994473 
L 364.010155 88.516907 
L 365.025039 86.118701 
L 366.039922 84.262302 
L 366.885659 83.12753 
L 367.731395 82.379872 
L 368.407984 82.045419 
L 369.084574 81.953208 
L 411.709691 81.924374 
L 412.38628 82.205586 
L 413.062869 82.734351 
L 413.908606 83.742659 
L 414.754342 85.132694 
L 415.769226 87.293809 
L 416.78411 89.989392 
L 417.968141 93.803085 
L 419.152172 98.37817 
L 420.50535 104.529249 
L 422.027676 112.530652 
L 444.524266 236.822678 
L 446.046591 243.374648 
L 447.39977 248.205615 
L 448.583801 251.642586 
L 449.598684 253.999913 
L 450.613568 255.800818 
L 451.459305 256.873393 
L 452.305041 257.586637 
L 452.98163 257.885497 
L 453.827367 257.965307 
L 459.24008 258.01045 
L 496.283337 257.999973 
L 496.959926 257.731092 
L 497.636515 257.226744 
L 498.482252 256.280417 
L 499.327988 254.957191 
L 500.342872 252.857346 
L 501.357756 250.215749 
L 502.541787 246.452427 
L 503.725818 241.923799 
L 505.078996 235.852849 
L 506.601322 227.876131 
L 529.267059 102.589877 
L 530.620237 96.720641 
L 531.973415 91.84956 
L 533.157446 88.369908 
L 534.17233 85.977938 
L 535.187214 84.124511 
L 536.03295 82.990324 
L 536.878687 82.242367 
L 537.555276 81.925638 
L 538.231865 81.8523 
L 544.659462 81.873465 
L 580.856983 81.96888 
L 581.533572 82.292682 
L 582.210161 82.847365 
L 583.055897 83.87197 
L 583.901634 85.262194 
L 584.916518 87.407362 
L 585.931401 90.0935 
L 587.115432 93.879846 
L 588.299463 98.440548 
L 589.652642 104.530371 
L 591.174967 112.522364 
L 611.810937 227.1219 
L 613.50241 236.010519 
L 614.855588 242.033019 
L 616.208767 247.115362 
L 617.392798 250.767256 
L 618.407681 253.301007 
L 619.422565 255.274168 
L 620.268302 256.504901 
L 621.114038 257.358468 
L 621.790627 257.783008 
L 622.467216 257.964999 
L 622.636364 257.974528 
L 622.636364 257.974528 
" clip-path="url(#pf3ec6200c7)" style="fill: none; stroke: #0000ff; stroke-width: 1.5; stroke-linecap: square"/>
   </g>
   <g id="line2d_27">
    <path d="M 115.363636 258.058581 
L 158.665343 257.978895 
L 159.341932 257.752013 
L 160.018521 257.32536 
L 160.864258 256.47689 
L 161.709994 255.247019 
L 162.555731 253.622479 
L 163.570614 251.146923 
L 164.754645 247.571471 
L 165.938677 243.268574 
L 167.122708 238.199529 
L 168.475886 231.438973 
L 171.013095 217.205715 
L 190.634181 105.567884 
L 192.325654 97.193939 
L 193.678832 91.543802 
L 194.862863 87.419045 
L 196.046894 84.066265 
L 197.061778 81.801742 
L 198.076662 80.100091 
L 198.922398 79.109444 
L 199.598988 78.610919 
L 200.275577 78.364119 
L 201.29046 78.285216 
L 202.981933 78.44565 
L 214.314802 79.899993 
L 221.418988 80.486572 
L 230.0455 80.968715 
L 241.040074 81.346906 
L 243.238989 81.50156 
L 244.084725 81.864166 
L 244.761314 82.3844 
L 245.607051 83.355282 
L 246.452787 84.71179 
L 247.298524 86.460819 
L 248.313407 89.060521 
L 249.497439 92.801061 
L 250.68147 97.311362 
L 252.034648 103.380844 
L 253.556974 111.342167 
L 257.447361 133.533121 
L 271.994028 216.56894 
L 275.884416 238.113314 
L 277.406742 245.16949 
L 278.75992 250.391248 
L 279.943951 254.1486 
L 280.958835 256.763635 
L 281.973719 258.795764 
L 282.819455 260.042117 
L 283.665191 260.903556 
L 284.341781 261.316402 
L 285.187517 261.51579 
L 286.371548 261.507834 
L 288.908757 261.183263 
L 295.843796 260.276521 
L 302.609688 259.64055 
L 310.728758 259.113145 
L 320.708448 258.699176 
L 327.981782 258.375248 
L 328.658371 258.077393 
L 329.33496 257.579602 
L 330.180697 256.658523 
L 331.026433 255.367744 
L 331.87217 253.682856 
L 332.887053 251.128573 
L 334.071084 247.430324 
L 335.255115 242.97389 
L 336.608294 236.946483 
L 337.961472 229.945266 
L 341.175271 211.67348 
L 355.891085 127.572754 
L 360.627209 101.369202 
L 362.149535 94.395257 
L 363.502713 89.241923 
L 364.686744 85.561671 
L 365.870775 82.650906 
L 366.885659 80.761997 
L 367.731395 79.619482 
L 368.407984 78.995959 
L 369.084574 78.62739 
L 369.93031 78.448126 
L 371.114341 78.466276 
L 373.820698 78.814699 
L 380.586589 79.682601 
L 387.352481 80.308074 
L 395.471551 80.826704 
L 405.620389 81.239083 
L 412.38628 81.521104 
L 413.232017 81.888768 
L 413.908606 82.415524 
L 414.754342 83.392528 
L 415.600079 84.754795 
L 416.445815 86.508043 
L 417.460699 89.115017 
L 418.64473 92.865027 
L 419.828761 97.356652 
L 421.181939 103.451054 
L 422.704265 111.405402 
L 426.256358 131.714385 
L 437.927521 198.427777 
L 445.031708 238.135375 
L 446.554033 245.164177 
L 447.907211 250.369247 
L 449.091243 254.103756 
L 450.275274 257.065383 
L 451.290157 259.007995 
L 452.135894 260.206385 
L 452.98163 261.0047 
L 453.658219 261.371969 
L 454.503956 261.542863 
L 455.687987 261.517991 
L 458.394344 261.16041 
L 464.991088 260.296126 
L 471.75698 259.654618 
L 479.706902 259.131462 
L 489.517445 258.715879 
L 497.129073 258.387321 
L 497.805662 258.089547 
L 498.651399 257.434396 
L 499.497135 256.425819 
L 500.342872 255.037185 
L 501.357756 252.875771 
L 502.372639 250.145752 
L 503.55667 246.230206 
L 504.740701 241.560981 
L 506.09388 235.267341 
L 507.785353 226.125758 
L 515.227834 183.405782 
L 528.59047 107.584369 
L 530.281942 98.931845 
L 531.635121 93.021665 
L 532.819152 88.674357 
L 534.003183 85.100861 
L 535.018067 82.639205 
L 536.03295 80.764081 
L 536.878687 79.617642 
L 537.555276 78.98312 
L 538.231865 78.600972 
L 539.077602 78.413584 
L 540.261633 78.427832 
L 542.798842 78.753841 
L 549.733881 79.656538 
L 556.499773 80.289447 
L 564.618843 80.814295 
L 574.598533 81.226222 
L 581.702719 81.562308 
L 582.379308 81.873973 
L 583.055897 82.394896 
L 583.901634 83.366716 
L 584.74737 84.722932 
L 585.593107 86.471207 
L 586.607991 89.069881 
L 587.792022 92.809304 
L 588.976053 97.31873 
L 590.329231 103.387524 
L 591.851557 111.34841 
L 595.741944 133.538696 
L 610.288611 216.573506 
L 614.178999 238.117316 
L 615.701325 245.172883 
L 617.054503 250.39407 
L 618.238534 254.150924 
L 619.253418 256.765521 
L 620.268302 258.797187 
L 621.114038 260.043167 
L 621.959774 260.904269 
L 622.636364 261.316802 
L 622.636364 261.316802 
" clip-path="url(#pf3ec6200c7)" style="fill: none; stroke: #ff0000; stroke-width: 1.5; stroke-linecap: square"/>
   </g>
   <g id="patch_3">
    <path d="M 90 270.72 
L 90 69.12 
" style="fill: none; stroke: #000000; stroke-width: 0.8; stroke-linejoin: miter; stroke-linecap: square"/>
   </g>
   <g id="patch_4">
    <path d="M 648 270.72 
L 648 69.12 
" style="fill: none; stroke: #000000; stroke-width: 0.8; stroke-linejoin: miter; stroke-linecap: square"/>
   </g>
   <g id="patch_5">
    <path d="M 90 270.72 
L 648 270.72 
" style="fill: none; stroke: #000000; stroke-width: 0.8; stroke-linejoin: miter; stroke-linecap: square"/>
   </g>
   <g id="patch_6">
    <path d="M 90 69.12 
L 648 69.12 
" style="fill: none; stroke: #000000; stroke-width: 0.8; stroke-linejoin: miter; stroke-linecap: square"/>
   </g>
   <g id="text_14">
    <!-- Position Tracking (PD Control) -->
    <g transform="translate(280.3425 63.12) scale(0.12 -0.12)">
     <defs>
      <path id="DejaVuSans-54" d="M -19 4666 
L 3928 4666 
L 3928 4134 
L 2272 4134 
L 2272 0 
L 1638 0 
L 1638 4134 
L -19 4134 
L -19 4666 
z
" transform="scale(0.015625)"/>
      <path id="DejaVuSans-72" d="M 2631 2963 
Q 2534 3019 2420 3045 
Q 2306 3072 2169 3072 
Q 1681 3072 1420 2755 
Q 1159 2438 1159 1844 
L 1159 0 
L 581 0 
L 581 3500 
L 1159 3500 
L 1159 2956 
Q 1341 3275 1631 3429 
Q 1922 3584 2338 3584 
Q 2397 3584 2469 3576 
Q 2541 3569 2628 3553 
L 2631 2963 
z
" transform="scale(0.015625)"/>
      <path id="DejaVuSans-61" d="M 2194 1759 
Q 1497 1759 1228 1600 
Q 959 1441 959 1056 
Q 959 750 1161 570 
Q 1363 391 1709 391 
Q 2188 391 2477 730 
Q 2766 1069 2766 1631 
L 2766 1759 
L 2194 1759 
z
M 3341 1997 
L 3341 0 
L 2766 0 
L 2766 531 
Q 2569 213 2275 61 
Q 1981 -91 1556 -91 
Q 1019 -91 701 211 
Q 384 513 384 1019 
Q 384 1609 779 1909 
Q 1175 2209 1959 2209 
L 2766 2209 
L 2766 2266 
Q 2766 2663 2505 2880 
Q 2244 3097 1772 3097 
Q 1472 3097 1187 3025 
Q 903 2953 641 2809 
L 641 3341 
Q 956 3463 1253 3523 
Q 1550 3584 1831 3584 
Q 2591 3584 2966 3190 
Q 3341 2797 3341 1997 
z
" transform="scale(0.015625)"/>
      <path id="DejaVuSans-63" d="M 3122 3366 
L 3122 2828 
Q 2878 2963 2633 3030 
Q 2388 3097 2138 3097 
Q 1578 3097 1268 2742 
Q 959 2388 959 1747 
Q 959 1106 1268 751 
Q 1578 397 2138 397 
Q 2388 397 2633 464 
Q 2878 531 3122 666 
L 3122 134 
Q 2881 22 2623 -34 
Q 2366 -91 2075 -91 
Q 1284 -91 818 406 
Q 353 903 353 1747 
Q 353 2603 823 3093 
Q 1294 3584 2113 3584 
Q 2378 3584 2631 3529 
Q 2884 3475 3122 3366 
z
" transform="scale(0.015625)"/>
      <path id="DejaVuSans-6b" d="M 581 4863 
L 1159 4863 
L 1159 1991 
L 2875 3500 
L 3609 3500 
L 1753 1863 
L 3688 0 
L 2938 0 
L 1159 1709 
L 1159 0 
L 581 0 
L 581 4863 
z
" transform="scale(0.015625)"/>
      <path id="DejaVuSans-67" d="M 2906 1791 
Q 2906 2416 2648 2759 
Q 2391 3103 1925 3103 
Q 1463 3103 1205 2759 
Q 947 2416 947 1791 
Q 947 1169 1205 825 
Q 1463 481 1925 481 
Q 2391 481 2648 825 
Q 2906 1169 2906 1791 
z
M 3481 434 
Q 3481 -459 3084 -895 
Q 2688 -1331 1869 -1331 
Q 1566 -1331 1297 -1286 
Q 1028 -1241 775 -1147 
L 775 -588 
Q 1028 -725 1275 -790 
Q 1522 -856 1778 -856 
Q 2344 -856 2625 -561 
Q 2906 -266 2906 331 
L 2906 616 
Q 2728 306 2450 153 
Q 2172 0 1784 0 
Q 1141 0 747 490 
Q 353 981 353 1791 
Q 353 2603 747 3093 
Q 1141 3584 1784 3584 
Q 2172 3584 2450 3431 
Q 2728 3278 2906 2969 
L 2906 3500 
L 3481 3500 
L 3481 434 
z
" transform="scale(0.015625)"/>
      <path id="DejaVuSans-44" d="M 1259 4147 
L 1259 519 
L 2022 519 
Q 2988 519 3436 956 
Q 3884 1394 3884 2338 
Q 3884 3275 3436 3711 
Q 2988 4147 2022 4147 
L 1259 4147 
z
M 628 4666 
L 1925 4666 
Q 3281 4666 3915 4102 
Q 4550 3538 4550 2338 
Q 4550 1131 3912 565 
Q 3275 0 1925 0 
L 628 0 
L 628 4666 
z
" transform="scale(0.015625)"/>
      <path id="DejaVuSans-43" d="M 4122 4306 
L 4122 3641 
Q 3803 3938 3442 4084 
Q 3081 4231 2675 4231 
Q 1875 4231 1450 3742 
Q 1025 3253 1025 2328 
Q 1025 1406 1450 917 
Q 1875 428 2675 428 
Q 3081 428 3442 575 
Q 3803 722 4122 1019 
L 4122 359 
Q 3791 134 3420 21 
Q 3050 -91 2638 -91 
Q 1578 -91 968 557 
Q 359 1206 359 2328 
Q 359 3453 968 4101 
Q 1578 4750 2638 4750 
Q 3056 4750 3426 4639 
Q 3797 4528 4122 4306 
z
" transform="scale(0.015625)"/>
      <path id="DejaVuSans-6c" d="M 603 4863 
L 1178 4863 
L 1178 0 
L 603 0 
L 603 4863 
z
" transform="scale(0.015625)"/>
     </defs>
     <use xlink:href="#DejaVuSans-50"/>
     <use xlink:href="#DejaVuSans-6f" transform="translate(56.677734 0)"/>
     <use xlink:href="#DejaVuSans-73" transform="translate(117.859375 0)"/>
     <use xlink:href="#DejaVuSans-69" transform="translate(169.958984 0)"/>
     <use xlink:href="#DejaVuSans-74" transform="translate(197.742188 0)"/>
     <use xlink:href="#DejaVuSans-69" transform="translate(236.951172 0)"/>
     <use xlink:href="#DejaVuSans-6f" transform="translate(264.734375 0)"/>
     <use xlink:href="#DejaVuSans-6e" transform="translate(325.916016 0)"/>
     <use xlink:href="#DejaVuSans-20" transform="translate(389.294922 0)"/>
     <use xlink:href="#DejaVuSans-54" transform="translate(421.082031 0)"/>
     <use xlink:href="#DejaVuSans-72" transform="translate(467.416016 0)"/>
     <use xlink:href="#DejaVuSans-61" transform="translate(508.529297 0)"/>
     <use xlink:href="#DejaVuSans-63" transform="translate(569.808594 0)"/>
     <use xlink:href="#DejaVuSans-6b" transform="translate(624.789062 0)"/>
     <use xlink:href="#DejaVuSans-69" transform="translate(682.699219 0)"/>
     <use xlink:href="#DejaVuSans-6e" transform="translate(710.482422 0)"/>
     <use xlink:href="#DejaVuSans-67" transform="translate(773.861328 0)"/>
     <use xlink:href="#DejaVuSans-20" transform="translate(837.337891 0)"/>
     <use xlink:href="#DejaVuSans-28" transform="translate(869.125 0)"/>
     <use xlink:href="#DejaVuSans-50" transform="translate(908.138672 0)"/>
     <use xlink:href="#DejaVuSans-44" transform="translate(968.441406 0)"/>
     <use xlink:href="#DejaVuSans-20" transform="translate(1045.443359 0)"/>
     <use xlink:href="#DejaVuSans-43" transform="translate(1077.230469 0)"/>
     <use xlink:href="#DejaVuSans-6f" transform="translate(1147.054688 0)"/>
     <use xlink:href="#DejaVuSans-6e" transform="translate(1208.236328 0)"/>
     <use xlink:href="#DejaVuSans-74" transform="translate(1271.615234 0)"/>
     <use xlink:href="#DejaVuSans-72" transform="translate(1310.824219 0)"/>
     <use xlink:href="#DejaVuSans-6f" transform="translate(1349.6875 0)"/>
     <use xlink:href="#DejaVuSans-6c" transform="translate(1410.869141 0)"/>
     <use xlink:href="#DejaVuSans-29" transform="translate(1438.652344 0)"/>
    </g>
   </g>
   <g id="legend_1">
    <g id="patch_7">
     <path d="M 439.217188 193.437187 
L 641 193.437187 
Q 643 193.437187 643 191.437187 
L 643 148.402812 
Q 643 146.402812 641 146.402812 
L 439.217188 146.402812 
Q 437.217188 146.402812 437.217188 148.402812 
L 437.217188 191.437187 
Q 437.217188 193.437187 439.217188 193.437187 
z
" style="fill: #ffffff; opacity: 0.8; stroke: #cccccc; stroke-linejoin: miter"/>
    </g>
    <g id="line2d_28">
     <path d="M 441.217188 154.50125 
L 451.217188 154.50125 
L 461.217188 154.50125 
" style="fill: none; stroke-dasharray: 5.55,2.4; stroke-dashoffset: 0; stroke: #000000; stroke-width: 1.5"/>
    </g>
    <g id="text_15">
     <!-- Reference Position -->
     <g transform="translate(469.217188 158.00125) scale(0.1 -0.1)">
      <defs>
       <path id="DejaVuSans-52" d="M 2841 2188 
Q 3044 2119 3236 1894 
Q 3428 1669 3622 1275 
L 4263 0 
L 3584 0 
L 2988 1197 
Q 2756 1666 2539 1819 
Q 2322 1972 1947 1972 
L 1259 1972 
L 1259 0 
L 628 0 
L 628 4666 
L 2053 4666 
Q 2853 4666 3247 4331 
Q 3641 3997 3641 3322 
Q 3641 2881 3436 2590 
Q 3231 2300 2841 2188 
z
M 1259 4147 
L 1259 2491 
L 2053 2491 
Q 2509 2491 2742 2702 
Q 2975 2913 2975 3322 
Q 2975 3731 2742 3939 
Q 2509 4147 2053 4147 
L 1259 4147 
z
" transform="scale(0.015625)"/>
       <path id="DejaVuSans-65" d="M 3597 1894 
L 3597 1613 
L 953 1613 
Q 991 1019 1311 708 
Q 1631 397 2203 397 
Q 2534 397 2845 478 
Q 3156 559 3463 722 
L 3463 178 
Q 3153 47 2828 -22 
Q 2503 -91 2169 -91 
Q 1331 -91 842 396 
Q 353 884 353 1716 
Q 353 2575 817 3079 
Q 1281 3584 2069 3584 
Q 2775 3584 3186 3129 
Q 3597 2675 3597 1894 
z
M 3022 2063 
Q 3016 2534 2758 2815 
Q 2500 3097 2075 3097 
Q 1594 3097 1305 2825 
Q 1016 2553 972 2059 
L 3022 2063 
z
" transform="scale(0.015625)"/>
       <path id="DejaVuSans-66" d="M 2375 4863 
L 2375 4384 
L 1825 4384 
Q 1516 4384 1395 4259 
Q 1275 4134 1275 3809 
L 1275 3500 
L 2222 3500 
L 2222 3053 
L 1275 3053 
L 1275 0 
L 697 0 
L 697 3053 
L 147 3053 
L 147 3500 
L 697 3500 
L 697 3744 
Q 697 4328 969 4595 
Q 1241 4863 1831 4863 
L 2375 4863 
z
" transform="scale(0.015625)"/>
      </defs>
      <use xlink:href="#DejaVuSans-52"/>
      <use xlink:href="#DejaVuSans-65" transform="translate(64.982422 0)"/>
      <use xlink:href="#DejaVuSans-66" transform="translate(126.505859 0)"/>
      <use xlink:href="#DejaVuSans-65" transform="translate(161.710938 0)"/>
      <use xlink:href="#DejaVuSans-72" transform="translate(223.234375 0)"/>
      <use xlink:href="#DejaVuSans-65" transform="translate(262.097656 0)"/>
      <use xlink:href="#DejaVuSans-6e" transform="translate(323.621094 0)"/>
      <use xlink:href="#DejaVuSans-63" transform="translate(387 0)"/>
      <use xlink:href="#DejaVuSans-65" transform="translate(441.980469 0)"/>
      <use xlink:href="#DejaVuSans-20" transform="translate(503.503906 0)"/>
      <use xlink:href="#DejaVuSans-50" transform="translate(535.291016 0)"/>
      <use xlink:href="#DejaVuSans-6f" transform="translate(591.96875 0)"/>
      <use xlink:href="#DejaVuSans-73" transform="translate(653.150391 0)"/>
      <use xlink:href="#DejaVuSans-69" transform="translate(705.25 0)"/>
      <use xlink:href="#DejaVuSans-74" transform="translate(733.033203 0)"/>
      <use xlink:href="#DejaVuSans-69" transform="translate(772.242188 0)"/>
      <use xlink:href="#DejaVuSans-6f" transform="translate(800.025391 0)"/>
      <use xlink:href="#DejaVuSans-6e" transform="translate(861.207031 0)"/>
     </g>
    </g>
    <g id="line2d_29">
     <path d="M 441.217188 169.179375 
L 451.217188 169.179375 
L 461.217188 169.179375 
" style="fill: none; stroke: #0000ff; stroke-width: 1.5; stroke-linecap: square"/>
    </g>
    <g id="text_16">
     <!-- Position with Feedforward (PD) -->
     <g transform="translate(469.217188 172.679375) scale(0.1 -0.1)">
      <defs>
       <path id="DejaVuSans-77" d="M 269 3500 
L 844 3500 
L 1563 769 
L 2278 3500 
L 2956 3500 
L 3675 769 
L 4391 3500 
L 4966 3500 
L 4050 0 
L 3372 0 
L 2619 2869 
L 1863 0 
L 1184 0 
L 269 3500 
z
" transform="scale(0.015625)"/>
       <path id="DejaVuSans-68" d="M 3513 2113 
L 3513 0 
L 2938 0 
L 2938 2094 
Q 2938 2591 2744 2837 
Q 2550 3084 2163 3084 
Q 1697 3084 1428 2787 
Q 1159 2491 1159 1978 
L 1159 0 
L 581 0 
L 581 4863 
L 1159 4863 
L 1159 2956 
Q 1366 3272 1645 3428 
Q 1925 3584 2291 3584 
Q 2894 3584 3203 3211 
Q 3513 2838 3513 2113 
z
" transform="scale(0.015625)"/>
       <path id="DejaVuSans-46" d="M 628 4666 
L 3309 4666 
L 3309 4134 
L 1259 4134 
L 1259 2759 
L 3109 2759 
L 3109 2228 
L 1259 2228 
L 1259 0 
L 628 0 
L 628 4666 
z
" transform="scale(0.015625)"/>
       <path id="DejaVuSans-64" d="M 2906 2969 
L 2906 4863 
L 3481 4863 
L 3481 0 
L 2906 0 
L 2906 525 
Q 2725 213 2448 61 
Q 2172 -91 1784 -91 
Q 1150 -91 751 415 
Q 353 922 353 1747 
Q 353 2572 751 3078 
Q 1150 3584 1784 3584 
Q 2172 3584 2448 3432 
Q 2725 3281 2906 2969 
z
M 947 1747 
Q 947 1113 1208 752 
Q 1469 391 1925 391 
Q 2381 391 2643 752 
Q 2906 1113 2906 1747 
Q 2906 2381 2643 2742 
Q 2381 3103 1925 3103 
Q 1469 3103 1208 2742 
Q 947 2381 947 1747 
z
" transform="scale(0.015625)"/>
      </defs>
      <use xlink:href="#DejaVuSans-50"/>
      <use xlink:href="#DejaVuSans-6f" transform="translate(56.677734 0)"/>
      <use xlink:href="#DejaVuSans-73" transform="translate(117.859375 0)"/>
      <use xlink:href="#DejaVuSans-69" transform="translate(169.958984 0)"/>
      <use xlink:href="#DejaVuSans-74" transform="translate(197.742188 0)"/>
      <use xlink:href="#DejaVuSans-69" transform="translate(236.951172 0)"/>
      <use xlink:href="#DejaVuSans-6f" transform="translate(264.734375 0)"/>
      <use xlink:href="#DejaVuSans-6e" transform="translate(325.916016 0)"/>
      <use xlink:href="#DejaVuSans-20" transform="translate(389.294922 0)"/>
      <use xlink:href="#DejaVuSans-77" transform="translate(421.082031 0)"/>
      <use xlink:href="#DejaVuSans-69" transform="translate(502.869141 0)"/>
      <use xlink:href="#DejaVuSans-74" transform="translate(530.652344 0)"/>
      <use xlink:href="#DejaVuSans-68" transform="translate(569.861328 0)"/>
      <use xlink:href="#DejaVuSans-20" transform="translate(633.240234 0)"/>
      <use xlink:href="#DejaVuSans-46" transform="translate(665.027344 0)"/>
      <use xlink:href="#DejaVuSans-65" transform="translate(717.046875 0)"/>
      <use xlink:href="#DejaVuSans-65" transform="translate(778.570312 0)"/>
      <use xlink:href="#DejaVuSans-64" transform="translate(840.09375 0)"/>
      <use xlink:href="#DejaVuSans-66" transform="translate(903.570312 0)"/>
      <use xlink:href="#DejaVuSans-6f" transform="translate(938.775391 0)"/>
      <use xlink:href="#DejaVuSans-72" transform="translate(999.957031 0)"/>
      <use xlink:href="#DejaVuSans-77" transform="translate(1041.070312 0)"/>
      <use xlink:href="#DejaVuSans-61" transform="translate(1122.857422 0)"/>
      <use xlink:href="#DejaVuSans-72" transform="translate(1184.136719 0)"/>
      <use xlink:href="#DejaVuSans-64" transform="translate(1223.5 0)"/>
      <use xlink:href="#DejaVuSans-20" transform="translate(1286.976562 0)"/>
      <use xlink:href="#DejaVuSans-28" transform="translate(1318.763672 0)"/>
      <use xlink:href="#DejaVuSans-50" transform="translate(1357.777344 0)"/>
      <use xlink:href="#DejaVuSans-44" transform="translate(1418.080078 0)"/>
      <use xlink:href="#DejaVuSans-29" transform="translate(1495.082031 0)"/>
     </g>
    </g>
    <g id="line2d_30">
     <path d="M 441.217188 183.8575 
L 451.217188 183.8575 
L 461.217188 183.8575 
" style="fill: none; stroke: #ff0000; stroke-width: 1.5; stroke-linecap: square"/>
    </g>
    <g id="text_17">
     <!-- Position without Feedforward (PD) -->
     <g transform="translate(469.217188 187.3575) scale(0.1 -0.1)">
      <defs>
       <path id="DejaVuSans-75" d="M 544 1381 
L 544 3500 
L 1119 3500 
L 1119 1403 
Q 1119 906 1312 657 
Q 1506 409 1894 409 
Q 2359 409 2629 706 
Q 2900 1003 2900 1516 
L 2900 3500 
L 3475 3500 
L 3475 0 
L 2900 0 
L 2900 538 
Q 2691 219 2414 64 
Q 2138 -91 1772 -91 
Q 1169 -91 856 284 
Q 544 659 544 1381 
z
M 1991 3584 
L 1991 3584 
z
" transform="scale(0.015625)"/>
      </defs>
      <use xlink:href="#DejaVuSans-50"/>
      <use xlink:href="#DejaVuSans-6f" transform="translate(56.677734 0)"/>
      <use xlink:href="#DejaVuSans-73" transform="translate(117.859375 0)"/>
      <use xlink:href="#DejaVuSans-69" transform="translate(169.958984 0)"/>
      <use xlink:href="#DejaVuSans-74" transform="translate(197.742188 0)"/>
      <use xlink:href="#DejaVuSans-69" transform="translate(236.951172 0)"/>
      <use xlink:href="#DejaVuSans-6f" transform="translate(264.734375 0)"/>
      <use xlink:href="#DejaVuSans-6e" transform="translate(325.916016 0)"/>
      <use xlink:href="#DejaVuSans-20" transform="translate(389.294922 0)"/>
      <use xlink:href="#DejaVuSans-77" transform="translate(421.082031 0)"/>
      <use xlink:href="#DejaVuSans-69" transform="translate(502.869141 0)"/>
      <use xlink:href="#DejaVuSans-74" transform="translate(530.652344 0)"/>
      <use xlink:href="#DejaVuSans-68" transform="translate(569.861328 0)"/>
      <use xlink:href="#DejaVuSans-6f" transform="translate(633.240234 0)"/>
      <use xlink:href="#DejaVuSans-75" transform="translate(694.421875 0)"/>
      <use xlink:href="#DejaVuSans-74" transform="translate(757.800781 0)"/>
      <use xlink:href="#DejaVuSans-20" transform="translate(797.009766 0)"/>
      <use xlink:href="#DejaVuSans-46" transform="translate(828.796875 0)"/>
      <use xlink:href="#DejaVuSans-65" transform="translate(880.816406 0)"/>
      <use xlink:href="#DejaVuSans-65" transform="translate(942.339844 0)"/>
      <use xlink:href="#DejaVuSans-64" transform="translate(1003.863281 0)"/>
      <use xlink:href="#DejaVuSans-66" transform="translate(1067.339844 0)"/>
      <use xlink:href="#DejaVuSans-6f" transform="translate(1102.544922 0)"/>
      <use xlink:href="#DejaVuSans-72" transform="translate(1163.726562 0)"/>
      <use xlink:href="#DejaVuSans-77" transform="translate(1204.839844 0)"/>
      <use xlink:href="#DejaVuSans-61" transform="translate(1286.626953 0)"/>
      <use xlink:href="#DejaVuSans-72" transform="translate(1347.90625 0)"/>
      <use xlink:href="#DejaVuSans-64" transform="translate(1387.269531 0)"/>
      <use xlink:href="#DejaVuSans-20" transform="translate(1450.746094 0)"/>
      <use xlink:href="#DejaVuSans-28" transform="translate(1482.533203 0)"/>
      <use xlink:href="#DejaVuSans-50" transform="translate(1521.546875 0)"/>
      <use xlink:href="#DejaVuSans-44" transform="translate(1581.849609 0)"/>
      <use xlink:href="#DejaVuSans-29" transform="translate(1658.851562 0)"/>
     </g>
    </g>
   </g>
  </g>
  <g id="axes_2">
   <g id="patch_8">
    <path d="M 90 512.64 
L 648 512.64 
L 648 311.04 
L 90 311.04 
z
" style="fill: #ffffff"/>
   </g>
   <g id="matplotlib.axis_3">
    <g id="xtick_7">
     <g id="line2d_31">
      <path d="M 115.363636 512.64 
L 115.363636 311.04 
" clip-path="url(#p7a458d3a7a)" style="fill: none; stroke: #b0b0b0; stroke-width: 0.8; stroke-linecap: square"/>
     </g>
     <g id="line2d_32">
      <g>
       <use xlink:href="#md0afe024ba" x="115.363636" y="512.64" style="stroke: #000000; stroke-width: 0.8"/>
      </g>
     </g>
     <g id="text_18">
      <!-- 0.0 -->
      <g transform="translate(107.412074 527.238438) scale(0.1 -0.1)">
       <use xlink:href="#DejaVuSans-30"/>
       <use xlink:href="#DejaVuSans-2e" transform="translate(63.623047 0)"/>
       <use xlink:href="#DejaVuSans-30" transform="translate(95.410156 0)"/>
      </g>
     </g>
    </g>
    <g id="xtick_8">
     <g id="line2d_33">
      <path d="M 221.045455 512.64 
L 221.045455 311.04 
" clip-path="url(#p7a458d3a7a)" style="fill: none; stroke: #b0b0b0; stroke-width: 0.8; stroke-linecap: square"/>
     </g>
     <g id="line2d_34">
      <g>
       <use xlink:href="#md0afe024ba" x="221.045455" y="512.64" style="stroke: #000000; stroke-width: 0.8"/>
      </g>
     </g>
     <g id="text_19">
      <!-- 0.5 -->
      <g transform="translate(213.093892 527.238438) scale(0.1 -0.1)">
       <use xlink:href="#DejaVuSans-30"/>
       <use xlink:href="#DejaVuSans-2e" transform="translate(63.623047 0)"/>
       <use xlink:href="#DejaVuSans-35" transform="translate(95.410156 0)"/>
      </g>
     </g>
    </g>
    <g id="xtick_9">
     <g id="line2d_35">
      <path d="M 326.727273 512.64 
L 326.727273 311.04 
" clip-path="url(#p7a458d3a7a)" style="fill: none; stroke: #b0b0b0; stroke-width: 0.8; stroke-linecap: square"/>
     </g>
     <g id="line2d_36">
      <g>
       <use xlink:href="#md0afe024ba" x="326.727273" y="512.64" style="stroke: #000000; stroke-width: 0.8"/>
      </g>
     </g>
     <g id="text_20">
      <!-- 1.0 -->
      <g transform="translate(318.77571 527.238438) scale(0.1 -0.1)">
       <use xlink:href="#DejaVuSans-31"/>
       <use xlink:href="#DejaVuSans-2e" transform="translate(63.623047 0)"/>
       <use xlink:href="#DejaVuSans-30" transform="translate(95.410156 0)"/>
      </g>
     </g>
    </g>
    <g id="xtick_10">
     <g id="line2d_37">
      <path d="M 432.409091 512.64 
L 432.409091 311.04 
" clip-path="url(#p7a458d3a7a)" style="fill: none; stroke: #b0b0b0; stroke-width: 0.8; stroke-linecap: square"/>
     </g>
     <g id="line2d_38">
      <g>
       <use xlink:href="#md0afe024ba" x="432.409091" y="512.64" style="stroke: #000000; stroke-width: 0.8"/>
      </g>
     </g>
     <g id="text_21">
      <!-- 1.5 -->
      <g transform="translate(424.457528 527.238438) scale(0.1 -0.1)">
       <use xlink:href="#DejaVuSans-31"/>
       <use xlink:href="#DejaVuSans-2e" transform="translate(63.623047 0)"/>
       <use xlink:href="#DejaVuSans-35" transform="translate(95.410156 0)"/>
      </g>
     </g>
    </g>
    <g id="xtick_11">
     <g id="line2d_39">
      <path d="M 538.090909 512.64 
L 538.090909 311.04 
" clip-path="url(#p7a458d3a7a)" style="fill: none; stroke: #b0b0b0; stroke-width: 0.8; stroke-linecap: square"/>
     </g>
     <g id="line2d_40">
      <g>
       <use xlink:href="#md0afe024ba" x="538.090909" y="512.64" style="stroke: #000000; stroke-width: 0.8"/>
      </g>
     </g>
     <g id="text_22">
      <!-- 2.0 -->
      <g transform="translate(530.139347 527.238438) scale(0.1 -0.1)">
       <use xlink:href="#DejaVuSans-32"/>
       <use xlink:href="#DejaVuSans-2e" transform="translate(63.623047 0)"/>
       <use xlink:href="#DejaVuSans-30" transform="translate(95.410156 0)"/>
      </g>
     </g>
    </g>
    <g id="xtick_12">
     <g id="line2d_41">
      <path d="M 643.772727 512.64 
L 643.772727 311.04 
" clip-path="url(#p7a458d3a7a)" style="fill: none; stroke: #b0b0b0; stroke-width: 0.8; stroke-linecap: square"/>
     </g>
     <g id="line2d_42">
      <g>
       <use xlink:href="#md0afe024ba" x="643.772727" y="512.64" style="stroke: #000000; stroke-width: 0.8"/>
      </g>
     </g>
     <g id="text_23">
      <!-- 2.5 -->
      <g transform="translate(635.821165 527.238438) scale(0.1 -0.1)">
       <use xlink:href="#DejaVuSans-32"/>
       <use xlink:href="#DejaVuSans-2e" transform="translate(63.623047 0)"/>
       <use xlink:href="#DejaVuSans-35" transform="translate(95.410156 0)"/>
      </g>
     </g>
    </g>
    <g id="text_24">
     <!-- Time (s) -->
     <g transform="translate(348.671094 540.916563) scale(0.1 -0.1)">
      <use xlink:href="#DejaVuSans-54"/>
      <use xlink:href="#DejaVuSans-69" transform="translate(57.958984 0)"/>
      <use xlink:href="#DejaVuSans-6d" transform="translate(85.742188 0)"/>
      <use xlink:href="#DejaVuSans-65" transform="translate(183.154297 0)"/>
      <use xlink:href="#DejaVuSans-20" transform="translate(244.677734 0)"/>
      <use xlink:href="#DejaVuSans-28" transform="translate(276.464844 0)"/>
      <use xlink:href="#DejaVuSans-73" transform="translate(315.478516 0)"/>
      <use xlink:href="#DejaVuSans-29" transform="translate(367.578125 0)"/>
     </g>
    </g>
   </g>
   <g id="matplotlib.axis_4">
    <g id="ytick_7">
     <g id="line2d_43">
      <path d="M 90 491.138263 
L 648 491.138263 
" clip-path="url(#p7a458d3a7a)" style="fill: none; stroke: #b0b0b0; stroke-width: 0.8; stroke-linecap: square"/>
     </g>
     <g id="line2d_44">
      <g>
       <use xlink:href="#md06f7d071d" x="90" y="491.138263" style="stroke: #000000; stroke-width: 0.8"/>
      </g>
     </g>
     <g id="text_25">
      <!-- 6 -->
      <g transform="translate(68.257812 494.937482) scale(0.1 -0.1)">
       <defs>
        <path id="DejaVuSans-2212" d="M 678 2272 
L 4684 2272 
L 4684 1741 
L 678 1741 
L 678 2272 
z
" transform="scale(0.015625)"/>
       </defs>
       <use xlink:href="#DejaVuSans-2212"/>
       <use xlink:href="#DejaVuSans-36" transform="translate(83.789062 0)"/>
      </g>
     </g>
    </g>
    <g id="ytick_8">
     <g id="line2d_45">
      <path d="M 90 464.663949 
L 648 464.663949 
" clip-path="url(#p7a458d3a7a)" style="fill: none; stroke: #b0b0b0; stroke-width: 0.8; stroke-linecap: square"/>
     </g>
     <g id="line2d_46">
      <g>
       <use xlink:href="#md06f7d071d" x="90" y="464.663949" style="stroke: #000000; stroke-width: 0.8"/>
      </g>
     </g>
     <g id="text_26">
      <!-- 4 -->
      <g transform="translate(68.257812 468.463168) scale(0.1 -0.1)">
       <use xlink:href="#DejaVuSans-2212"/>
       <use xlink:href="#DejaVuSans-34" transform="translate(83.789062 0)"/>
      </g>
     </g>
    </g>
    <g id="ytick_9">
     <g id="line2d_47">
      <path d="M 90 438.189636 
L 648 438.189636 
" clip-path="url(#p7a458d3a7a)" style="fill: none; stroke: #b0b0b0; stroke-width: 0.8; stroke-linecap: square"/>
     </g>
     <g id="line2d_48">
      <g>
       <use xlink:href="#md06f7d071d" x="90" y="438.189636" style="stroke: #000000; stroke-width: 0.8"/>
      </g>
     </g>
     <g id="text_27">
      <!-- 2 -->
      <g transform="translate(68.257812 441.988855) scale(0.1 -0.1)">
       <use xlink:href="#DejaVuSans-2212"/>
       <use xlink:href="#DejaVuSans-32" transform="translate(83.789062 0)"/>
      </g>
     </g>
    </g>
    <g id="ytick_10">
     <g id="line2d_49">
      <path d="M 90 411.715322 
L 648 411.715322 
" clip-path="url(#p7a458d3a7a)" style="fill: none; stroke: #b0b0b0; stroke-width: 0.8; stroke-linecap: square"/>
     </g>
     <g id="line2d_50">
      <g>
       <use xlink:href="#md06f7d071d" x="90" y="411.715322" style="stroke: #000000; stroke-width: 0.8"/>
      </g>
     </g>
     <g id="text_28">
      <!-- 0 -->
      <g transform="translate(76.6375 415.514541) scale(0.1 -0.1)">
       <use xlink:href="#DejaVuSans-30"/>
      </g>
     </g>
    </g>
    <g id="ytick_11">
     <g id="line2d_51">
      <path d="M 90 385.241009 
L 648 385.241009 
" clip-path="url(#p7a458d3a7a)" style="fill: none; stroke: #b0b0b0; stroke-width: 0.8; stroke-linecap: square"/>
     </g>
     <g id="line2d_52">
      <g>
       <use xlink:href="#md06f7d071d" x="90" y="385.241009" style="stroke: #000000; stroke-width: 0.8"/>
      </g>
     </g>
     <g id="text_29">
      <!-- 2 -->
      <g transform="translate(76.6375 389.040227) scale(0.1 -0.1)">
       <use xlink:href="#DejaVuSans-32"/>
      </g>
     </g>
    </g>
    <g id="ytick_12">
     <g id="line2d_53">
      <path d="M 90 358.766695 
L 648 358.766695 
" clip-path="url(#p7a458d3a7a)" style="fill: none; stroke: #b0b0b0; stroke-width: 0.8; stroke-linecap: square"/>
     </g>
     <g id="line2d_54">
      <g>
       <use xlink:href="#md06f7d071d" x="90" y="358.766695" style="stroke: #000000; stroke-width: 0.8"/>
      </g>
     </g>
     <g id="text_30">
      <!-- 4 -->
      <g transform="translate(76.6375 362.565914) scale(0.1 -0.1)">
       <use xlink:href="#DejaVuSans-34"/>
      </g>
     </g>
    </g>
    <g id="ytick_13">
     <g id="line2d_55">
      <path d="M 90 332.292381 
L 648 332.292381 
" clip-path="url(#p7a458d3a7a)" style="fill: none; stroke: #b0b0b0; stroke-width: 0.8; stroke-linecap: square"/>
     </g>
     <g id="line2d_56">
      <g>
       <use xlink:href="#md06f7d071d" x="90" y="332.292381" style="stroke: #000000; stroke-width: 0.8"/>
      </g>
     </g>
     <g id="text_31">
      <!-- 6 -->
      <g transform="translate(76.6375 336.0916) scale(0.1 -0.1)">
       <use xlink:href="#DejaVuSans-36"/>
      </g>
     </g>
    </g>
    <g id="text_32">
     <!-- Velocity (m/s) -->
     <g transform="translate(62.178125 446.105625) rotate(-90) scale(0.1 -0.1)">
      <defs>
       <path id="DejaVuSans-56" d="M 1831 0 
L 50 4666 
L 709 4666 
L 2188 738 
L 3669 4666 
L 4325 4666 
L 2547 0 
L 1831 0 
z
" transform="scale(0.015625)"/>
       <path id="DejaVuSans-79" d="M 2059 -325 
Q 1816 -950 1584 -1140 
Q 1353 -1331 966 -1331 
L 506 -1331 
L 506 -850 
L 844 -850 
Q 1081 -850 1212 -737 
Q 1344 -625 1503 -206 
L 1606 56 
L 191 3500 
L 800 3500 
L 1894 763 
L 2988 3500 
L 3597 3500 
L 2059 -325 
z
" transform="scale(0.015625)"/>
       <path id="DejaVuSans-2f" d="M 1625 4666 
L 2156 4666 
L 531 -594 
L 0 -594 
L 1625 4666 
z
" transform="scale(0.015625)"/>
      </defs>
      <use xlink:href="#DejaVuSans-56"/>
      <use xlink:href="#DejaVuSans-65" transform="translate(60.658203 0)"/>
      <use xlink:href="#DejaVuSans-6c" transform="translate(122.181641 0)"/>
      <use xlink:href="#DejaVuSans-6f" transform="translate(149.964844 0)"/>
      <use xlink:href="#DejaVuSans-63" transform="translate(211.146484 0)"/>
      <use xlink:href="#DejaVuSans-69" transform="translate(266.126953 0)"/>
      <use xlink:href="#DejaVuSans-74" transform="translate(293.910156 0)"/>
      <use xlink:href="#DejaVuSans-79" transform="translate(333.119141 0)"/>
      <use xlink:href="#DejaVuSans-20" transform="translate(392.298828 0)"/>
      <use xlink:href="#DejaVuSans-28" transform="translate(424.085938 0)"/>
      <use xlink:href="#DejaVuSans-6d" transform="translate(463.099609 0)"/>
      <use xlink:href="#DejaVuSans-2f" transform="translate(560.511719 0)"/>
      <use xlink:href="#DejaVuSans-73" transform="translate(594.203125 0)"/>
      <use xlink:href="#DejaVuSans-29" transform="translate(646.302734 0)"/>
     </g>
    </g>
   </g>
   <g id="line2d_57">
    <path d="M 115.363636 411.715322 
L 157.481312 411.715322 
L 157.650459 411.361978 
L 168.137591 323.732618 
L 168.306739 323.46761 
L 189.281003 323.46761 
L 190.972476 337.513042 
L 199.937282 411.715322 
L 242.054958 411.715322 
L 242.393252 414.188732 
L 252.711237 499.963034 
L 273.685501 499.963034 
L 273.854649 499.344682 
L 284.341781 411.715322 
L 326.628603 411.715322 
L 326.797751 411.361978 
L 337.284883 323.732618 
L 337.45403 323.46761 
L 358.428294 323.46761 
L 360.119767 337.513042 
L 369.084574 411.715322 
L 411.202249 411.715322 
L 411.540544 414.188732 
L 421.858529 499.963034 
L 442.832793 499.963034 
L 443.00194 499.344682 
L 453.489072 411.715322 
L 495.775895 411.715322 
L 495.945042 411.361978 
L 506.432174 323.732618 
L 506.601322 323.46761 
L 527.575586 323.46761 
L 529.267059 337.513042 
L 538.231865 411.715322 
L 580.349541 411.715322 
L 580.687835 414.188732 
L 591.00582 499.963034 
L 611.980084 499.963034 
L 612.149232 499.344682 
L 622.636364 411.715322 
L 622.636364 411.715322 
" clip-path="url(#p7a458d3a7a)" style="fill: none; stroke-dasharray: 5.55,2.4; stroke-dashoffset: 0; stroke: #000000; stroke-width: 1.5"/>
   </g>
   <g id="line2d_58">
    <path d="M 115.363636 411.715322 
L 157.481312 411.715322 
L 157.650459 411.037154 
L 159.003638 400.073391 
L 160.69511 386.287258 
L 162.555731 370.035907 
L 163.570614 362.107242 
L 164.923793 350.359028 
L 165.938677 341.51678 
L 167.122708 332.409404 
L 168.306739 322.122721 
L 168.475886 322.132314 
L 168.81418 322.788818 
L 169.152475 322.994852 
L 169.829064 323.137277 
L 170.336506 323.363109 
L 171.35139 323.380606 
L 172.027979 323.434973 
L 172.873715 323.488302 
L 174.396041 323.781533 
L 175.241778 323.791272 
L 175.918367 323.546182 
L 176.594956 323.338881 
L 177.778987 323.47712 
L 178.963018 323.636735 
L 181.838522 323.783698 
L 183.1917 323.553748 
L 183.699142 323.481399 
L 184.883173 323.566036 
L 185.72891 323.402907 
L 187.251235 323.632362 
L 188.266119 323.60254 
L 188.604414 323.345048 
L 188.773561 323.410729 
L 188.942708 323.720622 
L 189.281003 325.175616 
L 190.126739 331.218839 
L 191.818212 344.535981 
L 199.42984 408.052319 
L 199.768135 410.769456 
L 199.937282 411.219894 
L 200.275577 411.253411 
L 201.29046 411.481255 
L 202.981933 411.605708 
L 208.056352 411.655602 
L 241.716663 411.704263 
L 242.054958 411.452345 
L 242.224105 411.632067 
L 242.393252 412.385217 
L 242.900694 417.187333 
L 245.437904 439.568056 
L 247.975113 460.923014 
L 249.159144 470.167292 
L 252.203795 496.64016 
L 252.711237 499.966844 
L 252.880384 500.177305 
L 253.218679 500.040392 
L 253.556974 500.17612 
L 254.064415 500.113505 
L 254.571857 500.222125 
L 255.079299 500.147077 
L 255.586741 500.02034 
L 256.26333 499.994258 
L 256.939919 500.006167 
L 257.447361 500.081215 
L 258.969687 499.967129 
L 260.66116 500.176108 
L 264.044106 500.052336 
L 265.904726 500.146275 
L 270.133408 499.835191 
L 270.809997 499.98098 
L 271.655734 500.144114 
L 272.670617 500.075723 
L 273.008912 500.147077 
L 273.347207 500.415646 
L 273.516354 500.292768 
L 273.685501 499.872445 
L 274.023796 498.043522 
L 276.053563 481.101051 
L 278.75992 458.557505 
L 284.341781 412.065055 
L 285.01837 411.96864 
L 286.709843 411.834296 
L 291.445967 411.781488 
L 326.628603 411.726648 
L 326.797751 410.985254 
L 328.827518 394.521971 
L 331.87217 369.161044 
L 333.056201 359.308283 
L 337.284883 324.597578 
L 337.792325 324.093544 
L 338.130619 323.843437 
L 339.99124 323.263793 
L 341.344418 323.387273 
L 343.205038 323.506078 
L 343.881627 323.391622 
L 345.742247 323.474726 
L 346.587984 323.510106 
L 347.43372 323.483619 
L 348.448604 323.502501 
L 349.294341 323.47751 
L 350.309224 323.600699 
L 352.677286 323.303886 
L 357.920852 323.390151 
L 358.428294 323.343813 
L 358.597442 324.112584 
L 364.179302 371.299961 
L 369.084574 411.68154 
L 373.651551 411.657741 
L 411.202249 411.706407 
L 411.371397 412.495948 
L 416.107521 452.466486 
L 416.953257 459.750992 
L 418.306435 470.893169 
L 419.997908 485.221046 
L 421.858529 499.543965 
L 422.027676 499.984281 
L 422.196823 500.079823 
L 422.704265 499.955555 
L 423.719149 499.875187 
L 424.226591 499.875507 
L 424.90318 499.816334 
L 425.748916 500.024804 
L 427.102095 499.872729 
L 427.609537 500.154666 
L 427.947831 500.345228 
L 428.455273 500.252563 
L 429.639304 499.877637 
L 432.176513 499.965601 
L 434.88287 499.927653 
L 436.912638 500.061466 
L 439.2807 499.887258 
L 440.803025 500.13913 
L 442.663645 499.866602 
L 442.832793 499.35833 
L 443.171087 497.125476 
L 447.738064 459.895592 
L 453.319925 413.087842 
L 453.489072 412.354077 
L 454.334809 412.039271 
L 455.51884 411.856462 
L 457.886902 411.767399 
L 470.065507 411.737438 
L 495.775895 411.721462 
L 495.945042 410.867232 
L 497.805662 395.910634 
L 499.158841 384.688864 
L 500.173725 376.252387 
L 506.432174 324.047365 
L 506.601322 323.383398 
L 506.770469 323.431376 
L 507.108764 323.770459 
L 507.616205 323.642437 
L 508.123647 323.485019 
L 509.645973 323.599376 
L 510.322562 323.403876 
L 514.889539 323.565931 
L 515.566128 323.557941 
L 516.919306 323.268386 
L 519.287369 323.559512 
L 520.133105 323.464522 
L 520.640547 323.601629 
L 520.978841 323.706454 
L 521.317136 323.614716 
L 522.162872 323.081553 
L 523.854345 323.247369 
L 524.530935 323.394984 
L 525.376671 323.585452 
L 526.05326 323.484727 
L 526.729849 323.31411 
L 527.237291 323.426451 
L 527.575586 323.529157 
L 527.744733 324.008096 
L 538.231865 412.087067 
L 538.908454 411.898509 
L 540.43078 411.755241 
L 544.15202 411.709109 
L 579.503804 411.673264 
L 579.842099 411.488655 
L 580.011246 411.671705 
L 580.349541 412.994187 
L 581.195277 419.273905 
L 591.00582 499.284265 
L 591.344115 499.453612 
L 592.189851 499.465966 
L 593.204735 499.887729 
L 595.065355 499.788038 
L 597.771712 499.965325 
L 598.448301 500.035481 
L 600.139774 499.949964 
L 600.98551 499.92329 
L 601.831247 499.958832 
L 602.676983 499.935653 
L 603.691867 500.001376 
L 605.045045 499.889527 
L 606.229076 499.929292 
L 607.24396 500.240595 
L 608.597138 500.02055 
L 609.781169 499.862936 
L 610.965201 499.777469 
L 611.472642 499.994478 
L 611.980084 500.21366 
L 612.149232 499.810801 
L 612.656673 495.272624 
L 614.178999 482.304102 
L 622.636364 412.393282 
L 622.636364 412.393282 
" clip-path="url(#p7a458d3a7a)" style="fill: none; stroke: #0000ff; stroke-width: 1.5; stroke-linecap: square"/>
   </g>
   <g id="line2d_59">
    <path d="M 115.363636 411.715322 
L 157.650459 411.686571 
L 157.819607 411.537961 
L 158.157901 410.62843 
L 158.665343 408.48557 
L 159.511079 403.005839 
L 162.048289 382.029791 
L 164.585498 360.396893 
L 165.09294 356.047789 
L 168.645033 325.686327 
L 169.152475 323.723472 
L 169.998212 321.606297 
L 170.336506 321.163719 
L 171.013095 320.824632 
L 172.027979 320.542106 
L 172.535421 320.327387 
L 172.873715 320.224297 
L 174.057747 320.588413 
L 176.425809 320.602591 
L 178.455576 321.227 
L 178.963018 321.083428 
L 179.47046 320.819144 
L 179.977902 320.959801 
L 181.161933 321.468439 
L 183.529995 321.636958 
L 185.390615 321.958964 
L 186.067204 321.844885 
L 186.743793 321.736155 
L 187.58953 322.022602 
L 188.096972 321.744948 
L 188.435266 321.551645 
L 189.281003 321.688979 
L 189.619297 322.291143 
L 189.957592 323.455143 
L 190.634181 327.046976 
L 191.479918 332.952869 
L 193.509685 349.604259 
L 200.275577 408.314285 
L 200.783019 410.623493 
L 201.29046 412.06503 
L 201.797902 412.953042 
L 202.305344 413.491452 
L 202.981933 413.879545 
L 203.82767 414.073686 
L 205.180848 414.092295 
L 208.394647 413.804272 
L 215.837128 413.158836 
L 224.801934 412.637891 
L 235.458213 412.256979 
L 242.224105 412.182153 
L 242.5624 412.932376 
L 243.069841 415.010316 
L 243.746431 419.002221 
L 245.268756 430.640444 
L 246.791082 443.812322 
L 248.313407 456.609187 
L 252.880384 495.877763 
L 253.387826 498.697551 
L 253.895268 500.497598 
L 254.571857 501.905757 
L 255.079299 502.508031 
L 255.586741 502.795851 
L 256.770772 503.083649 
L 257.447361 503.061124 
L 258.462245 503.117726 
L 259.815423 503.134809 
L 260.492012 503.298547 
L 261.168602 502.974367 
L 263.198369 502.476504 
L 264.720695 502.123527 
L 267.257904 501.849329 
L 268.611082 501.906097 
L 269.625966 501.89635 
L 270.64085 501.675454 
L 271.486586 501.722989 
L 272.332323 502.069919 
L 273.854649 501.689974 
L 274.192943 501.060441 
L 274.700385 498.963709 
L 275.376974 494.942795 
L 276.561005 486.095367 
L 285.01837 413.986345 
L 285.525812 412.12722 
L 286.033254 410.975019 
L 286.540695 410.268001 
L 287.217285 409.745955 
L 287.893874 409.500998 
L 288.908757 409.390322 
L 290.769378 409.479391 
L 305.146897 410.61117 
L 315.126588 411.044102 
L 326.628603 411.337335 
L 326.797751 411.310035 
L 327.136045 410.83297 
L 327.47434 409.4596 
L 328.320076 404.754516 
L 330.011549 392.478882 
L 331.87217 376.364324 
L 336.269999 338.372345 
L 336.946588 332.386049 
L 337.45403 327.748833 
L 338.130619 323.909018 
L 338.638061 322.296982 
L 339.145503 321.503404 
L 339.652945 320.839251 
L 340.160387 320.600326 
L 340.836976 320.43224 
L 341.344418 320.234013 
L 341.85186 320.284096 
L 342.528449 320.367396 
L 343.374185 320.318148 
L 344.050775 320.22222 
L 344.558216 320.410685 
L 345.403953 320.690681 
L 346.926278 320.932387 
L 347.772015 321.062234 
L 348.617751 320.93756 
L 349.632635 321.117896 
L 350.309224 321.213629 
L 351.154961 320.947463 
L 351.83155 321.252751 
L 352.677286 321.393644 
L 353.523023 321.490921 
L 357.075116 321.989664 
L 358.428294 321.787228 
L 358.597442 321.931571 
L 358.935736 322.730372 
L 359.443178 324.997269 
L 360.288914 330.510309 
L 362.149535 345.09689 
L 369.422868 408.042087 
L 369.93031 410.413194 
L 370.437752 411.892175 
L 370.945194 412.80457 
L 371.452636 413.359672 
L 372.129225 413.762509 
L 372.974961 413.967763 
L 374.158992 414.004022 
L 376.865349 413.790389 
L 385.322714 413.081752 
L 394.28752 412.587857 
L 404.943799 412.227889 
L 411.202249 412.080939 
L 411.371397 412.178193 
L 411.540544 412.445613 
L 412.047986 414.238802 
L 412.555428 416.952918 
L 413.570311 424.034625 
L 416.953257 452.56103 
L 418.475583 465.499502 
L 418.983025 469.469969 
L 421.181939 488.864932 
L 422.36597 497.80351 
L 422.873412 500.070296 
L 423.550002 501.927538 
L 424.057443 502.747935 
L 425.241474 503.267308 
L 425.918064 503.476364 
L 426.425505 503.357554 
L 427.440389 503.098311 
L 428.455273 502.889968 
L 429.301009 502.755005 
L 430.146746 502.684568 
L 430.992482 502.555449 
L 432.007366 502.499144 
L 433.698839 502.140733 
L 434.375428 502.06644 
L 435.897754 502.202472 
L 437.250932 501.906301 
L 437.758374 501.932607 
L 439.2807 501.633859 
L 441.14132 501.684554 
L 442.494498 501.516899 
L 442.832793 501.579139 
L 443.171087 501.328763 
L 443.509382 500.529928 
L 443.847676 499.101811 
L 444.524266 494.837656 
L 445.539149 487.152157 
L 448.752948 459.517149 
L 449.936979 449.259718 
L 452.474188 427.389056 
L 453.827367 416.295212 
L 454.334809 413.558917 
L 454.84225 411.856686 
L 455.349692 410.801571 
L 455.857134 410.158371 
L 456.533723 409.685769 
L 457.37946 409.437083 
L 458.563491 409.378467 
L 460.931553 409.555251 
L 470.065507 410.338239 
L 479.19946 410.842513 
L 490.194034 411.210733 
L 495.945042 411.318119 
L 496.11419 411.162126 
L 496.452484 410.261394 
L 496.959926 408.050399 
L 497.97481 401.184635 
L 498.651399 396.170992 
L 506.939616 325.474023 
L 507.616205 322.557173 
L 508.123647 321.462183 
L 508.631089 320.836802 
L 509.476826 320.419104 
L 509.984267 320.20999 
L 510.491709 320.278963 
L 511.168299 320.39196 
L 513.367213 320.473015 
L 515.058686 320.81373 
L 516.07357 321.026269 
L 518.610779 321.34408 
L 520.978841 321.35766 
L 521.655431 321.368426 
L 523.008609 321.703002 
L 524.869229 321.669892 
L 527.406439 322.10816 
L 527.744733 322.391745 
L 528.083028 323.005841 
L 528.421322 324.21232 
L 529.097911 328.040227 
L 529.943648 334.037274 
L 532.142563 352.568576 
L 533.495741 364.462058 
L 537.216981 396.790537 
L 538.062718 404.111869 
L 538.739307 408.806513 
L 539.246749 410.90191 
L 539.754191 412.204535 
L 540.261633 413.007081 
L 540.938222 413.603845 
L 541.614811 413.889673 
L 542.629695 414.029746 
L 544.321168 413.969014 
L 561.743339 412.676843 
L 571.384734 412.309223 
L 580.349541 412.094385 
L 580.518688 412.176158 
L 580.856983 412.898974 
L 581.364425 414.928619 
L 582.041014 418.948939 
L 583.732487 432.016049 
L 588.806905 475.369211 
L 590.667526 491.535412 
L 591.344115 496.942095 
L 592.020704 500.010529 
L 592.528146 501.237988 
L 593.035588 502.151996 
L 593.543029 502.626885 
L 594.219619 502.890304 
L 594.896208 503.085483 
L 597.940859 503.08396 
L 598.786596 503.296801 
L 599.463185 502.972825 
L 601.492952 502.475101 
L 603.015278 502.122316 
L 605.552487 501.848589 
L 606.905666 501.905571 
L 607.920549 501.895669 
L 608.935433 501.675153 
L 609.781169 501.723044 
L 610.626906 502.069517 
L 612.149232 501.688989 
L 612.487526 501.058069 
L 612.994968 498.959639 
L 613.671557 494.937473 
L 614.855588 486.088716 
L 622.636364 418.287889 
L 622.636364 418.287889 
" clip-path="url(#p7a458d3a7a)" style="fill: none; stroke: #ff0000; stroke-width: 1.5; stroke-linecap: square"/>
   </g>
   <g id="patch_9">
    <path d="M 90 512.64 
L 90 311.04 
" style="fill: none; stroke: #000000; stroke-width: 0.8; stroke-linejoin: miter; stroke-linecap: square"/>
   </g>
   <g id="patch_10">
    <path d="M 648 512.64 
L 648 311.04 
" style="fill: none; stroke: #000000; stroke-width: 0.8; stroke-linejoin: miter; stroke-linecap: square"/>
   </g>
   <g id="patch_11">
    <path d="M 90 512.64 
L 648 512.64 
" style="fill: none; stroke: #000000; stroke-width: 0.8; stroke-linejoin: miter; stroke-linecap: square"/>
   </g>
   <g id="patch_12">
    <path d="M 90 311.04 
L 648 311.04 
" style="fill: none; stroke: #000000; stroke-width: 0.8; stroke-linejoin: miter; stroke-linecap: square"/>
   </g>
   <g id="text_33">
    <!-- Velocity Tracking (PD Control) -->
    <g transform="translate(280.160625 305.04) scale(0.12 -0.12)">
     <use xlink:href="#DejaVuSans-56"/>
     <use xlink:href="#DejaVuSans-65" transform="translate(60.658203 0)"/>
     <use xlink:href="#DejaVuSans-6c" transform="translate(122.181641 0)"/>
     <use xlink:href="#DejaVuSans-6f" transform="translate(149.964844 0)"/>
     <use xlink:href="#DejaVuSans-63" transform="translate(211.146484 0)"/>
     <use xlink:href="#DejaVuSans-69" transform="translate(266.126953 0)"/>
     <use xlink:href="#DejaVuSans-74" transform="translate(293.910156 0)"/>
     <use xlink:href="#DejaVuSans-79" transform="translate(333.119141 0)"/>
     <use xlink:href="#DejaVuSans-20" transform="translate(392.298828 0)"/>
     <use xlink:href="#DejaVuSans-54" transform="translate(424.085938 0)"/>
     <use xlink:href="#DejaVuSans-72" transform="translate(470.419922 0)"/>
     <use xlink:href="#DejaVuSans-61" transform="translate(511.533203 0)"/>
     <use xlink:href="#DejaVuSans-63" transform="translate(572.8125 0)"/>
     <use xlink:href="#DejaVuSans-6b" transform="translate(627.792969 0)"/>
     <use xlink:href="#DejaVuSans-69" transform="translate(685.703125 0)"/>
     <use xlink:href="#DejaVuSans-6e" transform="translate(713.486328 0)"/>
     <use xlink:href="#DejaVuSans-67" transform="translate(776.865234 0)"/>
     <use xlink:href="#DejaVuSans-20" transform="translate(840.341797 0)"/>
     <use xlink:href="#DejaVuSans-28" transform="translate(872.128906 0)"/>
     <use xlink:href="#DejaVuSans-50" transform="translate(911.142578 0)"/>
     <use xlink:href="#DejaVuSans-44" transform="translate(971.445312 0)"/>
     <use xlink:href="#DejaVuSans-20" transform="translate(1048.447266 0)"/>
     <use xlink:href="#DejaVuSans-43" transform="translate(1080.234375 0)"/>
     <use xlink:href="#DejaVuSans-6f" transform="translate(1150.058594 0)"/>
     <use xlink:href="#DejaVuSans-6e" transform="translate(1211.240234 0)"/>
     <use xlink:href="#DejaVuSans-74" transform="translate(1274.619141 0)"/>
     <use xlink:href="#DejaVuSans-72" transform="translate(1313.828125 0)"/>
     <use xlink:href="#DejaVuSans-6f" transform="translate(1352.691406 0)"/>
     <use xlink:href="#DejaVuSans-6c" transform="translate(1413.873047 0)"/>
     <use xlink:href="#DejaVuSans-29" transform="translate(1441.65625 0)"/>
    </g>
   </g>
   <g id="legend_2">
    <g id="patch_13">
     <path d="M 97 507.64 
L 299.085938 507.64 
Q 301.085938 507.64 301.085938 505.64 
L 301.085938 462.605625 
Q 301.085938 460.605625 299.085938 460.605625 
L 97 460.605625 
Q 95 460.605625 95 462.605625 
L 95 505.64 
Q 95 507.64 97 507.64 
z
" style="fill: #ffffff; opacity: 0.8; stroke: #cccccc; stroke-linejoin: miter"/>
    </g>
    <g id="line2d_60">
     <path d="M 99 468.704063 
L 109 468.704063 
L 119 468.704063 
" style="fill: none; stroke-dasharray: 5.55,2.4; stroke-dashoffset: 0; stroke: #000000; stroke-width: 1.5"/>
    </g>
    <g id="text_34">
     <!-- Reference Velocity -->
     <g transform="translate(127 472.204063) scale(0.1 -0.1)">
      <use xlink:href="#DejaVuSans-52"/>
      <use xlink:href="#DejaVuSans-65" transform="translate(64.982422 0)"/>
      <use xlink:href="#DejaVuSans-66" transform="translate(126.505859 0)"/>
      <use xlink:href="#DejaVuSans-65" transform="translate(161.710938 0)"/>
      <use xlink:href="#DejaVuSans-72" transform="translate(223.234375 0)"/>
      <use xlink:href="#DejaVuSans-65" transform="translate(262.097656 0)"/>
      <use xlink:href="#DejaVuSans-6e" transform="translate(323.621094 0)"/>
      <use xlink:href="#DejaVuSans-63" transform="translate(387 0)"/>
      <use xlink:href="#DejaVuSans-65" transform="translate(441.980469 0)"/>
      <use xlink:href="#DejaVuSans-20" transform="translate(503.503906 0)"/>
      <use xlink:href="#DejaVuSans-56" transform="translate(535.291016 0)"/>
      <use xlink:href="#DejaVuSans-65" transform="translate(595.949219 0)"/>
      <use xlink:href="#DejaVuSans-6c" transform="translate(657.472656 0)"/>
      <use xlink:href="#DejaVuSans-6f" transform="translate(685.255859 0)"/>
      <use xlink:href="#DejaVuSans-63" transform="translate(746.4375 0)"/>
      <use xlink:href="#DejaVuSans-69" transform="translate(801.417969 0)"/>
      <use xlink:href="#DejaVuSans-74" transform="translate(829.201172 0)"/>
      <use xlink:href="#DejaVuSans-79" transform="translate(868.410156 0)"/>
     </g>
    </g>
    <g id="line2d_61">
     <path d="M 99 483.382187 
L 109 483.382187 
L 119 483.382187 
" style="fill: none; stroke: #0000ff; stroke-width: 1.5; stroke-linecap: square"/>
    </g>
    <g id="text_35">
     <!-- Velocity with Feedforward (PD) -->
     <g transform="translate(127 486.882187) scale(0.1 -0.1)">
      <use xlink:href="#DejaVuSans-56"/>
      <use xlink:href="#DejaVuSans-65" transform="translate(60.658203 0)"/>
      <use xlink:href="#DejaVuSans-6c" transform="translate(122.181641 0)"/>
      <use xlink:href="#DejaVuSans-6f" transform="translate(149.964844 0)"/>
      <use xlink:href="#DejaVuSans-63" transform="translate(211.146484 0)"/>
      <use xlink:href="#DejaVuSans-69" transform="translate(266.126953 0)"/>
      <use xlink:href="#DejaVuSans-74" transform="translate(293.910156 0)"/>
      <use xlink:href="#DejaVuSans-79" transform="translate(333.119141 0)"/>
      <use xlink:href="#DejaVuSans-20" transform="translate(392.298828 0)"/>
      <use xlink:href="#DejaVuSans-77" transform="translate(424.085938 0)"/>
      <use xlink:href="#DejaVuSans-69" transform="translate(505.873047 0)"/>
      <use xlink:href="#DejaVuSans-74" transform="translate(533.65625 0)"/>
      <use xlink:href="#DejaVuSans-68" transform="translate(572.865234 0)"/>
      <use xlink:href="#DejaVuSans-20" transform="translate(636.244141 0)"/>
      <use xlink:href="#DejaVuSans-46" transform="translate(668.03125 0)"/>
      <use xlink:href="#DejaVuSans-65" transform="translate(720.050781 0)"/>
      <use xlink:href="#DejaVuSans-65" transform="translate(781.574219 0)"/>
      <use xlink:href="#DejaVuSans-64" transform="translate(843.097656 0)"/>
      <use xlink:href="#DejaVuSans-66" transform="translate(906.574219 0)"/>
      <use xlink:href="#DejaVuSans-6f" transform="translate(941.779297 0)"/>
      <use xlink:href="#DejaVuSans-72" transform="translate(1002.960938 0)"/>
      <use xlink:href="#DejaVuSans-77" transform="translate(1044.074219 0)"/>
      <use xlink:href="#DejaVuSans-61" transform="translate(1125.861328 0)"/>
      <use xlink:href="#DejaVuSans-72" transform="translate(1187.140625 0)"/>
      <use xlink:href="#DejaVuSans-64" transform="translate(1226.503906 0)"/>
      <use xlink:href="#DejaVuSans-20" transform="translate(1289.980469 0)"/>
      <use xlink:href="#DejaVuSans-28" transform="translate(1321.767578 0)"/>
      <use xlink:href="#DejaVuSans-50" transform="translate(1360.78125 0)"/>
      <use xlink:href="#DejaVuSans-44" transform="translate(1421.083984 0)"/>
      <use xlink:href="#DejaVuSans-29" transform="translate(1498.085938 0)"/>
     </g>
    </g>
    <g id="line2d_62">
     <path d="M 99 498.060313 
L 109 498.060313 
L 119 498.060313 
" style="fill: none; stroke: #ff0000; stroke-width: 1.5; stroke-linecap: square"/>
    </g>
    <g id="text_36">
     <!-- Velocity without Feedforward (PD) -->
     <g transform="translate(127 501.560313) scale(0.1 -0.1)">
      <use xlink:href="#DejaVuSans-56"/>
      <use xlink:href="#DejaVuSans-65" transform="translate(60.658203 0)"/>
      <use xlink:href="#DejaVuSans-6c" transform="translate(122.181641 0)"/>
      <use xlink:href="#DejaVuSans-6f" transform="translate(149.964844 0)"/>
      <use xlink:href="#DejaVuSans-63" transform="translate(211.146484 0)"/>
      <use xlink:href="#DejaVuSans-69" transform="translate(266.126953 0)"/>
      <use xlink:href="#DejaVuSans-74" transform="translate(293.910156 0)"/>
      <use xlink:href="#DejaVuSans-79" transform="translate(333.119141 0)"/>
      <use xlink:href="#DejaVuSans-20" transform="translate(392.298828 0)"/>
      <use xlink:href="#DejaVuSans-77" transform="translate(424.085938 0)"/>
      <use xlink:href="#DejaVuSans-69" transform="translate(505.873047 0)"/>
      <use xlink:href="#DejaVuSans-74" transform="translate(533.65625 0)"/>
      <use xlink:href="#DejaVuSans-68" transform="translate(572.865234 0)"/>
      <use xlink:href="#DejaVuSans-6f" transform="translate(636.244141 0)"/>
      <use xlink:href="#DejaVuSans-75" transform="translate(697.425781 0)"/>
      <use xlink:href="#DejaVuSans-74" transform="translate(760.804688 0)"/>
      <use xlink:href="#DejaVuSans-20" transform="translate(800.013672 0)"/>
      <use xlink:href="#DejaVuSans-46" transform="translate(831.800781 0)"/>
      <use xlink:href="#DejaVuSans-65" transform="translate(883.820312 0)"/>
      <use xlink:href="#DejaVuSans-65" transform="translate(945.34375 0)"/>
      <use xlink:href="#DejaVuSans-64" transform="translate(1006.867188 0)"/>
      <use xlink:href="#DejaVuSans-66" transform="translate(1070.34375 0)"/>
      <use xlink:href="#DejaVuSans-6f" transform="translate(1105.548828 0)"/>
      <use xlink:href="#DejaVuSans-72" transform="translate(1166.730469 0)"/>
      <use xlink:href="#DejaVuSans-77" transform="translate(1207.84375 0)"/>
      <use xlink:href="#DejaVuSans-61" transform="translate(1289.630859 0)"/>
      <use xlink:href="#DejaVuSans-72" transform="translate(1350.910156 0)"/>
      <use xlink:href="#DejaVuSans-64" transform="translate(1390.273438 0)"/>
      <use xlink:href="#DejaVuSans-20" transform="translate(1453.75 0)"/>
      <use xlink:href="#DejaVuSans-28" transform="translate(1485.537109 0)"/>
      <use xlink:href="#DejaVuSans-50" transform="translate(1524.550781 0)"/>
      <use xlink:href="#DejaVuSans-44" transform="translate(1584.853516 0)"/>
      <use xlink:href="#DejaVuSans-29" transform="translate(1661.855469 0)"/>
     </g>
    </g>
   </g>
  </g>
  <g id="text_37">
   <!-- Comparison of Closed-Loop Response with and without Feedforward (PD Control) -->
   <g transform="translate(117.110625 20.638125) scale(0.12 -0.12)">
    <defs>
     <path id="DejaVuSans-70" d="M 1159 525 
L 1159 -1331 
L 581 -1331 
L 581 3500 
L 1159 3500 
L 1159 2969 
Q 1341 3281 1617 3432 
Q 1894 3584 2278 3584 
Q 2916 3584 3314 3078 
Q 3713 2572 3713 1747 
Q 3713 922 3314 415 
Q 2916 -91 2278 -91 
Q 1894 -91 1617 61 
Q 1341 213 1159 525 
z
M 3116 1747 
Q 3116 2381 2855 2742 
Q 2594 3103 2138 3103 
Q 1681 3103 1420 2742 
Q 1159 2381 1159 1747 
Q 1159 1113 1420 752 
Q 1681 391 2138 391 
Q 2594 391 2855 752 
Q 3116 1113 3116 1747 
z
" transform="scale(0.015625)"/>
     <path id="DejaVuSans-2d" d="M 313 2009 
L 1997 2009 
L 1997 1497 
L 313 1497 
L 313 2009 
z
" transform="scale(0.015625)"/>
     <path id="DejaVuSans-4c" d="M 628 4666 
L 1259 4666 
L 1259 531 
L 3531 531 
L 3531 0 
L 628 0 
L 628 4666 
z
" transform="scale(0.015625)"/>
    </defs>
    <use xlink:href="#DejaVuSans-43"/>
    <use xlink:href="#DejaVuSans-6f" transform="translate(69.824219 0)"/>
    <use xlink:href="#DejaVuSans-6d" transform="translate(131.005859 0)"/>
    <use xlink:href="#DejaVuSans-70" transform="translate(228.417969 0)"/>
    <use xlink:href="#DejaVuSans-61" transform="translate(291.894531 0)"/>
    <use xlink:href="#DejaVuSans-72" transform="translate(353.173828 0)"/>
    <use xlink:href="#DejaVuSans-69" transform="translate(394.287109 0)"/>
    <use xlink:href="#DejaVuSans-73" transform="translate(422.070312 0)"/>
    <use xlink:href="#DejaVuSans-6f" transform="translate(474.169922 0)"/>
    <use xlink:href="#DejaVuSans-6e" transform="translate(535.351562 0)"/>
    <use xlink:href="#DejaVuSans-20" transform="translate(598.730469 0)"/>
    <use xlink:href="#DejaVuSans-6f" transform="translate(630.517578 0)"/>
    <use xlink:href="#DejaVuSans-66" transform="translate(691.699219 0)"/>
    <use xlink:href="#DejaVuSans-20" transform="translate(726.904297 0)"/>
    <use xlink:href="#DejaVuSans-43" transform="translate(758.691406 0)"/>
    <use xlink:href="#DejaVuSans-6c" transform="translate(828.515625 0)"/>
    <use xlink:href="#DejaVuSans-6f" transform="translate(856.298828 0)"/>
    <use xlink:href="#DejaVuSans-73" transform="translate(917.480469 0)"/>
    <use xlink:href="#DejaVuSans-65" transform="translate(969.580078 0)"/>
    <use xlink:href="#DejaVuSans-64" transform="translate(1031.103516 0)"/>
    <use xlink:href="#DejaVuSans-2d" transform="translate(1094.580078 0)"/>
    <use xlink:href="#DejaVuSans-4c" transform="translate(1130.664062 0)"/>
    <use xlink:href="#DejaVuSans-6f" transform="translate(1184.626953 0)"/>
    <use xlink:href="#DejaVuSans-6f" transform="translate(1245.808594 0)"/>
    <use xlink:href="#DejaVuSans-70" transform="translate(1306.990234 0)"/>
    <use xlink:href="#DejaVuSans-20" transform="translate(1370.466797 0)"/>
    <use xlink:href="#DejaVuSans-52" transform="translate(1402.253906 0)"/>
    <use xlink:href="#DejaVuSans-65" transform="translate(1467.236328 0)"/>
    <use xlink:href="#DejaVuSans-73" transform="translate(1528.759766 0)"/>
    <use xlink:href="#DejaVuSans-70" transform="translate(1580.859375 0)"/>
    <use xlink:href="#DejaVuSans-6f" transform="translate(1644.335938 0)"/>
    <use xlink:href="#DejaVuSans-6e" transform="translate(1705.517578 0)"/>
    <use xlink:href="#DejaVuSans-73" transform="translate(1768.896484 0)"/>
    <use xlink:href="#DejaVuSans-65" transform="translate(1820.996094 0)"/>
    <use xlink:href="#DejaVuSans-20" transform="translate(1882.519531 0)"/>
    <use xlink:href="#DejaVuSans-77" transform="translate(1914.306641 0)"/>
    <use xlink:href="#DejaVuSans-69" transform="translate(1996.09375 0)"/>
    <use xlink:href="#DejaVuSans-74" transform="translate(2023.876953 0)"/>
    <use xlink:href="#DejaVuSans-68" transform="translate(2063.085938 0)"/>
    <use xlink:href="#DejaVuSans-20" transform="translate(2126.464844 0)"/>
    <use xlink:href="#DejaVuSans-61" transform="translate(2158.251953 0)"/>
    <use xlink:href="#DejaVuSans-6e" transform="translate(2219.53125 0)"/>
    <use xlink:href="#DejaVuSans-64" transform="translate(2282.910156 0)"/>
    <use xlink:href="#DejaVuSans-20" transform="translate(2346.386719 0)"/>
    <use xlink:href="#DejaVuSans-77" transform="translate(2378.173828 0)"/>
    <use xlink:href="#DejaVuSans-69" transform="translate(2459.960938 0)"/>
    <use xlink:href="#DejaVuSans-74" transform="translate(2487.744141 0)"/>
    <use xlink:href="#DejaVuSans-68" transform="translate(2526.953125 0)"/>
    <use xlink:href="#DejaVuSans-6f" transform="translate(2590.332031 0)"/>
    <use xlink:href="#DejaVuSans-75" transform="translate(2651.513672 0)"/>
    <use xlink:href="#DejaVuSans-74" transform="translate(2714.892578 0)"/>
    <use xlink:href="#DejaVuSans-20" transform="translate(2754.101562 0)"/>
    <use xlink:href="#DejaVuSans-46" transform="translate(2785.888672 0)"/>
    <use xlink:href="#DejaVuSans-65" transform="translate(2837.908203 0)"/>
    <use xlink:href="#DejaVuSans-65" transform="translate(2899.431641 0)"/>
    <use xlink:href="#DejaVuSans-64" transform="translate(2960.955078 0)"/>
    <use xlink:href="#DejaVuSans-66" transform="translate(3024.431641 0)"/>
    <use xlink:href="#DejaVuSans-6f" transform="translate(3059.636719 0)"/>
    <use xlink:href="#DejaVuSans-72" transform="translate(3120.818359 0)"/>
    <use xlink:href="#DejaVuSans-77" transform="translate(3161.931641 0)"/>
    <use xlink:href="#DejaVuSans-61" transform="translate(3243.71875 0)"/>
    <use xlink:href="#DejaVuSans-72" transform="translate(3304.998047 0)"/>
    <use xlink:href="#DejaVuSans-64" transform="translate(3344.361328 0)"/>
    <use xlink:href="#DejaVuSans-20" transform="translate(3407.837891 0)"/>
    <use xlink:href="#DejaVuSans-28" transform="translate(3439.625 0)"/>
    <use xlink:href="#DejaVuSans-50" transform="translate(3478.638672 0)"/>
    <use xlink:href="#DejaVuSans-44" transform="translate(3538.941406 0)"/>
    <use xlink:href="#DejaVuSans-20" transform="translate(3615.943359 0)"/>
    <use xlink:href="#DejaVuSans-43" transform="translate(3647.730469 0)"/>
    <use xlink:href="#DejaVuSans-6f" transform="translate(3717.554688 0)"/>
    <use xlink:href="#DejaVuSans-6e" transform="translate(3778.736328 0)"/>
    <use xlink:href="#DejaVuSans-74" transform="translate(3842.115234 0)"/>
    <use xlink:href="#DejaVuSans-72" transform="translate(3881.324219 0)"/>
    <use xlink:href="#DejaVuSans-6f" transform="translate(3920.1875 0)"/>
    <use xlink:href="#DejaVuSans-6c" transform="translate(3981.369141 0)"/>
    <use xlink:href="#DejaVuSans-29" transform="translate(4009.152344 0)"/>
   </g>
  </g>
 </g>
 <defs>
  <clipPath id="pf3ec6200c7">
   <rect x="90" y="69.12" width="558" height="201.6"/>
  </clipPath>
  <clipPath id="p7a458d3a7a">
   <rect x="90" y="311.04" width="558" height="201.6"/>
  </clipPath>
 </defs>
</svg>
